<?xml version="1.0" encoding="utf-8" standalone="no"?>
<!DOCTYPE svg PUBLIC "-//W3C//DTD SVG 1.1//EN"
  "http://www.w3.org/Graphics/SVG/1.1/DTD/svg11.dtd">
<!-- Created with matplotlib (https://matplotlib.org/) -->
<svg height="288pt" version="1.1" viewBox="0 0 576 288" width="576pt" xmlns="http://www.w3.org/2000/svg" xmlns:xlink="http://www.w3.org/1999/xlink">
 <defs>
  <style type="text/css">
*{stroke-linecap:butt;stroke-linejoin:round;}
  </style>
 </defs>
 <g id="figure_1">
  <g id="patch_1">
   <path d="M 0 288 
L 576 288 
L 576 0 
L 0 0 
z
" style="fill:#ffffff;"/>
  </g>
  <g id="axes_1">
   <g id="patch_2">
    <path d="M 24.8 246.2 
L 557.115645 246.2 
L 557.115645 39.8 
L 24.8 39.8 
z
" style="fill:#ffffff;"/>
   </g>
   <g id="axes_2">
    <g id="patch_3">
     <path d="M 24.8 39.8 
L 557.115645 39.8 
L 557.115645 39.8 
L 24.8 39.8 
z
" style="fill:#ffffff;"/>
    </g>
    <g id="matplotlib.axis_1">
     <g id="xtick_1">
      <g id="line2d_1">
       <defs>
        <path d="M 0 0 
L 0 -3.5 
" id="mb62e10ffa8" style="stroke:#000000;stroke-width:0.8;"/>
       </defs>
       <g>
        <use style="stroke:#000000;stroke-width:0.8;" x="89.28557" xlink:href="#mb62e10ffa8" y="39.8"/>
       </g>
      </g>
      <g id="text_1">
       <!-- 4.5 -->
       <defs>
        <path d="M 37.796875 64.3125 
L 12.890625 25.390625 
L 37.796875 25.390625 
z
M 35.203125 72.90625 
L 47.609375 72.90625 
L 47.609375 25.390625 
L 58.015625 25.390625 
L 58.015625 17.1875 
L 47.609375 17.1875 
L 47.609375 0 
L 37.796875 0 
L 37.796875 17.1875 
L 4.890625 17.1875 
L 4.890625 26.703125 
z
" id="DejaVuSans-52"/>
        <path d="M 10.6875 12.40625 
L 21 12.40625 
L 21 0 
L 10.6875 0 
z
" id="DejaVuSans-46"/>
        <path d="M 10.796875 72.90625 
L 49.515625 72.90625 
L 49.515625 64.59375 
L 19.828125 64.59375 
L 19.828125 46.734375 
Q 21.96875 47.46875 24.109375 47.828125 
Q 26.265625 48.1875 28.421875 48.1875 
Q 40.625 48.1875 47.75 41.5 
Q 54.890625 34.8125 54.890625 23.390625 
Q 54.890625 11.625 47.5625 5.09375 
Q 40.234375 -1.421875 26.90625 -1.421875 
Q 22.3125 -1.421875 17.546875 -0.640625 
Q 12.796875 0.140625 7.71875 1.703125 
L 7.71875 11.625 
Q 12.109375 9.234375 16.796875 8.0625 
Q 21.484375 6.890625 26.703125 6.890625 
Q 35.15625 6.890625 40.078125 11.328125 
Q 45.015625 15.765625 45.015625 23.390625 
Q 45.015625 31 40.078125 35.4375 
Q 35.15625 39.890625 26.703125 39.890625 
Q 22.75 39.890625 18.8125 39.015625 
Q 14.890625 38.140625 10.796875 36.28125 
z
" id="DejaVuSans-53"/>
       </defs>
       <g transform="translate(81.334008 30.720313)scale(0.1 -0.1)">
        <use xlink:href="#DejaVuSans-52"/>
        <use x="63.623047" xlink:href="#DejaVuSans-46"/>
        <use x="95.410156" xlink:href="#DejaVuSans-53"/>
       </g>
      </g>
     </g>
     <g id="xtick_2">
      <g id="line2d_2">
       <g>
        <use style="stroke:#000000;stroke-width:0.8;" x="175.04128" xlink:href="#mb62e10ffa8" y="39.8"/>
       </g>
      </g>
      <g id="text_2">
       <!-- 5.0 -->
       <defs>
        <path d="M 31.78125 66.40625 
Q 24.171875 66.40625 20.328125 58.90625 
Q 16.5 51.421875 16.5 36.375 
Q 16.5 21.390625 20.328125 13.890625 
Q 24.171875 6.390625 31.78125 6.390625 
Q 39.453125 6.390625 43.28125 13.890625 
Q 47.125 21.390625 47.125 36.375 
Q 47.125 51.421875 43.28125 58.90625 
Q 39.453125 66.40625 31.78125 66.40625 
z
M 31.78125 74.21875 
Q 44.046875 74.21875 50.515625 64.515625 
Q 56.984375 54.828125 56.984375 36.375 
Q 56.984375 17.96875 50.515625 8.265625 
Q 44.046875 -1.421875 31.78125 -1.421875 
Q 19.53125 -1.421875 13.0625 8.265625 
Q 6.59375 17.96875 6.59375 36.375 
Q 6.59375 54.828125 13.0625 64.515625 
Q 19.53125 74.21875 31.78125 74.21875 
z
" id="DejaVuSans-48"/>
       </defs>
       <g transform="translate(167.089718 30.720313)scale(0.1 -0.1)">
        <use xlink:href="#DejaVuSans-53"/>
        <use x="63.623047" xlink:href="#DejaVuSans-46"/>
        <use x="95.410156" xlink:href="#DejaVuSans-48"/>
       </g>
      </g>
     </g>
     <g id="xtick_3">
      <g id="line2d_3">
       <g>
        <use style="stroke:#000000;stroke-width:0.8;" x="260.79699" xlink:href="#mb62e10ffa8" y="39.8"/>
       </g>
      </g>
      <g id="text_3">
       <!-- 5.5 -->
       <g transform="translate(252.845428 30.720313)scale(0.1 -0.1)">
        <use xlink:href="#DejaVuSans-53"/>
        <use x="63.623047" xlink:href="#DejaVuSans-46"/>
        <use x="95.410156" xlink:href="#DejaVuSans-53"/>
       </g>
      </g>
     </g>
     <g id="xtick_4">
      <g id="line2d_4">
       <g>
        <use style="stroke:#000000;stroke-width:0.8;" x="346.5527" xlink:href="#mb62e10ffa8" y="39.8"/>
       </g>
      </g>
      <g id="text_4">
       <!-- 6.0 -->
       <defs>
        <path d="M 33.015625 40.375 
Q 26.375 40.375 22.484375 35.828125 
Q 18.609375 31.296875 18.609375 23.390625 
Q 18.609375 15.53125 22.484375 10.953125 
Q 26.375 6.390625 33.015625 6.390625 
Q 39.65625 6.390625 43.53125 10.953125 
Q 47.40625 15.53125 47.40625 23.390625 
Q 47.40625 31.296875 43.53125 35.828125 
Q 39.65625 40.375 33.015625 40.375 
z
M 52.59375 71.296875 
L 52.59375 62.3125 
Q 48.875 64.0625 45.09375 64.984375 
Q 41.3125 65.921875 37.59375 65.921875 
Q 27.828125 65.921875 22.671875 59.328125 
Q 17.53125 52.734375 16.796875 39.40625 
Q 19.671875 43.65625 24.015625 45.921875 
Q 28.375 48.1875 33.59375 48.1875 
Q 44.578125 48.1875 50.953125 41.515625 
Q 57.328125 34.859375 57.328125 23.390625 
Q 57.328125 12.15625 50.6875 5.359375 
Q 44.046875 -1.421875 33.015625 -1.421875 
Q 20.359375 -1.421875 13.671875 8.265625 
Q 6.984375 17.96875 6.984375 36.375 
Q 6.984375 53.65625 15.1875 63.9375 
Q 23.390625 74.21875 37.203125 74.21875 
Q 40.921875 74.21875 44.703125 73.484375 
Q 48.484375 72.75 52.59375 71.296875 
z
" id="DejaVuSans-54"/>
       </defs>
       <g transform="translate(338.601138 30.720313)scale(0.1 -0.1)">
        <use xlink:href="#DejaVuSans-54"/>
        <use x="63.623047" xlink:href="#DejaVuSans-46"/>
        <use x="95.410156" xlink:href="#DejaVuSans-48"/>
       </g>
      </g>
     </g>
     <g id="xtick_5">
      <g id="line2d_5">
       <g>
        <use style="stroke:#000000;stroke-width:0.8;" x="432.30841" xlink:href="#mb62e10ffa8" y="39.8"/>
       </g>
      </g>
      <g id="text_5">
       <!-- 6.5 -->
       <g transform="translate(424.356848 30.720313)scale(0.1 -0.1)">
        <use xlink:href="#DejaVuSans-54"/>
        <use x="63.623047" xlink:href="#DejaVuSans-46"/>
        <use x="95.410156" xlink:href="#DejaVuSans-53"/>
       </g>
      </g>
     </g>
     <g id="xtick_6">
      <g id="line2d_6">
       <g>
        <use style="stroke:#000000;stroke-width:0.8;" x="518.06412" xlink:href="#mb62e10ffa8" y="39.8"/>
       </g>
      </g>
      <g id="text_6">
       <!-- 7.0 -->
       <defs>
        <path d="M 8.203125 72.90625 
L 55.078125 72.90625 
L 55.078125 68.703125 
L 28.609375 0 
L 18.3125 0 
L 43.21875 64.59375 
L 8.203125 64.59375 
z
" id="DejaVuSans-55"/>
       </defs>
       <g transform="translate(510.112558 30.720313)scale(0.1 -0.1)">
        <use xlink:href="#DejaVuSans-55"/>
        <use x="63.623047" xlink:href="#DejaVuSans-46"/>
        <use x="95.410156" xlink:href="#DejaVuSans-48"/>
       </g>
      </g>
     </g>
     <g id="text_7">
      <!-- Height (ft) -->
      <defs>
       <path d="M 9.8125 72.90625 
L 19.671875 72.90625 
L 19.671875 43.015625 
L 55.515625 43.015625 
L 55.515625 72.90625 
L 65.375 72.90625 
L 65.375 0 
L 55.515625 0 
L 55.515625 34.71875 
L 19.671875 34.71875 
L 19.671875 0 
L 9.8125 0 
z
" id="DejaVuSans-72"/>
       <path d="M 56.203125 29.59375 
L 56.203125 25.203125 
L 14.890625 25.203125 
Q 15.484375 15.921875 20.484375 11.0625 
Q 25.484375 6.203125 34.421875 6.203125 
Q 39.59375 6.203125 44.453125 7.46875 
Q 49.3125 8.734375 54.109375 11.28125 
L 54.109375 2.78125 
Q 49.265625 0.734375 44.1875 -0.34375 
Q 39.109375 -1.421875 33.890625 -1.421875 
Q 20.796875 -1.421875 13.15625 6.1875 
Q 5.515625 13.8125 5.515625 26.8125 
Q 5.515625 40.234375 12.765625 48.109375 
Q 20.015625 56 32.328125 56 
Q 43.359375 56 49.78125 48.890625 
Q 56.203125 41.796875 56.203125 29.59375 
z
M 47.21875 32.234375 
Q 47.125 39.59375 43.09375 43.984375 
Q 39.0625 48.390625 32.421875 48.390625 
Q 24.90625 48.390625 20.390625 44.140625 
Q 15.875 39.890625 15.1875 32.171875 
z
" id="DejaVuSans-101"/>
       <path d="M 9.421875 54.6875 
L 18.40625 54.6875 
L 18.40625 0 
L 9.421875 0 
z
M 9.421875 75.984375 
L 18.40625 75.984375 
L 18.40625 64.59375 
L 9.421875 64.59375 
z
" id="DejaVuSans-105"/>
       <path d="M 45.40625 27.984375 
Q 45.40625 37.75 41.375 43.109375 
Q 37.359375 48.484375 30.078125 48.484375 
Q 22.859375 48.484375 18.828125 43.109375 
Q 14.796875 37.75 14.796875 27.984375 
Q 14.796875 18.265625 18.828125 12.890625 
Q 22.859375 7.515625 30.078125 7.515625 
Q 37.359375 7.515625 41.375 12.890625 
Q 45.40625 18.265625 45.40625 27.984375 
z
M 54.390625 6.78125 
Q 54.390625 -7.171875 48.1875 -13.984375 
Q 42 -20.796875 29.203125 -20.796875 
Q 24.46875 -20.796875 20.265625 -20.09375 
Q 16.0625 -19.390625 12.109375 -17.921875 
L 12.109375 -9.1875 
Q 16.0625 -11.328125 19.921875 -12.34375 
Q 23.78125 -13.375 27.78125 -13.375 
Q 36.625 -13.375 41.015625 -8.765625 
Q 45.40625 -4.15625 45.40625 5.171875 
L 45.40625 9.625 
Q 42.625 4.78125 38.28125 2.390625 
Q 33.9375 0 27.875 0 
Q 17.828125 0 11.671875 7.65625 
Q 5.515625 15.328125 5.515625 27.984375 
Q 5.515625 40.671875 11.671875 48.328125 
Q 17.828125 56 27.875 56 
Q 33.9375 56 38.28125 53.609375 
Q 42.625 51.21875 45.40625 46.390625 
L 45.40625 54.6875 
L 54.390625 54.6875 
z
" id="DejaVuSans-103"/>
       <path d="M 54.890625 33.015625 
L 54.890625 0 
L 45.90625 0 
L 45.90625 32.71875 
Q 45.90625 40.484375 42.875 44.328125 
Q 39.84375 48.1875 33.796875 48.1875 
Q 26.515625 48.1875 22.3125 43.546875 
Q 18.109375 38.921875 18.109375 30.90625 
L 18.109375 0 
L 9.078125 0 
L 9.078125 75.984375 
L 18.109375 75.984375 
L 18.109375 46.1875 
Q 21.34375 51.125 25.703125 53.5625 
Q 30.078125 56 35.796875 56 
Q 45.21875 56 50.046875 50.171875 
Q 54.890625 44.34375 54.890625 33.015625 
z
" id="DejaVuSans-104"/>
       <path d="M 18.3125 70.21875 
L 18.3125 54.6875 
L 36.8125 54.6875 
L 36.8125 47.703125 
L 18.3125 47.703125 
L 18.3125 18.015625 
Q 18.3125 11.328125 20.140625 9.421875 
Q 21.96875 7.515625 27.59375 7.515625 
L 36.8125 7.515625 
L 36.8125 0 
L 27.59375 0 
Q 17.1875 0 13.234375 3.875 
Q 9.28125 7.765625 9.28125 18.015625 
L 9.28125 47.703125 
L 2.6875 47.703125 
L 2.6875 54.6875 
L 9.28125 54.6875 
L 9.28125 70.21875 
z
" id="DejaVuSans-116"/>
       <path id="DejaVuSans-32"/>
       <path d="M 31 75.875 
Q 24.46875 64.65625 21.28125 53.65625 
Q 18.109375 42.671875 18.109375 31.390625 
Q 18.109375 20.125 21.3125 9.0625 
Q 24.515625 -2 31 -13.1875 
L 23.1875 -13.1875 
Q 15.875 -1.703125 12.234375 9.375 
Q 8.59375 20.453125 8.59375 31.390625 
Q 8.59375 42.28125 12.203125 53.3125 
Q 15.828125 64.359375 23.1875 75.875 
z
" id="DejaVuSans-40"/>
       <path d="M 37.109375 75.984375 
L 37.109375 68.5 
L 28.515625 68.5 
Q 23.6875 68.5 21.796875 66.546875 
Q 19.921875 64.59375 19.921875 59.515625 
L 19.921875 54.6875 
L 34.71875 54.6875 
L 34.71875 47.703125 
L 19.921875 47.703125 
L 19.921875 0 
L 10.890625 0 
L 10.890625 47.703125 
L 2.296875 47.703125 
L 2.296875 54.6875 
L 10.890625 54.6875 
L 10.890625 58.5 
Q 10.890625 67.625 15.140625 71.796875 
Q 19.390625 75.984375 28.609375 75.984375 
z
" id="DejaVuSans-102"/>
       <path d="M 8.015625 75.875 
L 15.828125 75.875 
Q 23.140625 64.359375 26.78125 53.3125 
Q 30.421875 42.28125 30.421875 31.390625 
Q 30.421875 20.453125 26.78125 9.375 
Q 23.140625 -1.703125 15.828125 -13.1875 
L 8.015625 -13.1875 
Q 14.5 -2 17.703125 9.0625 
Q 20.90625 20.125 20.90625 31.390625 
Q 20.90625 42.671875 17.703125 53.65625 
Q 14.5 64.65625 8.015625 75.875 
z
" id="DejaVuSans-41"/>
      </defs>
      <g transform="translate(265.305479 19.121875)scale(0.1 -0.1)">
       <use xlink:href="#DejaVuSans-72"/>
       <use x="75.195312" xlink:href="#DejaVuSans-101"/>
       <use x="136.71875" xlink:href="#DejaVuSans-105"/>
       <use x="164.501953" xlink:href="#DejaVuSans-103"/>
       <use x="227.978516" xlink:href="#DejaVuSans-104"/>
       <use x="291.357422" xlink:href="#DejaVuSans-116"/>
       <use x="330.566406" xlink:href="#DejaVuSans-32"/>
       <use x="362.353516" xlink:href="#DejaVuSans-40"/>
       <use x="401.367188" xlink:href="#DejaVuSans-102"/>
       <use x="434.822266" xlink:href="#DejaVuSans-116"/>
       <use x="474.03125" xlink:href="#DejaVuSans-41"/>
      </g>
     </g>
    </g>
    <g id="matplotlib.axis_2"/>
    <g id="patch_4">
     <path d="M 24.8 39.8 
L 557.115645 39.8 
" style="fill:none;stroke:#000000;stroke-linecap:square;stroke-linejoin:miter;stroke-width:0.8;"/>
    </g>
   </g>
   <g id="PolyCollection_1">
    <path clip-path="url(#p8078523cee)" d="M 48.996166 236.818182 
L 48.996166 236.817222 
L 49.480596 236.817163 
L 49.965026 236.817101 
L 50.449371 236.817036 
L 50.933801 236.816966 
L 51.418231 236.816893 
L 51.902661 236.816815 
L 52.387091 236.816733 
L 52.871436 236.816647 
L 53.355866 236.816555 
L 53.84021 236.816458 
L 54.324641 236.816356 
L 54.809071 236.816247 
L 55.293415 236.816133 
L 55.777846 236.816012 
L 56.262276 236.815885 
L 56.746706 236.81575 
L 57.231136 236.815608 
L 57.715567 236.815458 
L 58.199911 236.815299 
L 58.684341 236.815132 
L 59.168686 236.814956 
L 59.653116 236.814769 
L 60.137546 236.814573 
L 60.621976 236.814366 
L 61.106406 236.814147 
L 61.590751 236.813917 
L 62.075181 236.813674 
L 62.559611 236.813418 
L 63.043956 236.813149 
L 63.528386 236.812865 
L 64.012816 236.812565 
L 64.497246 236.81225 
L 64.981677 236.811918 
L 65.466021 236.811568 
L 65.950451 236.811199 
L 66.434882 236.810812 
L 66.919226 236.810404 
L 67.403656 236.809974 
L 67.888086 236.809522 
L 68.372517 236.809047 
L 68.856861 236.808546 
L 69.341291 236.80802 
L 69.825721 236.807467 
L 70.310152 236.806885 
L 70.794582 236.806274 
L 71.278926 236.805631 
L 71.763357 236.804955 
L 72.247701 236.804246 
L 72.732131 236.8035 
L 73.216561 236.802716 
L 73.700992 236.801893 
L 74.185422 236.801029 
L 74.669766 236.800122 
L 75.154197 236.799169 
L 75.638627 236.79817 
L 76.122971 236.79712 
L 76.607401 236.796019 
L 77.091746 236.794864 
L 77.576176 236.793652 
L 78.060606 236.792381 
L 78.545036 236.791048 
L 79.029467 236.789651 
L 79.513811 236.788186 
L 79.998241 236.78665 
L 80.482672 236.785041 
L 80.967016 236.783354 
L 81.451446 236.781587 
L 81.935876 236.779736 
L 82.420307 236.777797 
L 82.904737 236.775767 
L 83.389081 236.773642 
L 83.873512 236.771416 
L 84.357942 236.769086 
L 84.842286 236.766649 
L 85.326716 236.764098 
L 85.811147 236.761429 
L 86.295577 236.758637 
L 86.779921 236.755718 
L 87.264351 236.752664 
L 87.748782 236.749471 
L 88.233212 236.746133 
L 88.717642 236.742644 
L 89.201987 236.738999 
L 89.686417 236.735189 
L 90.170761 236.731209 
L 90.655191 236.727051 
L 91.139622 236.722708 
L 91.624052 236.718173 
L 92.108482 236.713438 
L 92.592827 236.708495 
L 93.077257 236.703336 
L 93.561687 236.697951 
L 94.046031 236.692334 
L 94.530548 236.68647 
L 95.014892 236.680357 
L 95.499322 236.67398 
L 95.983752 236.667329 
L 96.468097 236.660397 
L 96.952527 236.653169 
L 97.436957 236.645634 
L 97.921387 236.637783 
L 98.405818 236.629602 
L 98.890162 236.62108 
L 99.374592 236.612202 
L 99.858937 236.602957 
L 100.343367 236.593329 
L 100.827797 236.583304 
L 101.312227 236.572868 
L 101.796658 236.562007 
L 102.281002 236.550706 
L 102.765432 236.538945 
L 103.249777 236.526712 
L 103.734207 236.513986 
L 104.218637 236.500748 
L 104.703067 236.486986 
L 105.187498 236.472677 
L 105.671842 236.457806 
L 106.156272 236.442346 
L 106.640702 236.426282 
L 107.125047 236.409593 
L 107.609477 236.392251 
L 108.093907 236.37424 
L 108.578338 236.355536 
L 109.062768 236.336114 
L 109.547112 236.315954 
L 110.031542 236.295024 
L 110.515973 236.273299 
L 111.000317 236.250762 
L 111.484747 236.227375 
L 111.969178 236.203115 
L 112.453608 236.177952 
L 112.937952 236.151863 
L 113.422382 236.124807 
L 113.906813 236.096754 
L 114.391243 236.06768 
L 114.875587 236.037555 
L 115.360017 236.006334 
L 115.844448 235.973987 
L 116.328878 235.940481 
L 116.813222 235.905781 
L 117.297653 235.869845 
L 117.781997 235.832645 
L 118.266427 235.794129 
L 118.750857 235.754266 
L 119.235288 235.713011 
L 119.719718 235.670326 
L 120.204062 235.626166 
L 120.688493 235.58049 
L 121.172837 235.533257 
L 121.657267 235.48441 
L 122.141697 235.433911 
L 122.626128 235.381708 
L 123.110558 235.327747 
L 123.594902 235.272003 
L 124.079332 235.2144 
L 124.563763 235.154895 
L 125.048107 235.093443 
L 125.532537 235.029975 
L 126.016968 234.964442 
L 126.501398 234.896777 
L 126.985828 234.826946 
L 127.470172 234.754888 
L 127.954603 234.680526 
L 128.439033 234.603808 
L 128.923463 234.524671 
L 129.407808 234.443068 
L 129.892238 234.358892 
L 130.376668 234.272123 
L 130.861098 234.182674 
L 131.345443 234.0905 
L 131.829873 233.995498 
L 132.314303 233.897615 
L 132.798733 233.796763 
L 133.283078 233.69292 
L 133.767508 233.585963 
L 134.251938 233.475835 
L 134.736368 233.362457 
L 135.220713 233.245776 
L 135.705143 233.125675 
L 136.189573 233.002075 
L 136.673918 232.874957 
L 137.158348 232.744177 
L 137.642778 232.609673 
L 138.127208 232.471366 
L 138.611639 232.329166 
L 139.095983 232.183018 
L 139.580413 232.032759 
L 140.064843 231.878381 
L 140.549188 231.71979 
L 141.033618 231.556847 
L 141.518048 231.389489 
L 142.002479 231.217629 
L 142.486909 231.041138 
L 142.971253 230.860019 
L 143.455683 230.674078 
L 143.940028 230.483298 
L 144.424458 230.287513 
L 144.908888 230.086656 
L 145.393319 229.880637 
L 145.877749 229.669318 
L 146.362093 229.452707 
L 146.846523 229.230601 
L 147.330954 229.002937 
L 147.815298 228.769655 
L 148.299728 228.530572 
L 148.784158 228.285636 
L 149.268589 228.034692 
L 149.752933 227.777779 
L 150.237363 227.51465 
L 150.721794 227.245264 
L 151.206138 226.969548 
L 151.690568 226.687326 
L 152.174998 226.398532 
L 152.659429 226.103013 
L 153.143859 225.800767 
L 153.628289 225.491632 
L 154.112634 225.175572 
L 154.597064 224.852382 
L 155.081494 224.522004 
L 155.565924 224.184286 
L 156.050269 223.839285 
L 156.534699 223.48674 
L 157.019129 223.12661 
L 157.503559 222.758789 
L 157.987904 222.383241 
L 158.472334 221.999747 
L 158.956764 221.608204 
L 159.441109 221.208711 
L 159.925539 220.800973 
L 160.409969 220.384973 
L 160.894399 219.960612 
L 161.37883 219.527793 
L 161.863174 219.086423 
L 162.347604 218.636421 
L 162.831949 218.177763 
L 163.316379 217.710224 
L 163.800809 217.233786 
L 164.285239 216.74839 
L 164.769669 216.253904 
L 165.254014 215.750298 
L 165.738444 215.23746 
L 166.222874 214.71533 
L 166.707219 214.183923 
L 167.191649 213.642979 
L 167.676079 213.092547 
L 168.160509 212.532446 
L 168.64494 211.962784 
L 169.129284 211.38351 
L 169.613714 210.794395 
L 170.098059 210.195559 
L 170.582489 209.586758 
L 171.066919 208.968049 
L 171.551349 208.339262 
L 172.03578 207.700551 
L 172.520124 207.051905 
L 173.004554 206.393059 
L 173.488984 205.724094 
L 173.973329 205.045089 
L 174.457759 204.355789 
L 174.942189 203.656154 
L 175.42662 202.946432 
L 175.91105 202.226437 
L 176.395394 201.496341 
L 176.879824 200.755822 
L 177.364169 200.005187 
L 177.848599 199.244139 
L 178.333029 198.472718 
L 178.81746 197.691168 
L 179.30189 196.899363 
L 179.786234 196.097455 
L 180.270664 195.285218 
L 180.755009 194.462945 
L 181.239439 193.630363 
L 181.723869 192.78755 
L 182.208299 191.934793 
L 182.69273 191.072016 
L 183.177074 190.199377 
L 183.661504 189.316656 
L 184.145935 188.424097 
L 184.630279 187.521844 
L 185.114709 186.609616 
L 185.599139 185.687826 
L 186.08357 184.756485 
L 186.568 183.815635 
L 187.052344 182.865524 
L 187.536775 181.905924 
L 188.021119 180.937146 
L 188.505549 179.959249 
L 188.989979 178.972321 
L 189.47441 177.976539 
L 189.95884 176.971977 
L 190.443184 175.958939 
L 190.927614 174.9372 
L 191.412045 173.906975 
L 191.896389 172.868772 
L 192.380819 171.822403 
L 192.86525 170.768041 
L 193.34968 169.705921 
L 193.83411 168.636181 
L 194.31854 167.558806 
L 194.802885 166.474505 
L 195.287229 165.383104 
L 195.771659 164.284595 
L 196.25609 163.179342 
L 196.74052 162.067584 
L 197.22495 160.949385 
L 197.70938 159.824964 
L 198.19381 158.694721 
L 198.678069 157.55911 
L 199.162499 156.417649 
L 199.646929 155.270834 
L 200.13136 154.118936 
L 200.61579 152.962088 
L 201.10022 151.800736 
L 201.58465 150.635009 
L 202.069081 149.465123 
L 202.553339 148.291737 
L 203.037769 147.1143 
L 203.5222 145.933471 
L 204.00663 144.749308 
L 204.49106 143.562383 
L 204.97549 142.372813 
L 205.459921 141.180893 
L 205.944265 139.987036 
L 206.428609 138.791419 
L 206.91304 137.593973 
L 207.39747 136.395072 
L 207.8819 135.195277 
L 208.36633 133.994803 
L 208.850761 132.793867 
L 209.335105 131.59295 
L 209.819449 130.392103 
L 210.30388 129.191461 
L 210.78831 127.991361 
L 211.27274 126.792362 
L 211.75717 125.594631 
L 212.241601 124.398454 
L 212.726031 123.204076 
L 213.210375 122.012028 
L 213.69472 120.822399 
L 214.17915 119.635139 
L 214.66358 118.451026 
L 215.14801 117.270197 
L 215.632441 116.092956 
L 216.116871 114.919589 
L 216.601215 113.750579 
L 217.085645 112.585628 
L 217.56999 111.425771 
L 218.05442 110.270722 
L 218.53885 109.121021 
L 219.02328 107.976866 
L 219.507711 106.838591 
L 219.992141 105.706284 
L 220.476485 104.580731 
L 220.960916 103.461697 
L 221.44526 102.349782 
L 221.92969 101.244946 
L 222.41412 100.147514 
L 222.898551 99.057888 
L 223.382981 97.976197 
L 223.867325 96.902962 
L 224.351756 95.838093 
L 224.8361 94.782173 
L 225.32053 93.735042 
L 225.80496 92.697173 
L 226.289391 91.668743 
L 226.773821 90.64986 
L 227.258165 89.641203 
L 227.742595 88.642515 
L 228.227026 87.654152 
L 228.71137 86.676485 
L 229.1958 85.709458 
L 229.680231 84.753304 
L 230.164661 83.808301 
L 230.649091 82.874693 
L 231.133521 81.952578 
L 231.617952 81.042125 
L 232.102296 80.143657 
L 232.58664 79.257165 
L 233.071071 78.382708 
L 233.555501 77.520521 
L 234.039931 76.670792 
L 234.524361 75.833677 
L 235.008791 75.009285 
L 235.493222 74.197695 
L 235.97748 73.399289 
L 236.46191 72.613646 
L 236.946341 71.841218 
L 237.430771 71.082033 
L 237.915201 70.33622 
L 238.399631 69.60376 
L 238.884062 68.88473 
L 239.368406 68.179406 
L 239.852836 67.487533 
L 240.337181 66.809503 
L 240.821611 66.145003 
L 241.306041 65.49417 
L 241.790471 64.857199 
L 242.274902 64.233935 
L 242.759246 63.624613 
L 243.243676 63.028938 
L 243.728021 62.447225 
L 244.212451 61.879159 
L 244.696881 61.324878 
L 245.181311 60.78448 
L 245.665742 60.25769 
L 246.150172 59.744645 
L 246.634516 59.245306 
L 247.118946 58.759457 
L 247.603291 58.287274 
L 248.087721 57.828523 
L 248.572151 57.383124 
L 249.056582 56.951195 
L 249.541012 56.53248 
L 250.025356 56.127019 
L 250.509786 55.734576 
L 250.994217 55.355151 
L 251.478561 54.988685 
L 251.962991 54.634981 
L 252.447421 54.294078 
L 252.931852 53.965584 
L 253.416196 53.649596 
L 253.900626 53.345879 
L 254.385057 53.054255 
L 254.869401 52.774824 
L 255.353831 52.507191 
L 255.838261 52.251435 
L 256.322692 52.007243 
L 256.807122 51.774435 
L 257.291552 51.552916 
L 257.775982 51.342605 
L 258.260327 51.143325 
L 258.744671 50.954822 
L 259.229101 50.776997 
L 259.713532 50.609692 
L 260.197962 50.452612 
L 260.682392 50.305601 
L 261.166822 50.168599 
L 261.651253 50.041449 
L 262.135597 49.923816 
L 262.619941 49.815603 
L 263.104372 49.716533 
L 263.588802 49.626588 
L 264.073232 49.545433 
L 264.557662 49.473009 
L 265.042093 49.409198 
L 265.526437 49.353607 
L 266.010867 49.306097 
L 266.495212 49.266572 
L 266.979642 49.234873 
L 267.464072 49.210705 
L 267.948502 49.193853 
L 268.432932 49.184414 
L 268.917363 49.181818 
L 269.401707 49.186164 
L 269.886137 49.197078 
L 270.370482 49.214559 
L 270.854912 49.238393 
L 271.339342 49.268401 
L 271.823772 49.304524 
L 272.308203 49.346331 
L 272.792547 49.393879 
L 273.276977 49.446914 
L 273.761322 49.505337 
L 274.245752 49.569089 
L 274.730182 49.637797 
L 275.214612 49.711637 
L 275.699043 49.79 
L 276.183387 49.873062 
L 276.667817 49.960569 
L 277.152247 50.052539 
L 277.636592 50.148797 
L 278.121022 50.249125 
L 278.605452 50.353759 
L 279.089883 50.462012 
L 279.574313 50.574178 
L 280.058657 50.690041 
L 280.543087 50.809502 
L 281.027432 50.932523 
L 281.511862 51.05928 
L 281.996292 51.189124 
L 282.480723 51.322213 
L 282.965153 51.458546 
L 283.449497 51.598026 
L 283.933927 51.740652 
L 284.418272 51.886208 
L 284.902702 52.034989 
L 285.387132 52.186563 
L 285.871562 52.341007 
L 286.355993 52.498362 
L 286.840337 52.658509 
L 287.324767 52.821566 
L 287.809198 52.987573 
L 288.293542 53.156196 
L 288.777972 53.327768 
L 289.262402 53.502014 
L 289.746833 53.679014 
L 290.231263 53.858826 
L 290.715607 54.041508 
L 291.200038 54.22718 
L 291.684382 54.415545 
L 292.168812 54.606841 
L 292.653242 54.801047 
L 293.137673 54.998222 
L 293.622103 55.198465 
L 294.106447 55.401697 
L 294.590877 55.608252 
L 295.075308 55.817835 
L 295.559652 56.030683 
L 296.044082 56.246933 
L 296.528513 56.466447 
L 297.012943 56.689382 
L 297.497287 56.915818 
L 297.981717 57.146049 
L 298.466148 57.379879 
L 298.950578 57.617445 
L 299.434922 57.858846 
L 299.919353 58.104277 
L 300.403783 58.353799 
L 300.888127 58.607411 
L 301.372557 58.865468 
L 301.856988 59.127771 
L 302.341418 59.394598 
L 302.825762 59.665928 
L 303.310192 59.942115 
L 303.794623 60.223001 
L 304.279053 60.508981 
L 304.763397 60.799838 
L 305.247828 61.095866 
L 305.732258 61.397204 
L 306.216602 61.70389 
L 306.701032 62.016122 
L 307.185463 62.334017 
L 307.669893 62.657831 
L 308.154323 62.987407 
L 308.638668 63.322922 
L 309.123098 63.66463 
L 309.607528 64.012533 
L 310.091872 64.366788 
L 310.576303 64.72765 
L 311.060733 65.095198 
L 311.545163 65.469333 
L 312.029593 65.850273 
L 312.513938 66.238173 
L 312.998368 66.633133 
L 313.482712 67.03529 
L 313.967143 67.444861 
L 314.451573 67.861727 
L 314.936003 68.286086 
L 315.420433 68.718133 
L 315.904864 69.157771 
L 316.389208 69.605195 
L 316.873638 70.060604 
L 317.358068 70.524094 
L 317.842499 70.995588 
L 318.326843 71.475164 
L 318.811273 71.963068 
L 319.295703 72.45929 
L 319.780134 72.963929 
L 320.264478 73.477043 
L 320.748908 73.99871 
L 321.233339 74.528971 
L 321.717683 75.067796 
L 322.202113 75.615451 
L 322.686543 76.171925 
L 323.170974 76.737169 
L 323.655318 77.311311 
L 324.139748 77.894332 
L 324.624179 78.48629 
L 325.108609 79.087245 
L 325.592953 79.697049 
L 326.077383 80.315987 
L 326.561814 80.944078 
L 327.046158 81.58098 
L 327.530588 82.226995 
L 328.015018 82.882145 
L 328.499449 83.546292 
L 328.983793 84.219386 
L 329.468223 84.901554 
L 329.952654 85.592789 
L 330.437084 86.29294 
L 330.921428 87.001922 
L 331.405858 87.719929 
L 331.890289 88.446776 
L 332.374633 89.182255 
L 332.859063 89.92673 
L 333.343494 90.679937 
L 333.827924 91.441747 
L 334.312268 92.211973 
L 334.796698 92.9909 
L 335.281129 93.778264 
L 335.765559 94.573956 
L 336.249903 95.377808 
L 336.734333 96.190018 
L 337.218764 97.01027 
L 337.703194 97.838497 
L 338.187624 98.674618 
L 338.672054 99.518488 
L 339.156399 100.369918 
L 339.640829 101.229067 
L 340.125259 102.095462 
L 340.609604 102.969153 
L 341.094034 103.850109 
L 341.578378 104.737997 
L 342.062809 105.632867 
L 342.547239 106.53453 
L 343.031669 107.4428 
L 343.516013 108.357334 
L 344.000444 109.278317 
L 344.484874 110.205446 
L 344.969304 111.138533 
L 345.453734 112.07745 
L 345.938165 113.022041 
L 346.422509 113.971931 
L 346.906939 114.927259 
L 347.391369 115.887591 
L 347.875714 116.852849 
L 348.360144 117.823003 
L 348.844488 118.797611 
L 349.328919 119.776723 
L 349.813349 120.760121 
L 350.297693 121.747305 
L 350.782124 122.73852 
L 351.266554 123.733334 
L 351.750984 124.731569 
L 352.235414 125.733078 
L 352.719845 126.737606 
L 353.204275 127.744956 
L 353.688619 128.754764 
L 354.173049 129.767197 
L 354.65748 130.781684 
L 355.141824 131.798198 
L 355.626254 132.816677 
L 356.110599 133.836632 
L 356.595029 134.85813 
L 357.079459 135.880857 
L 357.563803 136.904381 
L 358.048234 137.928859 
L 358.532664 138.953946 
L 359.017094 139.979445 
L 359.501524 141.005063 
L 359.985955 142.030652 
L 360.470299 143.055808 
L 360.954729 144.080806 
L 361.43916 145.105057 
L 361.92359 146.128365 
L 362.407934 147.150561 
L 362.892364 148.171764 
L 363.376709 149.191326 
L 363.861225 150.209569 
L 364.345569 151.22565 
L 364.829999 152.239892 
L 365.31443 153.251922 
L 365.798774 154.261366 
L 366.283204 155.268421 
L 366.767635 156.272717 
L 367.252065 157.273976 
L 367.736495 158.272187 
L 368.220925 159.267005 
L 368.705356 160.258353 
L 369.1897 161.245748 
L 369.67413 162.229589 
L 370.158475 163.209251 
L 370.642905 164.184916 
L 371.127249 165.156123 
L 371.611679 166.122939 
L 372.09611 167.08513 
L 372.58054 168.042517 
L 373.064884 168.994782 
L 373.549314 169.942091 
L 374.033745 170.884189 
L 374.518175 171.820884 
L 375.002605 172.752034 
L 375.487035 173.677521 
L 375.97138 174.597025 
L 376.45581 175.510654 
L 376.94024 176.418384 
L 377.424671 177.319939 
L 377.909015 178.215049 
L 378.393359 179.103743 
L 378.87779 179.986057 
L 379.36222 180.861792 
L 379.84665 181.730788 
L 380.330994 182.592803 
L 380.815425 183.448048 
L 381.299855 184.296268 
L 381.784285 185.13739 
L 382.268715 185.971294 
L 382.753146 186.797947 
L 383.23749 187.617094 
L 383.72192 188.428826 
L 384.20635 189.233185 
L 384.690781 190.029988 
L 385.175125 190.819003 
L 385.659469 191.600364 
L 386.1439 192.374086 
L 386.62833 193.140006 
L 387.11276 193.89805 
L 387.597105 194.648066 
L 388.081535 195.390309 
L 388.565965 196.124513 
L 389.050395 196.850718 
L 389.534825 197.568865 
L 390.019256 198.278925 
L 390.5036 198.980759 
L 390.98803 199.674471 
L 391.472461 200.360105 
L 391.956891 201.037604 
L 392.441235 201.706802 
L 392.925665 202.367885 
L 393.41001 203.020678 
L 393.89444 203.665371 
L 394.378784 204.301737 
L 394.863215 204.930008 
L 395.347645 205.550077 
L 395.832075 206.161947 
L 396.316505 206.765613 
L 396.800936 207.361114 
L 397.285366 207.948451 
L 397.76971 208.527559 
L 398.25414 209.098525 
L 398.738571 209.661503 
L 399.222915 210.216293 
L 399.707345 210.763153 
L 400.191776 211.301988 
L 400.676206 211.832834 
L 401.16055 212.355645 
L 401.644895 212.870543 
L 402.129325 213.377657 
L 402.613755 213.87692 
L 403.098185 214.368405 
L 403.582616 214.85215 
L 404.067046 215.328184 
L 404.55139 215.79649 
L 405.03582 216.257277 
L 405.520251 216.710427 
L 406.004681 217.156179 
L 406.489025 217.594396 
L 406.973455 218.025302 
L 407.457886 218.448896 
L 407.942316 218.865211 
L 408.426746 219.274316 
L 408.911005 219.676167 
L 409.395435 220.071041 
L 409.879865 220.458919 
L 410.364295 220.839838 
L 410.848726 221.213877 
L 411.333156 221.581091 
L 411.8175 221.941501 
L 412.302016 222.295345 
L 412.786447 222.642532 
L 413.270791 222.983054 
L 413.755221 223.317232 
L 414.239651 223.645021 
L 414.724082 223.966482 
L 415.208426 224.281647 
L 415.69277 224.590634 
L 416.177201 224.893581 
L 416.661631 225.190502 
L 417.145975 225.48143 
L 417.630406 225.76654 
L 418.114836 226.045844 
L 418.599266 226.319433 
L 419.083696 226.58738 
L 419.568127 226.849753 
L 420.052471 227.10656 
L 420.536901 227.358037 
L 421.021331 227.604179 
L 421.505762 227.845065 
L 421.990106 228.080727 
L 422.474536 228.311328 
L 422.958881 228.536857 
L 423.443311 228.757476 
L 423.927741 228.973221 
L 424.412085 229.184134 
L 424.896516 229.390357 
L 425.380946 229.591933 
L 425.865376 229.788931 
L 426.349806 229.981438 
L 426.834237 230.169527 
L 427.318581 230.353201 
L 427.803011 230.532665 
L 428.287442 230.707931 
L 428.771872 230.879067 
L 429.256216 231.046121 
L 429.740646 231.209218 
L 430.225077 231.368406 
L 430.709507 231.523754 
L 431.193851 231.675303 
L 431.678196 231.823156 
L 432.162626 231.967402 
L 432.647056 232.108087 
L 433.131486 232.245273 
L 433.615917 232.379034 
L 434.100347 232.509434 
L 434.584691 232.636498 
L 435.069121 232.760373 
L 435.553552 232.881083 
L 436.037982 232.998693 
L 436.522326 233.113243 
L 437.006757 233.224835 
L 437.491187 233.333512 
L 437.975617 233.439337 
L 438.459961 233.542349 
L 438.944306 233.642629 
L 439.428736 233.740249 
L 439.913166 233.83525 
L 440.397596 233.927688 
L 440.882027 234.017621 
L 441.366371 234.105087 
L 441.850801 234.190161 
L 442.335232 234.272906 
L 442.819662 234.35336 
L 443.304092 234.431578 
L 443.788436 234.507598 
L 444.272867 234.581494 
L 444.757297 234.653304 
L 445.241727 234.723077 
L 445.726157 234.790862 
L 446.210502 234.856694 
L 446.694846 234.920632 
L 447.179276 234.98273 
L 447.663707 235.043023 
L 448.148137 235.101558 
L 448.632481 235.158363 
L 449.116911 235.213497 
L 449.601342 235.267005 
L 450.085772 235.318921 
L 450.570116 235.369277 
L 451.054547 235.41813 
L 451.538977 235.465509 
L 452.023407 235.511452 
L 452.507837 235.555998 
L 452.992268 235.599179 
L 453.476612 235.641028 
L 453.960956 235.681586 
L 454.445387 235.720893 
L 454.929817 235.758977 
L 455.414247 235.795871 
L 455.898591 235.831601 
L 456.383022 235.866202 
L 456.867452 235.899714 
L 457.351882 235.932161 
L 457.836226 235.963564 
L 458.320657 235.993966 
L 458.805087 236.023388 
L 459.289517 236.051859 
L 459.773947 236.079403 
L 460.258378 236.106049 
L 460.742722 236.131818 
L 461.227152 236.156743 
L 461.711497 236.180842 
L 462.195927 236.204144 
L 462.680357 236.226671 
L 463.164787 236.248444 
L 463.649218 236.269486 
L 464.133562 236.289812 
L 464.617992 236.309457 
L 465.102423 236.328434 
L 465.586853 236.346763 
L 466.071197 236.364462 
L 466.555627 236.381556 
L 467.040058 236.398059 
L 467.524488 236.41399 
L 468.008918 236.429367 
L 468.493177 236.444202 
L 468.977607 236.458522 
L 469.462037 236.472338 
L 469.946467 236.485666 
L 470.430898 236.498521 
L 470.915328 236.510919 
L 471.399672 236.52287 
L 471.884102 236.534396 
L 472.368533 236.545507 
L 472.852963 236.556217 
L 473.337307 236.566537 
L 473.821738 236.576483 
L 474.306168 236.586065 
L 474.790598 236.595297 
L 475.275028 236.604188 
L 475.759458 236.612751 
L 476.243717 236.620994 
L 476.728147 236.628934 
L 477.212577 236.636577 
L 477.697008 236.643933 
L 478.181352 236.651011 
L 478.665782 236.657824 
L 479.150213 236.664379 
L 479.634643 236.670685 
L 480.119073 236.676751 
L 480.603417 236.682583 
L 481.087848 236.688193 
L 481.572278 236.693586 
L 482.056708 236.698772 
L 482.541138 236.703756 
L 483.025483 236.708545 
L 483.509913 236.713148 
L 483.994257 236.71757 
L 484.478688 236.721819 
L 484.963118 236.7259 
L 485.447462 236.729819 
L 485.931892 236.733583 
L 486.416323 236.737197 
L 486.900753 236.740667 
L 487.385183 236.743997 
L 487.869528 236.747193 
L 488.353958 236.750261 
L 488.838388 236.753204 
L 489.322818 236.756028 
L 489.807249 236.758737 
L 490.291593 236.761334 
L 490.776023 236.763826 
L 491.260453 236.766215 
L 491.744798 236.768505 
L 492.229228 236.7707 
L 492.713572 236.772804 
L 493.198003 236.77482 
L 493.682433 236.776753 
L 494.166863 236.778604 
L 494.651293 236.780377 
L 495.135638 236.782075 
L 495.620068 236.783702 
L 496.104498 236.78526 
L 496.588928 236.786751 
L 497.073359 236.788179 
L 497.557703 236.789545 
L 498.042133 236.790852 
L 498.526564 236.792104 
L 499.010994 236.793301 
L 499.495338 236.794446 
L 499.979683 236.795541 
L 500.464113 236.796589 
L 500.948543 236.797591 
L 501.432973 236.798549 
L 501.917318 236.799464 
L 502.401748 236.80034 
L 502.886178 236.801176 
L 503.370608 236.801976 
L 503.855039 236.80274 
L 504.339469 236.803469 
L 504.823813 236.804166 
L 505.308243 236.804832 
L 505.792674 236.805468 
L 506.277104 236.806075 
L 506.761448 236.806654 
L 507.245793 236.807207 
L 507.730223 236.807735 
L 508.214653 236.808239 
L 508.699083 236.80872 
L 509.183514 236.809179 
L 509.667944 236.809616 
L 510.152374 236.810033 
L 510.636718 236.810431 
L 511.121149 236.810811 
L 511.605579 236.811173 
L 512.090009 236.811518 
L 512.574439 236.811846 
L 513.058784 236.81216 
L 513.543128 236.812458 
L 514.027558 236.812743 
L 514.511989 236.813014 
L 514.996419 236.813272 
L 515.480763 236.813517 
L 515.965194 236.813751 
L 516.449624 236.813974 
L 516.934054 236.814187 
L 517.418398 236.814388 
L 517.902829 236.814581 
L 518.387259 236.814764 
L 518.871689 236.814938 
L 519.356119 236.815103 
L 519.840464 236.815261 
L 520.324894 236.81541 
L 520.809324 236.815553 
L 521.293754 236.815688 
L 521.778099 236.815817 
L 522.262443 236.81594 
L 522.746873 236.816056 
L 523.231304 236.816166 
L 523.715734 236.816271 
L 524.200164 236.816371 
L 524.684509 236.816466 
L 525.168939 236.816556 
L 525.653369 236.816642 
L 526.137799 236.816723 
L 526.622229 236.8168 
L 527.106574 236.816873 
L 527.591004 236.816943 
L 528.075434 236.817009 
L 528.559865 236.817071 
L 529.044209 236.817131 
L 529.528553 236.817187 
L 530.012984 236.81724 
L 530.497414 236.817291 
L 530.981844 236.817339 
L 531.466274 236.817385 
L 531.950619 236.817428 
L 532.435049 236.817469 
L 532.919479 236.817508 
L 532.919479 236.818182 
L 532.919479 236.818182 
L 532.435049 236.818182 
L 531.950619 236.818182 
L 531.466274 236.818182 
L 530.981844 236.818182 
L 530.497414 236.818182 
L 530.012984 236.818182 
L 529.528553 236.818182 
L 529.044209 236.818182 
L 528.559865 236.818182 
L 528.075434 236.818182 
L 527.591004 236.818182 
L 527.106574 236.818182 
L 526.622229 236.818182 
L 526.137799 236.818182 
L 525.653369 236.818182 
L 525.168939 236.818182 
L 524.684509 236.818182 
L 524.200164 236.818182 
L 523.715734 236.818182 
L 523.231304 236.818182 
L 522.746873 236.818182 
L 522.262443 236.818182 
L 521.778099 236.818182 
L 521.293754 236.818182 
L 520.809324 236.818182 
L 520.324894 236.818182 
L 519.840464 236.818182 
L 519.356119 236.818182 
L 518.871689 236.818182 
L 518.387259 236.818182 
L 517.902829 236.818182 
L 517.418398 236.818182 
L 516.934054 236.818182 
L 516.449624 236.818182 
L 515.965194 236.818182 
L 515.480763 236.818182 
L 514.996419 236.818182 
L 514.511989 236.818182 
L 514.027558 236.818182 
L 513.543128 236.818182 
L 513.058784 236.818182 
L 512.574439 236.818182 
L 512.090009 236.818182 
L 511.605579 236.818182 
L 511.121149 236.818182 
L 510.636718 236.818182 
L 510.152374 236.818182 
L 509.667944 236.818182 
L 509.183514 236.818182 
L 508.699083 236.818182 
L 508.214653 236.818182 
L 507.730223 236.818182 
L 507.245793 236.818182 
L 506.761448 236.818182 
L 506.277104 236.818182 
L 505.792674 236.818182 
L 505.308243 236.818182 
L 504.823813 236.818182 
L 504.339469 236.818182 
L 503.855039 236.818182 
L 503.370608 236.818182 
L 502.886178 236.818182 
L 502.401748 236.818182 
L 501.917318 236.818182 
L 501.432973 236.818182 
L 500.948543 236.818182 
L 500.464113 236.818182 
L 499.979683 236.818182 
L 499.495338 236.818182 
L 499.010994 236.818182 
L 498.526564 236.818182 
L 498.042133 236.818182 
L 497.557703 236.818182 
L 497.073359 236.818182 
L 496.588928 236.818182 
L 496.104498 236.818182 
L 495.620068 236.818182 
L 495.135638 236.818182 
L 494.651293 236.818182 
L 494.166863 236.818182 
L 493.682433 236.818182 
L 493.198003 236.818182 
L 492.713572 236.818182 
L 492.229228 236.818182 
L 491.744798 236.818182 
L 491.260453 236.818182 
L 490.776023 236.818182 
L 490.291593 236.818182 
L 489.807249 236.818182 
L 489.322818 236.818182 
L 488.838388 236.818182 
L 488.353958 236.818182 
L 487.869528 236.818182 
L 487.385183 236.818182 
L 486.900753 236.818182 
L 486.416323 236.818182 
L 485.931892 236.818182 
L 485.447462 236.818182 
L 484.963118 236.818182 
L 484.478688 236.818182 
L 483.994257 236.818182 
L 483.509913 236.818182 
L 483.025483 236.818182 
L 482.541138 236.818182 
L 482.056708 236.818182 
L 481.572278 236.818182 
L 481.087848 236.818182 
L 480.603417 236.818182 
L 480.119073 236.818182 
L 479.634643 236.818182 
L 479.150213 236.818182 
L 478.665782 236.818182 
L 478.181352 236.818182 
L 477.697008 236.818182 
L 477.212577 236.818182 
L 476.728147 236.818182 
L 476.243717 236.818182 
L 475.759458 236.818182 
L 475.275028 236.818182 
L 474.790598 236.818182 
L 474.306168 236.818182 
L 473.821738 236.818182 
L 473.337307 236.818182 
L 472.852963 236.818182 
L 472.368533 236.818182 
L 471.884102 236.818182 
L 471.399672 236.818182 
L 470.915328 236.818182 
L 470.430898 236.818182 
L 469.946467 236.818182 
L 469.462037 236.818182 
L 468.977607 236.818182 
L 468.493177 236.818182 
L 468.008918 236.818182 
L 467.524488 236.818182 
L 467.040058 236.818182 
L 466.555627 236.818182 
L 466.071197 236.818182 
L 465.586853 236.818182 
L 465.102423 236.818182 
L 464.617992 236.818182 
L 464.133562 236.818182 
L 463.649218 236.818182 
L 463.164787 236.818182 
L 462.680357 236.818182 
L 462.195927 236.818182 
L 461.711497 236.818182 
L 461.227152 236.818182 
L 460.742722 236.818182 
L 460.258378 236.818182 
L 459.773947 236.818182 
L 459.289517 236.818182 
L 458.805087 236.818182 
L 458.320657 236.818182 
L 457.836226 236.818182 
L 457.351882 236.818182 
L 456.867452 236.818182 
L 456.383022 236.818182 
L 455.898591 236.818182 
L 455.414247 236.818182 
L 454.929817 236.818182 
L 454.445387 236.818182 
L 453.960956 236.818182 
L 453.476612 236.818182 
L 452.992268 236.818182 
L 452.507837 236.818182 
L 452.023407 236.818182 
L 451.538977 236.818182 
L 451.054547 236.818182 
L 450.570116 236.818182 
L 450.085772 236.818182 
L 449.601342 236.818182 
L 449.116911 236.818182 
L 448.632481 236.818182 
L 448.148137 236.818182 
L 447.663707 236.818182 
L 447.179276 236.818182 
L 446.694846 236.818182 
L 446.210502 236.818182 
L 445.726157 236.818182 
L 445.241727 236.818182 
L 444.757297 236.818182 
L 444.272867 236.818182 
L 443.788436 236.818182 
L 443.304092 236.818182 
L 442.819662 236.818182 
L 442.335232 236.818182 
L 441.850801 236.818182 
L 441.366371 236.818182 
L 440.882027 236.818182 
L 440.397596 236.818182 
L 439.913166 236.818182 
L 439.428736 236.818182 
L 438.944306 236.818182 
L 438.459961 236.818182 
L 437.975617 236.818182 
L 437.491187 236.818182 
L 437.006757 236.818182 
L 436.522326 236.818182 
L 436.037982 236.818182 
L 435.553552 236.818182 
L 435.069121 236.818182 
L 434.584691 236.818182 
L 434.100347 236.818182 
L 433.615917 236.818182 
L 433.131486 236.818182 
L 432.647056 236.818182 
L 432.162626 236.818182 
L 431.678196 236.818182 
L 431.193851 236.818182 
L 430.709507 236.818182 
L 430.225077 236.818182 
L 429.740646 236.818182 
L 429.256216 236.818182 
L 428.771872 236.818182 
L 428.287442 236.818182 
L 427.803011 236.818182 
L 427.318581 236.818182 
L 426.834237 236.818182 
L 426.349806 236.818182 
L 425.865376 236.818182 
L 425.380946 236.818182 
L 424.896516 236.818182 
L 424.412085 236.818182 
L 423.927741 236.818182 
L 423.443311 236.818182 
L 422.958881 236.818182 
L 422.474536 236.818182 
L 421.990106 236.818182 
L 421.505762 236.818182 
L 421.021331 236.818182 
L 420.536901 236.818182 
L 420.052471 236.818182 
L 419.568127 236.818182 
L 419.083696 236.818182 
L 418.599266 236.818182 
L 418.114836 236.818182 
L 417.630406 236.818182 
L 417.145975 236.818182 
L 416.661631 236.818182 
L 416.177201 236.818182 
L 415.69277 236.818182 
L 415.208426 236.818182 
L 414.724082 236.818182 
L 414.239651 236.818182 
L 413.755221 236.818182 
L 413.270791 236.818182 
L 412.786447 236.818182 
L 412.302016 236.818182 
L 411.8175 236.818182 
L 411.333156 236.818182 
L 410.848726 236.818182 
L 410.364295 236.818182 
L 409.879865 236.818182 
L 409.395435 236.818182 
L 408.911005 236.818182 
L 408.426746 236.818182 
L 407.942316 236.818182 
L 407.457886 236.818182 
L 406.973455 236.818182 
L 406.489025 236.818182 
L 406.004681 236.818182 
L 405.520251 236.818182 
L 405.03582 236.818182 
L 404.55139 236.818182 
L 404.067046 236.818182 
L 403.582616 236.818182 
L 403.098185 236.818182 
L 402.613755 236.818182 
L 402.129325 236.818182 
L 401.644895 236.818182 
L 401.16055 236.818182 
L 400.676206 236.818182 
L 400.191776 236.818182 
L 399.707345 236.818182 
L 399.222915 236.818182 
L 398.738571 236.818182 
L 398.25414 236.818182 
L 397.76971 236.818182 
L 397.285366 236.818182 
L 396.800936 236.818182 
L 396.316505 236.818182 
L 395.832075 236.818182 
L 395.347645 236.818182 
L 394.863215 236.818182 
L 394.378784 236.818182 
L 393.89444 236.818182 
L 393.41001 236.818182 
L 392.925665 236.818182 
L 392.441235 236.818182 
L 391.956891 236.818182 
L 391.472461 236.818182 
L 390.98803 236.818182 
L 390.5036 236.818182 
L 390.019256 236.818182 
L 389.534825 236.818182 
L 389.050395 236.818182 
L 388.565965 236.818182 
L 388.081535 236.818182 
L 387.597105 236.818182 
L 387.11276 236.818182 
L 386.62833 236.818182 
L 386.1439 236.818182 
L 385.659469 236.818182 
L 385.175125 236.818182 
L 384.690781 236.818182 
L 384.20635 236.818182 
L 383.72192 236.818182 
L 383.23749 236.818182 
L 382.753146 236.818182 
L 382.268715 236.818182 
L 381.784285 236.818182 
L 381.299855 236.818182 
L 380.815425 236.818182 
L 380.330994 236.818182 
L 379.84665 236.818182 
L 379.36222 236.818182 
L 378.87779 236.818182 
L 378.393359 236.818182 
L 377.909015 236.818182 
L 377.424671 236.818182 
L 376.94024 236.818182 
L 376.45581 236.818182 
L 375.97138 236.818182 
L 375.487035 236.818182 
L 375.002605 236.818182 
L 374.518175 236.818182 
L 374.033745 236.818182 
L 373.549314 236.818182 
L 373.064884 236.818182 
L 372.58054 236.818182 
L 372.09611 236.818182 
L 371.611679 236.818182 
L 371.127249 236.818182 
L 370.642905 236.818182 
L 370.158475 236.818182 
L 369.67413 236.818182 
L 369.1897 236.818182 
L 368.705356 236.818182 
L 368.220925 236.818182 
L 367.736495 236.818182 
L 367.252065 236.818182 
L 366.767635 236.818182 
L 366.283204 236.818182 
L 365.798774 236.818182 
L 365.31443 236.818182 
L 364.829999 236.818182 
L 364.345569 236.818182 
L 363.861225 236.818182 
L 363.376709 236.818182 
L 362.892364 236.818182 
L 362.407934 236.818182 
L 361.92359 236.818182 
L 361.43916 236.818182 
L 360.954729 236.818182 
L 360.470299 236.818182 
L 359.985955 236.818182 
L 359.501524 236.818182 
L 359.017094 236.818182 
L 358.532664 236.818182 
L 358.048234 236.818182 
L 357.563803 236.818182 
L 357.079459 236.818182 
L 356.595029 236.818182 
L 356.110599 236.818182 
L 355.626254 236.818182 
L 355.141824 236.818182 
L 354.65748 236.818182 
L 354.173049 236.818182 
L 353.688619 236.818182 
L 353.204275 236.818182 
L 352.719845 236.818182 
L 352.235414 236.818182 
L 351.750984 236.818182 
L 351.266554 236.818182 
L 350.782124 236.818182 
L 350.297693 236.818182 
L 349.813349 236.818182 
L 349.328919 236.818182 
L 348.844488 236.818182 
L 348.360144 236.818182 
L 347.875714 236.818182 
L 347.391369 236.818182 
L 346.906939 236.818182 
L 346.422509 236.818182 
L 345.938165 236.818182 
L 345.453734 236.818182 
L 344.969304 236.818182 
L 344.484874 236.818182 
L 344.000444 236.818182 
L 343.516013 236.818182 
L 343.031669 236.818182 
L 342.547239 236.818182 
L 342.062809 236.818182 
L 341.578378 236.818182 
L 341.094034 236.818182 
L 340.609604 236.818182 
L 340.125259 236.818182 
L 339.640829 236.818182 
L 339.156399 236.818182 
L 338.672054 236.818182 
L 338.187624 236.818182 
L 337.703194 236.818182 
L 337.218764 236.818182 
L 336.734333 236.818182 
L 336.249903 236.818182 
L 335.765559 236.818182 
L 335.281129 236.818182 
L 334.796698 236.818182 
L 334.312268 236.818182 
L 333.827924 236.818182 
L 333.343494 236.818182 
L 332.859063 236.818182 
L 332.374633 236.818182 
L 331.890289 236.818182 
L 331.405858 236.818182 
L 330.921428 236.818182 
L 330.437084 236.818182 
L 329.952654 236.818182 
L 329.468223 236.818182 
L 328.983793 236.818182 
L 328.499449 236.818182 
L 328.015018 236.818182 
L 327.530588 236.818182 
L 327.046158 236.818182 
L 326.561814 236.818182 
L 326.077383 236.818182 
L 325.592953 236.818182 
L 325.108609 236.818182 
L 324.624179 236.818182 
L 324.139748 236.818182 
L 323.655318 236.818182 
L 323.170974 236.818182 
L 322.686543 236.818182 
L 322.202113 236.818182 
L 321.717683 236.818182 
L 321.233339 236.818182 
L 320.748908 236.818182 
L 320.264478 236.818182 
L 319.780134 236.818182 
L 319.295703 236.818182 
L 318.811273 236.818182 
L 318.326843 236.818182 
L 317.842499 236.818182 
L 317.358068 236.818182 
L 316.873638 236.818182 
L 316.389208 236.818182 
L 315.904864 236.818182 
L 315.420433 236.818182 
L 314.936003 236.818182 
L 314.451573 236.818182 
L 313.967143 236.818182 
L 313.482712 236.818182 
L 312.998368 236.818182 
L 312.513938 236.818182 
L 312.029593 236.818182 
L 311.545163 236.818182 
L 311.060733 236.818182 
L 310.576303 236.818182 
L 310.091872 236.818182 
L 309.607528 236.818182 
L 309.123098 236.818182 
L 308.638668 236.818182 
L 308.154323 236.818182 
L 307.669893 236.818182 
L 307.185463 236.818182 
L 306.701032 236.818182 
L 306.216602 236.818182 
L 305.732258 236.818182 
L 305.247828 236.818182 
L 304.763397 236.818182 
L 304.279053 236.818182 
L 303.794623 236.818182 
L 303.310192 236.818182 
L 302.825762 236.818182 
L 302.341418 236.818182 
L 301.856988 236.818182 
L 301.372557 236.818182 
L 300.888127 236.818182 
L 300.403783 236.818182 
L 299.919353 236.818182 
L 299.434922 236.818182 
L 298.950578 236.818182 
L 298.466148 236.818182 
L 297.981717 236.818182 
L 297.497287 236.818182 
L 297.012943 236.818182 
L 296.528513 236.818182 
L 296.044082 236.818182 
L 295.559652 236.818182 
L 295.075308 236.818182 
L 294.590877 236.818182 
L 294.106447 236.818182 
L 293.622103 236.818182 
L 293.137673 236.818182 
L 292.653242 236.818182 
L 292.168812 236.818182 
L 291.684382 236.818182 
L 291.200038 236.818182 
L 290.715607 236.818182 
L 290.231263 236.818182 
L 289.746833 236.818182 
L 289.262402 236.818182 
L 288.777972 236.818182 
L 288.293542 236.818182 
L 287.809198 236.818182 
L 287.324767 236.818182 
L 286.840337 236.818182 
L 286.355993 236.818182 
L 285.871562 236.818182 
L 285.387132 236.818182 
L 284.902702 236.818182 
L 284.418272 236.818182 
L 283.933927 236.818182 
L 283.449497 236.818182 
L 282.965153 236.818182 
L 282.480723 236.818182 
L 281.996292 236.818182 
L 281.511862 236.818182 
L 281.027432 236.818182 
L 280.543087 236.818182 
L 280.058657 236.818182 
L 279.574313 236.818182 
L 279.089883 236.818182 
L 278.605452 236.818182 
L 278.121022 236.818182 
L 277.636592 236.818182 
L 277.152247 236.818182 
L 276.667817 236.818182 
L 276.183387 236.818182 
L 275.699043 236.818182 
L 275.214612 236.818182 
L 274.730182 236.818182 
L 274.245752 236.818182 
L 273.761322 236.818182 
L 273.276977 236.818182 
L 272.792547 236.818182 
L 272.308203 236.818182 
L 271.823772 236.818182 
L 271.339342 236.818182 
L 270.854912 236.818182 
L 270.370482 236.818182 
L 269.886137 236.818182 
L 269.401707 236.818182 
L 268.917363 236.818182 
L 268.432932 236.818182 
L 267.948502 236.818182 
L 267.464072 236.818182 
L 266.979642 236.818182 
L 266.495212 236.818182 
L 266.010867 236.818182 
L 265.526437 236.818182 
L 265.042093 236.818182 
L 264.557662 236.818182 
L 264.073232 236.818182 
L 263.588802 236.818182 
L 263.104372 236.818182 
L 262.619941 236.818182 
L 262.135597 236.818182 
L 261.651253 236.818182 
L 261.166822 236.818182 
L 260.682392 236.818182 
L 260.197962 236.818182 
L 259.713532 236.818182 
L 259.229101 236.818182 
L 258.744671 236.818182 
L 258.260327 236.818182 
L 257.775982 236.818182 
L 257.291552 236.818182 
L 256.807122 236.818182 
L 256.322692 236.818182 
L 255.838261 236.818182 
L 255.353831 236.818182 
L 254.869401 236.818182 
L 254.385057 236.818182 
L 253.900626 236.818182 
L 253.416196 236.818182 
L 252.931852 236.818182 
L 252.447421 236.818182 
L 251.962991 236.818182 
L 251.478561 236.818182 
L 250.994217 236.818182 
L 250.509786 236.818182 
L 250.025356 236.818182 
L 249.541012 236.818182 
L 249.056582 236.818182 
L 248.572151 236.818182 
L 248.087721 236.818182 
L 247.603291 236.818182 
L 247.118946 236.818182 
L 246.634516 236.818182 
L 246.150172 236.818182 
L 245.665742 236.818182 
L 245.181311 236.818182 
L 244.696881 236.818182 
L 244.212451 236.818182 
L 243.728021 236.818182 
L 243.243676 236.818182 
L 242.759246 236.818182 
L 242.274902 236.818182 
L 241.790471 236.818182 
L 241.306041 236.818182 
L 240.821611 236.818182 
L 240.337181 236.818182 
L 239.852836 236.818182 
L 239.368406 236.818182 
L 238.884062 236.818182 
L 238.399631 236.818182 
L 237.915201 236.818182 
L 237.430771 236.818182 
L 236.946341 236.818182 
L 236.46191 236.818182 
L 235.97748 236.818182 
L 235.493222 236.818182 
L 235.008791 236.818182 
L 234.524361 236.818182 
L 234.039931 236.818182 
L 233.555501 236.818182 
L 233.071071 236.818182 
L 232.58664 236.818182 
L 232.102296 236.818182 
L 231.617952 236.818182 
L 231.133521 236.818182 
L 230.649091 236.818182 
L 230.164661 236.818182 
L 229.680231 236.818182 
L 229.1958 236.818182 
L 228.71137 236.818182 
L 228.227026 236.818182 
L 227.742595 236.818182 
L 227.258165 236.818182 
L 226.773821 236.818182 
L 226.289391 236.818182 
L 225.80496 236.818182 
L 225.32053 236.818182 
L 224.8361 236.818182 
L 224.351756 236.818182 
L 223.867325 236.818182 
L 223.382981 236.818182 
L 222.898551 236.818182 
L 222.41412 236.818182 
L 221.92969 236.818182 
L 221.44526 236.818182 
L 220.960916 236.818182 
L 220.476485 236.818182 
L 219.992141 236.818182 
L 219.507711 236.818182 
L 219.02328 236.818182 
L 218.53885 236.818182 
L 218.05442 236.818182 
L 217.56999 236.818182 
L 217.085645 236.818182 
L 216.601215 236.818182 
L 216.116871 236.818182 
L 215.632441 236.818182 
L 215.14801 236.818182 
L 214.66358 236.818182 
L 214.17915 236.818182 
L 213.69472 236.818182 
L 213.210375 236.818182 
L 212.726031 236.818182 
L 212.241601 236.818182 
L 211.75717 236.818182 
L 211.27274 236.818182 
L 210.78831 236.818182 
L 210.30388 236.818182 
L 209.819449 236.818182 
L 209.335105 236.818182 
L 208.850761 236.818182 
L 208.36633 236.818182 
L 207.8819 236.818182 
L 207.39747 236.818182 
L 206.91304 236.818182 
L 206.428609 236.818182 
L 205.944265 236.818182 
L 205.459921 236.818182 
L 204.97549 236.818182 
L 204.49106 236.818182 
L 204.00663 236.818182 
L 203.5222 236.818182 
L 203.037769 236.818182 
L 202.553339 236.818182 
L 202.069081 236.818182 
L 201.58465 236.818182 
L 201.10022 236.818182 
L 200.61579 236.818182 
L 200.13136 236.818182 
L 199.646929 236.818182 
L 199.162499 236.818182 
L 198.678069 236.818182 
L 198.19381 236.818182 
L 197.70938 236.818182 
L 197.22495 236.818182 
L 196.74052 236.818182 
L 196.25609 236.818182 
L 195.771659 236.818182 
L 195.287229 236.818182 
L 194.802885 236.818182 
L 194.31854 236.818182 
L 193.83411 236.818182 
L 193.34968 236.818182 
L 192.86525 236.818182 
L 192.380819 236.818182 
L 191.896389 236.818182 
L 191.412045 236.818182 
L 190.927614 236.818182 
L 190.443184 236.818182 
L 189.95884 236.818182 
L 189.47441 236.818182 
L 188.989979 236.818182 
L 188.505549 236.818182 
L 188.021119 236.818182 
L 187.536775 236.818182 
L 187.052344 236.818182 
L 186.568 236.818182 
L 186.08357 236.818182 
L 185.599139 236.818182 
L 185.114709 236.818182 
L 184.630279 236.818182 
L 184.145935 236.818182 
L 183.661504 236.818182 
L 183.177074 236.818182 
L 182.69273 236.818182 
L 182.208299 236.818182 
L 181.723869 236.818182 
L 181.239439 236.818182 
L 180.755009 236.818182 
L 180.270664 236.818182 
L 179.786234 236.818182 
L 179.30189 236.818182 
L 178.81746 236.818182 
L 178.333029 236.818182 
L 177.848599 236.818182 
L 177.364169 236.818182 
L 176.879824 236.818182 
L 176.395394 236.818182 
L 175.91105 236.818182 
L 175.42662 236.818182 
L 174.942189 236.818182 
L 174.457759 236.818182 
L 173.973329 236.818182 
L 173.488984 236.818182 
L 173.004554 236.818182 
L 172.520124 236.818182 
L 172.03578 236.818182 
L 171.551349 236.818182 
L 171.066919 236.818182 
L 170.582489 236.818182 
L 170.098059 236.818182 
L 169.613714 236.818182 
L 169.129284 236.818182 
L 168.64494 236.818182 
L 168.160509 236.818182 
L 167.676079 236.818182 
L 167.191649 236.818182 
L 166.707219 236.818182 
L 166.222874 236.818182 
L 165.738444 236.818182 
L 165.254014 236.818182 
L 164.769669 236.818182 
L 164.285239 236.818182 
L 163.800809 236.818182 
L 163.316379 236.818182 
L 162.831949 236.818182 
L 162.347604 236.818182 
L 161.863174 236.818182 
L 161.37883 236.818182 
L 160.894399 236.818182 
L 160.409969 236.818182 
L 159.925539 236.818182 
L 159.441109 236.818182 
L 158.956764 236.818182 
L 158.472334 236.818182 
L 157.987904 236.818182 
L 157.503559 236.818182 
L 157.019129 236.818182 
L 156.534699 236.818182 
L 156.050269 236.818182 
L 155.565924 236.818182 
L 155.081494 236.818182 
L 154.597064 236.818182 
L 154.112634 236.818182 
L 153.628289 236.818182 
L 153.143859 236.818182 
L 152.659429 236.818182 
L 152.174998 236.818182 
L 151.690568 236.818182 
L 151.206138 236.818182 
L 150.721794 236.818182 
L 150.237363 236.818182 
L 149.752933 236.818182 
L 149.268589 236.818182 
L 148.784158 236.818182 
L 148.299728 236.818182 
L 147.815298 236.818182 
L 147.330954 236.818182 
L 146.846523 236.818182 
L 146.362093 236.818182 
L 145.877749 236.818182 
L 145.393319 236.818182 
L 144.908888 236.818182 
L 144.424458 236.818182 
L 143.940028 236.818182 
L 143.455683 236.818182 
L 142.971253 236.818182 
L 142.486909 236.818182 
L 142.002479 236.818182 
L 141.518048 236.818182 
L 141.033618 236.818182 
L 140.549188 236.818182 
L 140.064843 236.818182 
L 139.580413 236.818182 
L 139.095983 236.818182 
L 138.611639 236.818182 
L 138.127208 236.818182 
L 137.642778 236.818182 
L 137.158348 236.818182 
L 136.673918 236.818182 
L 136.189573 236.818182 
L 135.705143 236.818182 
L 135.220713 236.818182 
L 134.736368 236.818182 
L 134.251938 236.818182 
L 133.767508 236.818182 
L 133.283078 236.818182 
L 132.798733 236.818182 
L 132.314303 236.818182 
L 131.829873 236.818182 
L 131.345443 236.818182 
L 130.861098 236.818182 
L 130.376668 236.818182 
L 129.892238 236.818182 
L 129.407808 236.818182 
L 128.923463 236.818182 
L 128.439033 236.818182 
L 127.954603 236.818182 
L 127.470172 236.818182 
L 126.985828 236.818182 
L 126.501398 236.818182 
L 126.016968 236.818182 
L 125.532537 236.818182 
L 125.048107 236.818182 
L 124.563763 236.818182 
L 124.079332 236.818182 
L 123.594902 236.818182 
L 123.110558 236.818182 
L 122.626128 236.818182 
L 122.141697 236.818182 
L 121.657267 236.818182 
L 121.172837 236.818182 
L 120.688493 236.818182 
L 120.204062 236.818182 
L 119.719718 236.818182 
L 119.235288 236.818182 
L 118.750857 236.818182 
L 118.266427 236.818182 
L 117.781997 236.818182 
L 117.297653 236.818182 
L 116.813222 236.818182 
L 116.328878 236.818182 
L 115.844448 236.818182 
L 115.360017 236.818182 
L 114.875587 236.818182 
L 114.391243 236.818182 
L 113.906813 236.818182 
L 113.422382 236.818182 
L 112.937952 236.818182 
L 112.453608 236.818182 
L 111.969178 236.818182 
L 111.484747 236.818182 
L 111.000317 236.818182 
L 110.515973 236.818182 
L 110.031542 236.818182 
L 109.547112 236.818182 
L 109.062768 236.818182 
L 108.578338 236.818182 
L 108.093907 236.818182 
L 107.609477 236.818182 
L 107.125047 236.818182 
L 106.640702 236.818182 
L 106.156272 236.818182 
L 105.671842 236.818182 
L 105.187498 236.818182 
L 104.703067 236.818182 
L 104.218637 236.818182 
L 103.734207 236.818182 
L 103.249777 236.818182 
L 102.765432 236.818182 
L 102.281002 236.818182 
L 101.796658 236.818182 
L 101.312227 236.818182 
L 100.827797 236.818182 
L 100.343367 236.818182 
L 99.858937 236.818182 
L 99.374592 236.818182 
L 98.890162 236.818182 
L 98.405818 236.818182 
L 97.921387 236.818182 
L 97.436957 236.818182 
L 96.952527 236.818182 
L 96.468097 236.818182 
L 95.983752 236.818182 
L 95.499322 236.818182 
L 95.014892 236.818182 
L 94.530548 236.818182 
L 94.046031 236.818182 
L 93.561687 236.818182 
L 93.077257 236.818182 
L 92.592827 236.818182 
L 92.108482 236.818182 
L 91.624052 236.818182 
L 91.139622 236.818182 
L 90.655191 236.818182 
L 90.170761 236.818182 
L 89.686417 236.818182 
L 89.201987 236.818182 
L 88.717642 236.818182 
L 88.233212 236.818182 
L 87.748782 236.818182 
L 87.264351 236.818182 
L 86.779921 236.818182 
L 86.295577 236.818182 
L 85.811147 236.818182 
L 85.326716 236.818182 
L 84.842286 236.818182 
L 84.357942 236.818182 
L 83.873512 236.818182 
L 83.389081 236.818182 
L 82.904737 236.818182 
L 82.420307 236.818182 
L 81.935876 236.818182 
L 81.451446 236.818182 
L 80.967016 236.818182 
L 80.482672 236.818182 
L 79.998241 236.818182 
L 79.513811 236.818182 
L 79.029467 236.818182 
L 78.545036 236.818182 
L 78.060606 236.818182 
L 77.576176 236.818182 
L 77.091746 236.818182 
L 76.607401 236.818182 
L 76.122971 236.818182 
L 75.638627 236.818182 
L 75.154197 236.818182 
L 74.669766 236.818182 
L 74.185422 236.818182 
L 73.700992 236.818182 
L 73.216561 236.818182 
L 72.732131 236.818182 
L 72.247701 236.818182 
L 71.763357 236.818182 
L 71.278926 236.818182 
L 70.794582 236.818182 
L 70.310152 236.818182 
L 69.825721 236.818182 
L 69.341291 236.818182 
L 68.856861 236.818182 
L 68.372517 236.818182 
L 67.888086 236.818182 
L 67.403656 236.818182 
L 66.919226 236.818182 
L 66.434882 236.818182 
L 65.950451 236.818182 
L 65.466021 236.818182 
L 64.981677 236.818182 
L 64.497246 236.818182 
L 64.012816 236.818182 
L 63.528386 236.818182 
L 63.043956 236.818182 
L 62.559611 236.818182 
L 62.075181 236.818182 
L 61.590751 236.818182 
L 61.106406 236.818182 
L 60.621976 236.818182 
L 60.137546 236.818182 
L 59.653116 236.818182 
L 59.168686 236.818182 
L 58.684341 236.818182 
L 58.199911 236.818182 
L 57.715567 236.818182 
L 57.231136 236.818182 
L 56.746706 236.818182 
L 56.262276 236.818182 
L 55.777846 236.818182 
L 55.293415 236.818182 
L 54.809071 236.818182 
L 54.324641 236.818182 
L 53.84021 236.818182 
L 53.355866 236.818182 
L 52.871436 236.818182 
L 52.387091 236.818182 
L 51.902661 236.818182 
L 51.418231 236.818182 
L 50.933801 236.818182 
L 50.449371 236.818182 
L 49.965026 236.818182 
L 49.480596 236.818182 
L 48.996166 236.818182 
z
" style="fill:#1f77b4;fill-opacity:0.3;"/>
   </g>
   <g id="matplotlib.axis_3">
    <g id="xtick_7">
     <g id="line2d_7">
      <defs>
       <path d="M 0 0 
L 0 3.5 
" id="ma2becdddf0" style="stroke:#000000;stroke-width:0.8;"/>
      </defs>
      <g>
       <use style="stroke:#000000;stroke-width:0.8;" x="105.266318" xlink:href="#ma2becdddf0" y="246.2"/>
      </g>
     </g>
     <g id="text_8">
      <!-- 140 -->
      <defs>
       <path d="M 12.40625 8.296875 
L 28.515625 8.296875 
L 28.515625 63.921875 
L 10.984375 60.40625 
L 10.984375 69.390625 
L 28.421875 72.90625 
L 38.28125 72.90625 
L 38.28125 8.296875 
L 54.390625 8.296875 
L 54.390625 0 
L 12.40625 0 
z
" id="DejaVuSans-49"/>
      </defs>
      <g transform="translate(95.722568 260.798437)scale(0.1 -0.1)">
       <use xlink:href="#DejaVuSans-49"/>
       <use x="63.623047" xlink:href="#DejaVuSans-52"/>
       <use x="127.246094" xlink:href="#DejaVuSans-48"/>
      </g>
     </g>
    </g>
    <g id="xtick_8">
     <g id="line2d_8">
      <g>
       <use style="stroke:#000000;stroke-width:0.8;" x="217.806624" xlink:href="#ma2becdddf0" y="246.2"/>
      </g>
     </g>
     <g id="text_9">
      <!-- 160 -->
      <g transform="translate(208.262874 260.798437)scale(0.1 -0.1)">
       <use xlink:href="#DejaVuSans-49"/>
       <use x="63.623047" xlink:href="#DejaVuSans-54"/>
       <use x="127.246094" xlink:href="#DejaVuSans-48"/>
      </g>
     </g>
    </g>
    <g id="xtick_9">
     <g id="line2d_9">
      <g>
       <use style="stroke:#000000;stroke-width:0.8;" x="330.346929" xlink:href="#ma2becdddf0" y="246.2"/>
      </g>
     </g>
     <g id="text_10">
      <!-- 180 -->
      <defs>
       <path d="M 31.78125 34.625 
Q 24.75 34.625 20.71875 30.859375 
Q 16.703125 27.09375 16.703125 20.515625 
Q 16.703125 13.921875 20.71875 10.15625 
Q 24.75 6.390625 31.78125 6.390625 
Q 38.8125 6.390625 42.859375 10.171875 
Q 46.921875 13.96875 46.921875 20.515625 
Q 46.921875 27.09375 42.890625 30.859375 
Q 38.875 34.625 31.78125 34.625 
z
M 21.921875 38.8125 
Q 15.578125 40.375 12.03125 44.71875 
Q 8.5 49.078125 8.5 55.328125 
Q 8.5 64.0625 14.71875 69.140625 
Q 20.953125 74.21875 31.78125 74.21875 
Q 42.671875 74.21875 48.875 69.140625 
Q 55.078125 64.0625 55.078125 55.328125 
Q 55.078125 49.078125 51.53125 44.71875 
Q 48 40.375 41.703125 38.8125 
Q 48.828125 37.15625 52.796875 32.3125 
Q 56.78125 27.484375 56.78125 20.515625 
Q 56.78125 9.90625 50.3125 4.234375 
Q 43.84375 -1.421875 31.78125 -1.421875 
Q 19.734375 -1.421875 13.25 4.234375 
Q 6.78125 9.90625 6.78125 20.515625 
Q 6.78125 27.484375 10.78125 32.3125 
Q 14.796875 37.15625 21.921875 38.8125 
z
M 18.3125 54.390625 
Q 18.3125 48.734375 21.84375 45.5625 
Q 25.390625 42.390625 31.78125 42.390625 
Q 38.140625 42.390625 41.71875 45.5625 
Q 45.3125 48.734375 45.3125 54.390625 
Q 45.3125 60.0625 41.71875 63.234375 
Q 38.140625 66.40625 31.78125 66.40625 
Q 25.390625 66.40625 21.84375 63.234375 
Q 18.3125 60.0625 18.3125 54.390625 
z
" id="DejaVuSans-56"/>
      </defs>
      <g transform="translate(320.803179 260.798437)scale(0.1 -0.1)">
       <use xlink:href="#DejaVuSans-49"/>
       <use x="63.623047" xlink:href="#DejaVuSans-56"/>
       <use x="127.246094" xlink:href="#DejaVuSans-48"/>
      </g>
     </g>
    </g>
    <g id="xtick_10">
     <g id="line2d_10">
      <g>
       <use style="stroke:#000000;stroke-width:0.8;" x="442.887235" xlink:href="#ma2becdddf0" y="246.2"/>
      </g>
     </g>
     <g id="text_11">
      <!-- 200 -->
      <defs>
       <path d="M 19.1875 8.296875 
L 53.609375 8.296875 
L 53.609375 0 
L 7.328125 0 
L 7.328125 8.296875 
Q 12.9375 14.109375 22.625 23.890625 
Q 32.328125 33.6875 34.8125 36.53125 
Q 39.546875 41.84375 41.421875 45.53125 
Q 43.3125 49.21875 43.3125 52.78125 
Q 43.3125 58.59375 39.234375 62.25 
Q 35.15625 65.921875 28.609375 65.921875 
Q 23.96875 65.921875 18.8125 64.3125 
Q 13.671875 62.703125 7.8125 59.421875 
L 7.8125 69.390625 
Q 13.765625 71.78125 18.9375 73 
Q 24.125 74.21875 28.421875 74.21875 
Q 39.75 74.21875 46.484375 68.546875 
Q 53.21875 62.890625 53.21875 53.421875 
Q 53.21875 48.921875 51.53125 44.890625 
Q 49.859375 40.875 45.40625 35.40625 
Q 44.1875 33.984375 37.640625 27.21875 
Q 31.109375 20.453125 19.1875 8.296875 
z
" id="DejaVuSans-50"/>
      </defs>
      <g transform="translate(433.343485 260.798437)scale(0.1 -0.1)">
       <use xlink:href="#DejaVuSans-50"/>
       <use x="63.623047" xlink:href="#DejaVuSans-48"/>
       <use x="127.246094" xlink:href="#DejaVuSans-48"/>
      </g>
     </g>
    </g>
    <g id="xtick_11">
     <g id="line2d_11">
      <g>
       <use style="stroke:#000000;stroke-width:0.8;" x="555.42754" xlink:href="#ma2becdddf0" y="246.2"/>
      </g>
     </g>
     <g id="text_12">
      <!-- 220 -->
      <g transform="translate(545.88379 260.798437)scale(0.1 -0.1)">
       <use xlink:href="#DejaVuSans-50"/>
       <use x="63.623047" xlink:href="#DejaVuSans-50"/>
       <use x="127.246094" xlink:href="#DejaVuSans-48"/>
      </g>
     </g>
    </g>
    <g id="text_13">
     <!-- Height (cm) -->
     <defs>
      <path d="M 48.78125 52.59375 
L 48.78125 44.1875 
Q 44.96875 46.296875 41.140625 47.34375 
Q 37.3125 48.390625 33.40625 48.390625 
Q 24.65625 48.390625 19.8125 42.84375 
Q 14.984375 37.3125 14.984375 27.296875 
Q 14.984375 17.28125 19.8125 11.734375 
Q 24.65625 6.203125 33.40625 6.203125 
Q 37.3125 6.203125 41.140625 7.25 
Q 44.96875 8.296875 48.78125 10.40625 
L 48.78125 2.09375 
Q 45.015625 0.34375 40.984375 -0.53125 
Q 36.96875 -1.421875 32.421875 -1.421875 
Q 20.0625 -1.421875 12.78125 6.34375 
Q 5.515625 14.109375 5.515625 27.296875 
Q 5.515625 40.671875 12.859375 48.328125 
Q 20.21875 56 33.015625 56 
Q 37.15625 56 41.109375 55.140625 
Q 45.0625 54.296875 48.78125 52.59375 
z
" id="DejaVuSans-99"/>
      <path d="M 52 44.1875 
Q 55.375 50.25 60.0625 53.125 
Q 64.75 56 71.09375 56 
Q 79.640625 56 84.28125 50.015625 
Q 88.921875 44.046875 88.921875 33.015625 
L 88.921875 0 
L 79.890625 0 
L 79.890625 32.71875 
Q 79.890625 40.578125 77.09375 44.375 
Q 74.3125 48.1875 68.609375 48.1875 
Q 61.625 48.1875 57.5625 43.546875 
Q 53.515625 38.921875 53.515625 30.90625 
L 53.515625 0 
L 44.484375 0 
L 44.484375 32.71875 
Q 44.484375 40.625 41.703125 44.40625 
Q 38.921875 48.1875 33.109375 48.1875 
Q 26.21875 48.1875 22.15625 43.53125 
Q 18.109375 38.875 18.109375 30.90625 
L 18.109375 0 
L 9.078125 0 
L 9.078125 54.6875 
L 18.109375 54.6875 
L 18.109375 46.1875 
Q 21.1875 51.21875 25.484375 53.609375 
Q 29.78125 56 35.6875 56 
Q 41.65625 56 45.828125 52.96875 
Q 50 49.953125 52 44.1875 
z
" id="DejaVuSans-109"/>
     </defs>
     <g transform="translate(261.31876 274.476562)scale(0.1 -0.1)">
      <use xlink:href="#DejaVuSans-72"/>
      <use x="75.195312" xlink:href="#DejaVuSans-101"/>
      <use x="136.71875" xlink:href="#DejaVuSans-105"/>
      <use x="164.501953" xlink:href="#DejaVuSans-103"/>
      <use x="227.978516" xlink:href="#DejaVuSans-104"/>
      <use x="291.357422" xlink:href="#DejaVuSans-116"/>
      <use x="330.566406" xlink:href="#DejaVuSans-32"/>
      <use x="362.353516" xlink:href="#DejaVuSans-40"/>
      <use x="401.367188" xlink:href="#DejaVuSans-99"/>
      <use x="456.347656" xlink:href="#DejaVuSans-109"/>
      <use x="553.759766" xlink:href="#DejaVuSans-41"/>
     </g>
    </g>
   </g>
   <g id="matplotlib.axis_4">
    <g id="text_14">
     <!-- Density -->
     <defs>
      <path d="M 19.671875 64.796875 
L 19.671875 8.109375 
L 31.59375 8.109375 
Q 46.6875 8.109375 53.6875 14.9375 
Q 60.6875 21.78125 60.6875 36.53125 
Q 60.6875 51.171875 53.6875 57.984375 
Q 46.6875 64.796875 31.59375 64.796875 
z
M 9.8125 72.90625 
L 30.078125 72.90625 
Q 51.265625 72.90625 61.171875 64.09375 
Q 71.09375 55.28125 71.09375 36.53125 
Q 71.09375 17.671875 61.125 8.828125 
Q 51.171875 0 30.078125 0 
L 9.8125 0 
z
" id="DejaVuSans-68"/>
      <path d="M 54.890625 33.015625 
L 54.890625 0 
L 45.90625 0 
L 45.90625 32.71875 
Q 45.90625 40.484375 42.875 44.328125 
Q 39.84375 48.1875 33.796875 48.1875 
Q 26.515625 48.1875 22.3125 43.546875 
Q 18.109375 38.921875 18.109375 30.90625 
L 18.109375 0 
L 9.078125 0 
L 9.078125 54.6875 
L 18.109375 54.6875 
L 18.109375 46.1875 
Q 21.34375 51.125 25.703125 53.5625 
Q 30.078125 56 35.796875 56 
Q 45.21875 56 50.046875 50.171875 
Q 54.890625 44.34375 54.890625 33.015625 
z
" id="DejaVuSans-110"/>
      <path d="M 44.28125 53.078125 
L 44.28125 44.578125 
Q 40.484375 46.53125 36.375 47.5 
Q 32.28125 48.484375 27.875 48.484375 
Q 21.1875 48.484375 17.84375 46.4375 
Q 14.5 44.390625 14.5 40.28125 
Q 14.5 37.15625 16.890625 35.375 
Q 19.28125 33.59375 26.515625 31.984375 
L 29.59375 31.296875 
Q 39.15625 29.25 43.1875 25.515625 
Q 47.21875 21.78125 47.21875 15.09375 
Q 47.21875 7.46875 41.1875 3.015625 
Q 35.15625 -1.421875 24.609375 -1.421875 
Q 20.21875 -1.421875 15.453125 -0.5625 
Q 10.6875 0.296875 5.421875 2 
L 5.421875 11.28125 
Q 10.40625 8.6875 15.234375 7.390625 
Q 20.0625 6.109375 24.8125 6.109375 
Q 31.15625 6.109375 34.5625 8.28125 
Q 37.984375 10.453125 37.984375 14.40625 
Q 37.984375 18.0625 35.515625 20.015625 
Q 33.0625 21.96875 24.703125 23.78125 
L 21.578125 24.515625 
Q 13.234375 26.265625 9.515625 29.90625 
Q 5.8125 33.546875 5.8125 39.890625 
Q 5.8125 47.609375 11.28125 51.796875 
Q 16.75 56 26.8125 56 
Q 31.78125 56 36.171875 55.265625 
Q 40.578125 54.546875 44.28125 53.078125 
z
" id="DejaVuSans-115"/>
      <path d="M 32.171875 -5.078125 
Q 28.375 -14.84375 24.75 -17.8125 
Q 21.140625 -20.796875 15.09375 -20.796875 
L 7.90625 -20.796875 
L 7.90625 -13.28125 
L 13.1875 -13.28125 
Q 16.890625 -13.28125 18.9375 -11.515625 
Q 21 -9.765625 23.484375 -3.21875 
L 25.09375 0.875 
L 2.984375 54.6875 
L 12.5 54.6875 
L 29.59375 11.921875 
L 46.6875 54.6875 
L 56.203125 54.6875 
z
" id="DejaVuSans-121"/>
     </defs>
     <g transform="translate(18.720313 162.008594)rotate(-90)scale(0.1 -0.1)">
      <use xlink:href="#DejaVuSans-68"/>
      <use x="77.001953" xlink:href="#DejaVuSans-101"/>
      <use x="138.525391" xlink:href="#DejaVuSans-110"/>
      <use x="201.904297" xlink:href="#DejaVuSans-115"/>
      <use x="254.003906" xlink:href="#DejaVuSans-105"/>
      <use x="281.787109" xlink:href="#DejaVuSans-116"/>
      <use x="320.996094" xlink:href="#DejaVuSans-121"/>
     </g>
    </g>
   </g>
   <g id="line2d_12">
    <path clip-path="url(#p8078523cee)" d="M 48.996166 236.817222 
L 93.077257 236.703336 
L 105.671842 236.457806 
L 113.906813 236.096754 
L 120.688493 235.58049 
L 126.016968 234.964442 
L 130.861098 234.182674 
L 135.220713 233.245776 
L 139.095983 232.183018 
L 142.486909 231.041138 
L 145.877749 229.669318 
L 149.268589 228.034692 
L 152.174998 226.398532 
L 155.081494 224.522004 
L 157.987904 222.383241 
L 160.894399 219.960612 
L 163.800809 217.233786 
L 166.707219 214.183923 
L 169.613714 210.794395 
L 172.520124 207.051905 
L 175.42662 202.946432 
L 178.333029 198.472718 
L 181.239439 193.630363 
L 184.630279 187.521844 
L 188.021119 180.937146 
L 191.896389 172.868772 
L 195.771659 164.284595 
L 200.61579 152.962088 
L 206.91304 137.593973 
L 218.05442 110.270722 
L 222.898551 99.057888 
L 226.773821 90.64986 
L 230.164661 83.808301 
L 233.071071 78.382708 
L 235.97748 73.399289 
L 238.884062 68.88473 
L 241.306041 65.49417 
L 243.728021 62.447225 
L 246.150172 59.744645 
L 248.572151 57.383124 
L 250.994217 55.355151 
L 253.416196 53.649596 
L 255.838261 52.251435 
L 258.260327 51.143325 
L 260.682392 50.305601 
L 263.104372 49.716533 
L 265.526437 49.353607 
L 267.948502 49.193853 
L 270.854912 49.238393 
L 273.761322 49.505337 
L 277.152247 50.052539 
L 281.027432 50.932523 
L 285.387132 52.186563 
L 289.746833 53.679014 
L 294.106447 55.401697 
L 298.466148 57.379879 
L 302.341418 59.394598 
L 305.732258 61.397204 
L 309.123098 63.66463 
L 312.029593 65.850273 
L 314.936003 68.286086 
L 317.842499 70.995588 
L 320.748908 73.99871 
L 323.655318 77.311311 
L 326.561814 80.944078 
L 329.468223 84.901554 
L 332.859063 89.92673 
L 336.249903 95.377808 
L 339.640829 101.229067 
L 343.516013 108.357334 
L 347.875714 116.852849 
L 353.204275 127.744956 
L 364.829999 152.239892 
L 371.127249 165.156123 
L 375.97138 174.597025 
L 380.330994 182.592803 
L 384.20635 189.233185 
L 387.597105 194.648066 
L 390.98803 199.674471 
L 394.378784 204.301737 
L 397.76971 208.527559 
L 401.16055 212.355645 
L 404.067046 215.328184 
L 406.973455 218.025302 
L 409.879865 220.458919 
L 412.786447 222.642532 
L 416.177201 224.893581 
L 419.568127 226.849753 
L 422.958881 228.536857 
L 426.349806 229.981438 
L 430.225077 231.368406 
L 434.100347 232.509434 
L 438.459961 233.542349 
L 442.819662 234.35336 
L 448.148137 235.101558 
L 453.960956 235.681586 
L 460.742722 236.131818 
L 469.462037 236.472338 
L 481.087848 236.688193 
L 500.464113 236.796589 
L 532.919479 236.817508 
L 532.919479 236.817508 
" style="fill:none;stroke:#1f77b4;stroke-linecap:square;stroke-width:3;"/>
   </g>
   <g id="patch_5">
    <path d="M 24.8 246.2 
L 24.8 39.8 
" style="fill:none;stroke:#000000;stroke-linecap:square;stroke-linejoin:miter;stroke-width:0.8;"/>
   </g>
   <g id="patch_6">
    <path d="M 557.115645 246.2 
L 557.115645 39.8 
" style="fill:none;stroke:#000000;stroke-linecap:square;stroke-linejoin:miter;stroke-width:0.8;"/>
   </g>
   <g id="patch_7">
    <path d="M 24.8 246.2 
L 557.115645 246.2 
" style="fill:none;stroke:#000000;stroke-linecap:square;stroke-linejoin:miter;stroke-width:0.8;"/>
   </g>
   <g id="patch_8">
    <path d="M 24.8 39.8 
L 557.115645 39.8 
" style="fill:none;stroke:#000000;stroke-linecap:square;stroke-linejoin:miter;stroke-width:0.8;"/>
   </g>
  </g>
 </g>
 <defs>
  <clipPath id="p8078523cee">
   <rect height="206.4" width="532.315645" x="24.8" y="39.8"/>
  </clipPath>
 </defs>
</svg>
