<?xml version="1.0" encoding="utf-8" standalone="no"?>
<!DOCTYPE svg PUBLIC "-//W3C//DTD SVG 1.1//EN"
  "http://www.w3.org/Graphics/SVG/1.1/DTD/svg11.dtd">
<!-- Created with matplotlib (https://matplotlib.org/) -->
<svg height="633.6pt" version="1.1" viewBox="0 0 921.6 633.6" width="921.6pt" xmlns="http://www.w3.org/2000/svg" xmlns:xlink="http://www.w3.org/1999/xlink">
 <defs>
  <style type="text/css">
*{stroke-linecap:butt;stroke-linejoin:round;}
  </style>
 </defs>
 <g id="figure_1">
  <g id="patch_1">
   <path d="M 0 633.6 
L 921.6 633.6 
L 921.6 0 
L 0 0 
z
" style="fill:none;"/>
  </g>
  <g id="axes_1">
   <g id="matplotlib.axis_1"/>
   <g id="matplotlib.axis_2"/>
   <g id="patch_2">
    <path d="M 669.448347 397.339149 
C 679.693422 366.48882 682.465784 333.641709 677.536465 301.510631 
C 672.607146 269.379553 660.115692 238.874107 641.093759 212.513711 
C 622.071827 186.153315 597.057909 164.684207 568.117884 149.879502 
C 539.177858 135.074796 507.13099 127.3536 474.624 127.3536 
L 474.624 332.64 
L 669.448347 397.339149 
z
" style="fill:#4682b4;"/>
   </g>
   <g id="patch_3">
    <path d="M 504.032722 535.808977 
C 541.734757 530.351605 577.183835 514.50592 606.394978 490.0532 
C 635.606121 465.60048 657.442136 433.492673 669.448347 397.339149 
L 474.624 332.64 
L 504.032722 535.808977 
z
" style="fill:#d3d3d3;"/>
   </g>
   <g id="patch_4">
    <path d="M 351.820262 497.144553 
C 373.412146 513.263038 397.967709 524.973913 424.08301 531.607621 
C 450.198311 538.24133 477.365976 539.66899 504.032722 535.808977 
L 474.624 332.64 
L 351.820262 497.144553 
z
" style="fill:#f5f5f5;"/>
   </g>
   <g id="patch_5">
    <path d="M 279.799677 397.339222 
C 286.378261 417.14886 295.939883 435.839766 308.154266 452.766324 
C 320.36865 469.692882 335.093522 484.657931 351.820262 497.144553 
L 474.624 332.64 
L 279.799677 397.339222 
z
" style="fill:#4682b4;"/>
   </g>
   <g id="patch_6">
    <path d="M 272.540562 296.51812 
C 269.541537 313.296132 268.643647 330.382517 269.867642 347.382449 
C 271.091636 364.382381 274.428013 381.163899 279.799677 397.339222 
L 474.624 332.64 
L 272.540562 296.51812 
z
" style="fill:#d3d3d3;"/>
   </g>
   <g id="patch_7">
    <path d="M 304.906686 217.147405 
C 296.802451 229.056646 289.974203 241.785902 284.53487 255.124655 
C 279.095538 268.463407 275.075272 282.337714 272.540562 296.51812 
L 474.624 332.64 
L 304.906686 217.147405 
z
" style="fill:#f5f5f5;"/>
   </g>
   <g id="patch_8">
    <path d="M 357.206631 164.248589 
C 346.973315 171.38416 337.411723 179.437734 328.640601 188.309292 
C 319.869479 197.18085 311.925287 206.833513 304.906686 217.147405 
L 474.624 332.64 
L 357.206631 164.248589 
z
" style="fill:#4682b4;"/>
   </g>
   <g id="patch_9">
    <path d="M 416.413279 135.779598 
C 405.862428 138.899436 395.579446 142.86245 385.663743 147.630328 
C 375.748039 152.398206 366.231669 157.955535 357.206631 164.248589 
L 474.624 332.64 
L 416.413279 135.779598 
z
" style="fill:#d3d3d3;"/>
   </g>
   <g id="patch_10">
    <path d="M 474.623986 127.3536 
C 464.783013 127.353601 454.954765 128.061233 445.215297 129.47102 
C 435.475829 130.880808 425.850328 132.989106 416.413279 135.779598 
L 474.624 332.64 
L 474.623986 127.3536 
z
" style="fill:#f5f5f5;"/>
   </g>
   <g id="text_1">
    <!-- 1 -->
    <defs>
     <path d="M 13.1875 8.296875 
L 28.515625 8.296875 
L 28.515625 64.015625 
L 12.015625 60.296875 
L 12.015625 69.28125 
L 28.421875 72.90625 
L 38.28125 72.90625 
L 38.28125 8.296875 
L 53.421875 8.296875 
L 53.421875 0 
L 13.1875 0 
z
" id="DejaVuSansMono-49"/>
    </defs>
    <g style="fill:#262626;" transform="translate(657.740735 206.072957)scale(0.2 -0.2)">
     <use xlink:href="#DejaVuSansMono-49"/>
    </g>
   </g>
   <g id="text_2">
    <!-- 30% -->
    <defs>
     <path d="M 37.890625 39.015625 
Q 45.0625 37.109375 48.875 32.25 
Q 52.6875 27.390625 52.6875 20.125 
Q 52.6875 10.0625 45.921875 4.3125 
Q 39.15625 -1.421875 27.203125 -1.421875 
Q 22.171875 -1.421875 16.9375 -0.484375 
Q 11.71875 0.4375 6.6875 2.203125 
L 6.6875 12.015625 
Q 11.671875 9.421875 16.5 8.15625 
Q 21.34375 6.890625 26.125 6.890625 
Q 34.234375 6.890625 38.578125 10.546875 
Q 42.921875 14.203125 42.921875 21.09375 
Q 42.921875 27.4375 38.578125 31.171875 
Q 34.234375 34.90625 26.8125 34.90625 
L 19.28125 34.90625 
L 19.28125 43.015625 
L 26.8125 43.015625 
Q 33.59375 43.015625 37.40625 45.984375 
Q 41.21875 48.96875 41.21875 54.296875 
Q 41.21875 59.90625 37.671875 62.90625 
Q 34.125 65.921875 27.59375 65.921875 
Q 23.25 65.921875 18.609375 64.9375 
Q 13.96875 63.96875 8.890625 62.015625 
L 8.890625 71.09375 
Q 14.796875 72.65625 19.40625 73.4375 
Q 24.03125 74.21875 27.59375 74.21875 
Q 38.234375 74.21875 44.609375 68.875 
Q 50.984375 63.53125 50.984375 54.6875 
Q 50.984375 48.6875 47.625 44.671875 
Q 44.28125 40.671875 37.890625 39.015625 
z
" id="DejaVuSansMono-51"/>
     <path d="M 23.578125 36.625 
Q 23.578125 39.3125 25.453125 41.265625 
Q 27.34375 43.21875 29.984375 43.21875 
Q 32.71875 43.21875 34.671875 41.265625 
Q 36.625 39.3125 36.625 36.625 
Q 36.625 33.890625 34.6875 31.984375 
Q 32.765625 30.078125 29.984375 30.078125 
Q 27.25 30.078125 25.40625 31.9375 
Q 23.578125 33.796875 23.578125 36.625 
z
M 30.078125 66.40625 
Q 23.1875 66.40625 19.796875 58.984375 
Q 16.40625 51.5625 16.40625 36.375 
Q 16.40625 21.234375 19.796875 13.8125 
Q 23.1875 6.390625 30.078125 6.390625 
Q 37.015625 6.390625 40.40625 13.8125 
Q 43.796875 21.234375 43.796875 36.375 
Q 43.796875 51.5625 40.40625 58.984375 
Q 37.015625 66.40625 30.078125 66.40625 
z
M 30.078125 74.21875 
Q 41.75 74.21875 47.734375 64.640625 
Q 53.71875 55.078125 53.71875 36.375 
Q 53.71875 17.71875 47.734375 8.140625 
Q 41.75 -1.421875 30.078125 -1.421875 
Q 18.40625 -1.421875 12.453125 8.140625 
Q 6.5 17.71875 6.5 36.375 
Q 6.5 55.078125 12.453125 64.640625 
Q 18.40625 74.21875 30.078125 74.21875 
z
" id="DejaVuSansMono-48"/>
     <path d="M 33.984375 15.578125 
Q 33.984375 11.765625 36.546875 9.171875 
Q 39.109375 6.59375 42.921875 6.59375 
Q 46.6875 6.59375 49.296875 9.203125 
Q 51.90625 11.8125 51.90625 15.578125 
Q 51.90625 19.34375 49.265625 21.96875 
Q 46.625 24.609375 42.921875 24.609375 
Q 39.109375 24.609375 36.546875 22.015625 
Q 33.984375 19.4375 33.984375 15.578125 
z
M 27.390625 15.578125 
Q 27.390625 22.171875 31.875 26.6875 
Q 36.375 31.203125 42.921875 31.203125 
Q 46.046875 31.203125 48.84375 30.03125 
Q 51.65625 28.859375 53.90625 26.609375 
Q 56.15625 24.3125 57.375 21.484375 
Q 58.59375 18.65625 58.59375 15.578125 
Q 58.59375 9.078125 54.046875 4.53125 
Q 49.515625 0 42.921875 0 
Q 36.28125 0 31.828125 4.46875 
Q 27.390625 8.9375 27.390625 15.578125 
z
M 5.90625 22.703125 
L 4.203125 27.390625 
L 55.078125 47.796875 
L 57.078125 43.109375 
z
M 8.203125 54.296875 
Q 8.203125 50.4375 10.765625 47.875 
Q 13.328125 45.3125 17.1875 45.3125 
Q 20.953125 45.3125 23.578125 47.921875 
Q 26.21875 50.53125 26.21875 54.296875 
Q 26.21875 58.0625 23.578125 60.671875 
Q 20.953125 63.28125 17.1875 63.28125 
Q 13.421875 63.28125 10.8125 60.6875 
Q 8.203125 58.109375 8.203125 54.296875 
z
M 1.609375 54.296875 
Q 1.609375 60.890625 6.09375 65.40625 
Q 10.59375 69.921875 17.1875 69.921875 
Q 20.3125 69.921875 23.171875 68.75 
Q 26.03125 67.578125 28.21875 65.375 
Q 30.421875 63.1875 31.609375 60.328125 
Q 32.8125 57.46875 32.8125 54.296875 
Q 32.8125 47.75 28.265625 43.234375 
Q 23.734375 38.71875 17.1875 38.71875 
Q 10.59375 38.71875 6.09375 43.203125 
Q 1.609375 47.703125 1.609375 54.296875 
z
" id="DejaVuSansMono-37"/>
    </defs>
    <g style="fill:#262626;" transform="translate(556.444918 266.136102)scale(0.2 -0.2)">
     <use xlink:href="#DejaVuSansMono-51"/>
     <use x="60.205078" xlink:href="#DejaVuSansMono-48"/>
     <use x="120.410156" xlink:href="#DejaVuSansMono-37"/>
    </g>
   </g>
   <g id="text_3">
    <!-- 2 -->
    <defs>
     <path d="M 18.21875 8.296875 
L 51.703125 8.296875 
L 51.703125 0 
L 7.421875 0 
L 7.421875 8.296875 
Q 16.546875 17.921875 23.375 25.296875 
Q 30.21875 32.671875 32.8125 35.6875 
Q 37.703125 41.65625 39.40625 45.34375 
Q 41.109375 49.03125 41.109375 52.875 
Q 41.109375 58.984375 37.515625 62.453125 
Q 33.9375 65.921875 27.6875 65.921875 
Q 23.25 65.921875 18.359375 64.3125 
Q 13.484375 62.703125 8.015625 59.421875 
L 8.015625 69.390625 
Q 13.03125 71.78125 17.890625 73 
Q 22.75 74.21875 27.484375 74.21875 
Q 38.1875 74.21875 44.703125 68.53125 
Q 51.21875 62.84375 51.21875 53.609375 
Q 51.21875 48.921875 49.046875 44.234375 
Q 46.875 39.546875 42 33.890625 
Q 39.265625 30.71875 34.0625 25.09375 
Q 28.859375 19.484375 18.21875 8.296875 
z
" id="DejaVuSansMono-50"/>
    </defs>
    <g style="fill:#262626;" transform="translate(619.572075 511.366395)scale(0.2 -0.2)">
     <use xlink:href="#DejaVuSansMono-50"/>
    </g>
   </g>
   <g id="text_4">
    <!-- 18% -->
    <defs>
     <path d="M 30.078125 34.625 
Q 23.484375 34.625 19.890625 30.9375 
Q 16.3125 27.25 16.3125 20.515625 
Q 16.3125 13.765625 19.9375 10.03125 
Q 23.578125 6.296875 30.078125 6.296875 
Q 36.71875 6.296875 40.296875 9.984375 
Q 43.890625 13.671875 43.890625 20.515625 
Q 43.890625 27.203125 40.25 30.90625 
Q 36.625 34.625 30.078125 34.625 
z
M 21.484375 38.71875 
Q 15.1875 40.328125 11.640625 44.71875 
Q 8.109375 49.125 8.109375 55.328125 
Q 8.109375 64.015625 14.015625 69.109375 
Q 19.921875 74.21875 30.078125 74.21875 
Q 40.28125 74.21875 46.1875 69.109375 
Q 52.09375 64.015625 52.09375 55.328125 
Q 52.09375 49.125 48.546875 44.71875 
Q 45.015625 40.328125 38.71875 38.71875 
Q 46.046875 37.109375 49.921875 32.21875 
Q 53.8125 27.34375 53.8125 19.578125 
Q 53.8125 9.71875 47.515625 4.140625 
Q 41.21875 -1.421875 30.078125 -1.421875 
Q 18.953125 -1.421875 12.671875 4.125 
Q 6.390625 9.671875 6.390625 19.484375 
Q 6.390625 27.296875 10.265625 32.203125 
Q 14.15625 37.109375 21.484375 38.71875 
z
M 17.921875 54.390625 
Q 17.921875 48.53125 21.046875 45.453125 
Q 24.171875 42.390625 30.078125 42.390625 
Q 36.03125 42.390625 39.15625 45.453125 
Q 42.28125 48.53125 42.28125 54.390625 
Q 42.28125 60.359375 39.171875 63.484375 
Q 36.078125 66.609375 30.078125 66.609375 
Q 24.171875 66.609375 21.046875 63.453125 
Q 17.921875 60.296875 17.921875 54.390625 
z
" id="DejaVuSansMono-56"/>
    </defs>
    <g style="fill:#262626;" transform="translate(535.625649 432.659795)scale(0.2 -0.2)">
     <use xlink:href="#DejaVuSansMono-49"/>
     <use x="60.205078" xlink:href="#DejaVuSansMono-56"/>
     <use x="120.410156" xlink:href="#DejaVuSansMono-37"/>
    </g>
   </g>
   <g id="text_5">
    <!-- 3 -->
    <g style="fill:#262626;" transform="translate(406.988286 557.076258)scale(0.2 -0.2)">
     <use xlink:href="#DejaVuSansMono-51"/>
    </g>
   </g>
   <g id="text_6">
    <!-- 12% -->
    <g style="fill:#262626;" transform="translate(426.238468 457.592448)scale(0.2 -0.2)">
     <use xlink:href="#DejaVuSansMono-49"/>
     <use x="60.205078" xlink:href="#DejaVuSansMono-50"/>
     <use x="120.410156" xlink:href="#DejaVuSansMono-37"/>
    </g>
   </g>
   <g id="text_7">
    <!-- 4 -->
    <defs>
     <path d="M 35.890625 63.921875 
L 12.890625 25.390625 
L 35.890625 25.390625 
z
M 34.28125 72.90625 
L 45.703125 72.90625 
L 45.703125 25.390625 
L 55.421875 25.390625 
L 55.421875 17.390625 
L 45.703125 17.390625 
L 45.703125 0 
L 35.890625 0 
L 35.890625 17.390625 
L 4.984375 17.390625 
L 4.984375 26.703125 
z
" id="DejaVuSansMono-52"/>
    </defs>
    <g style="fill:#262626;" transform="translate(279.466668 470.350831)scale(0.2 -0.2)">
     <use xlink:href="#DejaVuSansMono-52"/>
    </g>
   </g>
   <g id="text_8">
    <!-- 10% -->
    <g style="fill:#262626;" transform="translate(356.681222 410.287669)scale(0.2 -0.2)">
     <use xlink:href="#DejaVuSansMono-49"/>
     <use x="60.205078" xlink:href="#DejaVuSansMono-48"/>
     <use x="120.410156" xlink:href="#DejaVuSansMono-37"/>
    </g>
   </g>
   <g id="text_9">
    <!-- 5 -->
    <defs>
     <path d="M 10.109375 72.90625 
L 47.015625 72.90625 
L 47.015625 64.59375 
L 19.09375 64.59375 
L 19.09375 46.6875 
Q 21.1875 47.46875 23.3125 47.828125 
Q 25.4375 48.1875 27.59375 48.1875 
Q 38.921875 48.1875 45.5625 41.5 
Q 52.203125 34.8125 52.203125 23.390625 
Q 52.203125 11.859375 45.234375 5.21875 
Q 38.28125 -1.421875 26.21875 -1.421875 
Q 20.40625 -1.421875 15.59375 -0.640625 
Q 10.796875 0.140625 6.984375 1.703125 
L 6.984375 11.71875 
Q 11.46875 9.28125 16.015625 8.078125 
Q 20.5625 6.890625 25.296875 6.890625 
Q 33.453125 6.890625 37.859375 11.1875 
Q 42.28125 15.484375 42.28125 23.390625 
Q 42.28125 31.203125 37.71875 35.546875 
Q 33.15625 39.890625 25 39.890625 
Q 21.046875 39.890625 17.28125 38.984375 
Q 13.53125 38.09375 10.109375 36.28125 
z
" id="DejaVuSansMono-53"/>
    </defs>
    <g style="fill:#262626;" transform="translate(237.351381 354.428569)scale(0.2 -0.2)">
     <use xlink:href="#DejaVuSansMono-53"/>
    </g>
   </g>
   <g id="text_10">
    <!-- 8% -->
    <g style="fill:#262626;" transform="translate(339.72956 347.057344)scale(0.2 -0.2)">
     <use xlink:href="#DejaVuSansMono-56"/>
     <use x="60.205078" xlink:href="#DejaVuSansMono-37"/>
    </g>
   </g>
   <g id="text_11">
    <!-- 6 -->
    <defs>
     <path d="M 48.390625 71.296875 
L 48.390625 62.203125 
Q 45.3125 64.015625 41.84375 64.96875 
Q 38.375 65.921875 34.625 65.921875 
Q 25.25 65.921875 20.40625 58.859375 
Q 15.578125 51.8125 15.578125 38.09375 
Q 17.921875 42.96875 22.0625 45.578125 
Q 26.21875 48.1875 31.59375 48.1875 
Q 42.140625 48.1875 47.921875 41.71875 
Q 53.71875 35.25 53.71875 23.390625 
Q 53.71875 11.578125 47.75 5.078125 
Q 41.796875 -1.421875 31 -1.421875 
Q 18.3125 -1.421875 12.40625 7.6875 
Q 6.5 16.796875 6.5 36.375 
Q 6.5 54.828125 13.59375 64.515625 
Q 20.703125 74.21875 34.1875 74.21875 
Q 37.796875 74.21875 41.40625 73.453125 
Q 45.015625 72.703125 48.390625 71.296875 
z
M 30.8125 40.484375 
Q 24.515625 40.484375 20.890625 35.9375 
Q 17.28125 31.390625 17.28125 23.390625 
Q 17.28125 15.375 20.890625 10.828125 
Q 24.515625 6.296875 30.8125 6.296875 
Q 37.359375 6.296875 40.671875 10.609375 
Q 44 14.9375 44 23.390625 
Q 44 31.890625 40.671875 36.1875 
Q 37.359375 40.484375 30.8125 40.484375 
z
" id="DejaVuSansMono-54"/>
    </defs>
    <g style="fill:#262626;" transform="translate(253.485332 252.944995)scale(0.2 -0.2)">
     <use xlink:href="#DejaVuSansMono-54"/>
    </g>
   </g>
   <g id="text_12">
    <!-- 7% -->
    <defs>
     <path d="M 6.78125 72.90625 
L 52.6875 72.90625 
L 52.6875 68.703125 
L 26.609375 0 
L 16.3125 0 
L 41.703125 64.59375 
L 6.78125 64.59375 
z
" id="DejaVuSansMono-55"/>
    </defs>
    <g style="fill:#262626;" transform="translate(348.529897 291.702668)scale(0.2 -0.2)">
     <use xlink:href="#DejaVuSansMono-55"/>
     <use x="60.205078" xlink:href="#DejaVuSansMono-37"/>
    </g>
   </g>
   <g id="text_13">
    <!-- 7 -->
    <g style="fill:#262626;" transform="translate(302.001636 179.448096)scale(0.2 -0.2)">
     <use xlink:href="#DejaVuSansMono-55"/>
    </g>
   </g>
   <g id="text_14">
    <!-- 6% -->
    <g style="fill:#262626;" transform="translate(374.993336 251.61345)scale(0.2 -0.2)">
     <use xlink:href="#DejaVuSansMono-54"/>
     <use x="60.205078" xlink:href="#DejaVuSansMono-37"/>
    </g>
   </g>
   <g id="text_15">
    <!-- 8 -->
    <g style="fill:#262626;" transform="translate(364.727092 134.701236)scale(0.2 -0.2)">
     <use xlink:href="#DejaVuSansMono-56"/>
    </g>
   </g>
   <g id="text_16">
    <!-- 5% -->
    <g style="fill:#262626;" transform="translate(409.207221 227.206072)scale(0.2 -0.2)">
     <use xlink:href="#DejaVuSansMono-53"/>
     <use x="60.205078" xlink:href="#DejaVuSansMono-37"/>
    </g>
   </g>
   <g id="text_17">
    <!-- 9 -->
    <defs>
     <path d="M 29.109375 32.328125 
Q 35.40625 32.328125 38.984375 36.859375 
Q 42.578125 41.40625 42.578125 49.421875 
Q 42.578125 57.421875 38.984375 61.953125 
Q 35.40625 66.5 29.109375 66.5 
Q 22.5625 66.5 19.234375 62.171875 
Q 15.921875 57.859375 15.921875 49.421875 
Q 15.921875 40.921875 19.21875 36.625 
Q 22.515625 32.328125 29.109375 32.328125 
z
M 11.53125 1.515625 
L 11.53125 10.59375 
Q 14.59375 8.796875 18.0625 7.84375 
Q 21.53125 6.890625 25.296875 6.890625 
Q 34.671875 6.890625 39.46875 13.9375 
Q 44.28125 21 44.28125 34.71875 
Q 42 29.828125 37.84375 27.21875 
Q 33.6875 24.609375 28.328125 24.609375 
Q 17.78125 24.609375 11.984375 31.09375 
Q 6.203125 37.59375 6.203125 49.515625 
Q 6.203125 61.28125 12.125 67.75 
Q 18.0625 74.21875 28.90625 74.21875 
Q 41.609375 74.21875 47.515625 65.078125 
Q 53.421875 55.953125 53.421875 36.375 
Q 53.421875 17.96875 46.3125 8.265625 
Q 39.203125 -1.421875 25.6875 -1.421875 
Q 22.125 -1.421875 18.5 -0.65625 
Q 14.890625 0.09375 11.53125 1.515625 
z
" id="DejaVuSansMono-57"/>
    </defs>
    <g style="fill:#262626;" transform="translate(430.233802 114.725998)scale(0.2 -0.2)">
     <use xlink:href="#DejaVuSansMono-57"/>
    </g>
   </g>
   <g id="text_18">
    <!-- 5% -->
    <g style="fill:#262626;" transform="translate(444.938153 216.310487)scale(0.2 -0.2)">
     <use xlink:href="#DejaVuSansMono-53"/>
     <use x="60.205078" xlink:href="#DejaVuSansMono-37"/>
    </g>
   </g>
  </g>
 </g>
</svg>
