<svg viewBox="0 0 800 250" xmlns:xlink="http://www.w3.org/1999/xlink" xmlns="http://www.w3.org/2000/svg" id="scale" width="800" height="250"><path d="M 55.16759304136036 203.7925930413603 A 487.6666666666667 487.6666666666667 0 0 1 744.8324069586397 203.79259304136036 L 400 548.625 Z" stroke="#111111" fill-opacity="0" stroke-width="2px"></path><line x1="744.8324069586397" x2="723.2803815237247" y1="203.79259304136036" y2="225.34461847627534" stroke="#111111" stroke-width="2px"></line><line x1="679.7141087938602" x2="662.231976994244" y1="149.15185306840164" y2="174.11892475162654" stroke="#111111" stroke-width="2px"></line><line x1="606.0968389755478" x2="593.215786539576" y1="106.64890252179367" y2="134.2724086141816" stroke="#111111" stroke-width="2px"></line><line x1="526.217420994996" x2="518.3288321828088" y1="77.5751720463644" y2="107.01578629346665" stroke="#111111" stroke-width="2px"></line><line x1="442.50295054660796" x2="439.84651613744495" y1="62.8140522305921" y2="93.17723646618009" stroke="#111111" stroke-width="2px"></line><line x1="357.4970494533921" x2="360.1534838625551" y1="62.8140522305921" y2="93.17723646618009" stroke="#111111" stroke-width="2px"></line><line x1="273.7825790050041" x2="281.67116781719136" y1="77.57517204636434" y2="107.01578629346659" stroke="#111111" stroke-width="2px"></line><line x1="193.9031610244523" x2="206.784213460424" y1="106.64890252179362" y2="134.27240861418153" stroke="#111111" stroke-width="2px"></line><line x1="120.28589120613981" x2="137.7680230057561" y1="149.1518530684017" y2="174.1189247516266" stroke="#111111" stroke-width="2px"></line><line x1="55.16759304136036" x2="76.71961847627534" y1="203.7925930413603" y2="225.3446184762753" stroke="#111111" stroke-width="2px"></line><line x1="713.4660909904691" x2="697.7927864409455" y1="175.05065990564503" y2="193.72937691036276" stroke="#111111" stroke-width="2px"></line><line x1="643.8333333333334" x2="631.6416666666668" y1="126.29327808778874" y2="147.4098641833993" stroke="#111111" stroke-width="2px"></line><line x1="566.7918232284845" x2="558.4522320670603" y1="90.368231930072" y2="113.28107033356844" stroke="#111111" stroke-width="2px"></line><line x1="484.6824279755731" x2="480.44830657679444" y1="68.36708578104651" y2="92.37998149199422" stroke="#111111" stroke-width="2px"></line><line x1="400.00000000000006" x2="400" y1="60.958333333333314" y2="85.34166666666664" stroke="#111111" stroke-width="2px"></line><line x1="315.31757202442697" x2="319.5516934232056" y1="68.36708578104651" y2="92.37998149199422" stroke="#111111" stroke-width="2px"></line><line x1="233.20817677151555" x2="241.54776793293976" y1="90.368231930072" y2="113.28107033356838" stroke="#111111" stroke-width="2px"></line><line x1="156.16666666666654" x2="168.3583333333332" y1="126.29327808778879" y2="147.40986418339935" stroke="#111111" stroke-width="2px"></line><line x1="86.53390900953093" x2="102.20721355905442" y1="175.05065990564503" y2="193.72937691036276" stroke="#111111" stroke-width="2px"></line><line x1="738.7617319938377" x2="731.7041959106327" y1="197.82695736818448" y2="205.135249923014" stroke="#111111" stroke-width="1"></line><line x1="732.5878669238118" x2="725.6589530295657" y1="191.9681781770512" y2="199.39852863169597" stroke="#111111" stroke-width="1"></line><line x1="726.3126923676698" x2="719.5145112766768" y1="186.2180401088574" y2="193.76818510658956" stroke="#111111" stroke-width="1"></line><line x1="719.9381198043707" x2="713.2727423084464" y1="180.57829471136148" y2="188.2459344048748" stroke="#111111" stroke-width="1"></line><line x1="713.4660909904691" x2="706.9355474281676" y1="175.05065990564503" y2="182.83345865761078" stroke="#111111" stroke-width="1"></line><line x1="706.8985773686375" x2="700.5048570067909" y1="169.6368194628172" y2="177.5324065573418" stroke="#111111" stroke-width="1"></line><line x1="700.237579467146" x2="693.9826298949138" y1="164.33842249112195" y2="172.34439285589025" stroke="#111111" stroke-width="1"></line><line x1="693.4851262904823" x2="687.3708528260972" y1="159.15708293360353" y2="167.27099787248676" stroke="#111111" stroke-width="1"></line><line x1="686.6432747012961" x2="680.6715398116858" y1="154.09437907648396" y2="162.31376701239054" stroke="#111111" stroke-width="1"></line><line x1="679.7141087938602" x2="673.8867315273214" y1="149.15185306840164" y2="157.47421029614327" stroke="#111111" stroke-width="1"></line><line x1="672.6997392592342" x2="667.0184946913334" y1="144.33101045065797" y2="152.7538018996026" stroke="#111111" stroke-width="1"></line><line x1="665.6023027423282" x2="660.0689214351964" y1="139.6333196986149" y2="148.15397970489374" stroke="#111111" stroke-width="1"></line><line x1="658.4239611910596" x2="653.0401286662459" y1="135.06021177438294" y2="143.6761448624166" stroke="#111111" stroke-width="1"></line><line x1="651.1669011978032" x2="645.934257422849" y1="130.61307969093662" y2="139.3216613640421" stroke="#111111" stroke-width="1"></line><line x1="643.8333333333334" x2="638.7534722222223" y1="126.29327808778874" y2="135.0918556276265" stroke="#111111" stroke-width="1"></line><line x1="636.4254914734638" x2="631.4999604010999" y1="122.10212281835464" y2="130.98801609297226" stroke="#111111" stroke-width="1"></line><line x1="628.9456321185861" x2="624.1759314494489" y1="118.04089054912998" y2="127.01139282935645" stroke="#111111" stroke-width="1"></line><line x1="621.396033706319" x2="616.7836163374374" y1="114.11081837080599" y2="123.16319715474748" stroke="#111111" stroke-width="1"></line><line x1="613.7789959174735" x2="609.3252668358595" y1="110.31310342143951" y2="119.44460126682623" stroke="#111111" stroke-width="1"></line><line x1="606.0968389755478" x2="601.8031548302239" y1="106.64890252179367" y2="115.856737885923" stroke="#111111" stroke-width="1"></line><line x1="598.3519029399653" x2="594.2195716287159" y1="103.11933182295832" y2="112.40069990998" stroke="#111111" stroke-width="1"></line><line x1="590.5465469932692" x2="586.5768272642428" y1="99.72546646635988" y2="109.07754008164409" stroke="#111111" stroke-width="1"></line><line x1="582.6831487224931" x2="578.8772497907746" y1="96.46834025626339" y2="105.8882706675912" stroke="#111111" stroke-width="1"></line><line x1="574.7641033949249" x2="571.1231845741972" y1="93.3489453448646" y2="102.83386315017992" stroke="#111111" stroke-width="1"></line><line x1="566.7918232284845" x2="563.316993577891" y1="90.368231930072" y2="99.91524793152888" stroke="#111111" stroke-width="1"></line><line x1="558.7687366569401" x2="555.4610546432539" y1="87.52710796606652" y2="97.13331405010683" stroke="#111111" stroke-width="1"></line><line x1="550.6972875901827" x2="547.5577607653872" y1="84.8264388867301" y2="94.48890890992323" stroke="#111111" stroke-width="1"></line><line x1="542.5799346697879" x2="539.6095193641675" y1="82.26704734202639" y2="91.98283802240081" stroke="#111111" stroke-width="1"></line><line x1="534.4191505200899" x2="531.6187515509214" y1="79.84971294741314" y2="89.61586476100871" stroke="#111111" stroke-width="1"></line><line x1="526.217420994996" x2="523.5878913909337" y1="77.5751720463644" y2="87.38871012873182" stroke="#111111" stroke-width="1"></line><line x1="517.9772444207713" x2="515.5193851620052" y1="75.44411748607234" y2="85.30205253844588" stroke="#111111" stroke-width="1"></line><line x1="509.7011308350249" x2="507.4156906092952" y1="73.45719840640027" y2="83.35652760626692" stroke="#111111" stroke-width="1"></line><line x1="501.39160122212735" x2="499.2792761966664" y1="71.61502004214748" y2="81.55272795793604" stroke="#111111" stroke-width="1"></line><line x1="493.05118674529507" x2="491.11262035476807" y1="69.91814353868921" y2="79.89120304829981" stroke="#111111" stroke-width="1"></line><line x1="484.6824279755731" x2="482.91821072608195" y1="68.36708578104651" y2="78.3724589939414" stroke="#111111" stroke-width="1"></line><line x1="476.2878741179526" x2="474.69854340716194" y1="66.96231923643779" y2="76.996958419012" stroke="#111111" stroke-width="1"></line><line x1="467.8700822348586" x2="466.45612218829905" y1="65.70427181036081" y2="75.76512031431167" stroke="#111111" stroke-width="1"></line><line x1="459.4316164672436" x2="458.1934577908427" y1="64.59332671624861" y2="74.67731990966013" stroke="#111111" stroke-width="1"></line><line x1="450.97504725352564" x2="449.91306710241054" y1="63.62982235873869" y2="73.73388855959831" stroke="#111111" stroke-width="1"></line><line x1="442.50295054660796" x2="441.6174724102203" y1="62.8140522305921" y2="72.93511364245472" stroke="#111111" stroke-width="1"></line><line x1="434.0179070292185" x2="433.3092006327765" y1="62.14626482329237" y2="72.2812384728071" stroke="#111111" stroke-width="1"></line><line x1="425.5225013278089" x2="424.9907825501462" y1="61.626663551352806" y2="71.7724622273663" stroke="#111111" stroke-width="1"></line><line x1="417.019321225253" x2="416.66475203306027" y1="61.25540669035428" y2="71.40893988430525" stroke="#111111" stroke-width="1"></line><line x1="408.51095687258197" x2="408.3336452710698" y1="61.03260732873315" y2="71.19078217605124" stroke="#111111" stroke-width="1"></line><line x1="400.00000000000006" x2="400.00000000000006" y1="60.958333333333314" y2="71.11805555555554" stroke="#111111" stroke-width="1"></line><line x1="391.4890431274182" x2="391.66635472893034" y1="61.03260732873315" y2="71.19078217605124" stroke="#111111" stroke-width="1"></line><line x1="382.98067877474705" x2="383.3352479669398" y1="61.25540669035428" y2="71.40893988430525" stroke="#111111" stroke-width="1"></line><line x1="374.47749867219113" x2="375.00921744985385" y1="61.626663551352806" y2="71.7724622273663" stroke="#111111" stroke-width="1"></line><line x1="365.98209297078165" x2="366.6907993672237" y1="62.14626482329231" y2="72.2812384728071" stroke="#111111" stroke-width="1"></line><line x1="357.4970494533921" x2="358.3825275897798" y1="62.8140522305921" y2="72.93511364245472" stroke="#111111" stroke-width="1"></line><line x1="349.0249527464744" x2="350.0869328975895" y1="63.629822358738636" y2="73.73388855959826" stroke="#111111" stroke-width="1"></line><line x1="340.56838353275646" x2="341.8065422091574" y1="64.59332671624855" y2="74.67731990966007" stroke="#111111" stroke-width="1"></line><line x1="332.12991776514144" x2="333.543877811701" y1="65.70427181036081" y2="75.76512031431167" stroke="#111111" stroke-width="1"></line><line x1="323.7121258820474" x2="325.3014565928381" y1="66.96231923643779" y2="76.996958419012" stroke="#111111" stroke-width="1"></line><line x1="315.31757202442697" x2="317.0817892739181" y1="68.36708578104651" y2="78.3724589939414" stroke="#111111" stroke-width="1"></line><line x1="306.948813254705" x2="308.88737964523193" y1="69.91814353868921" y2="79.89120304829981" stroke="#111111" stroke-width="1"></line><line x1="298.6083987778728" x2="300.7207238033338" y1="71.61502004214742" y2="81.55272795793599" stroke="#111111" stroke-width="1"></line><line x1="290.29886916497514" x2="292.58430939070485" y1="73.45719840640027" y2="83.35652760626692" stroke="#111111" stroke-width="1"></line><line x1="282.0227555792288" x2="284.48061483799484" y1="75.44411748607234" y2="85.30205253844588" stroke="#111111" stroke-width="1"></line><line x1="273.7825790050041" x2="276.41210860906654" y1="77.57517204636434" y2="87.38871012873176" stroke="#111111" stroke-width="1"></line><line x1="265.5808494799101" x2="268.38124844907867" y1="79.84971294741314" y2="89.61586476100871" stroke="#111111" stroke-width="1"></line><line x1="257.4200653302121" x2="260.39048063583266" y1="82.26704734202633" y2="91.98283802240076" stroke="#111111" stroke-width="1"></line><line x1="249.30271240981733" x2="252.44223923461283" y1="84.82643888673005" y2="94.48890890992317" stroke="#111111" stroke-width="1"></line><line x1="241.23126334305994" x2="244.53894535674618" y1="87.52710796606647" y2="97.13331405010678" stroke="#111111" stroke-width="1"></line><line x1="233.20817677151555" x2="236.68300642210897" y1="90.368231930072" y2="99.91524793152882" stroke="#111111" stroke-width="1"></line><line x1="225.23589660507534" x2="228.87681542580293" y1="93.34894534486455" y2="102.83386315017987" stroke="#111111" stroke-width="1"></line><line x1="217.31685127750688" x2="221.12275020922547" y1="96.46834025626333" y2="105.88827066759114" stroke="#111111" stroke-width="1"></line><line x1="209.4534530067309" x2="213.42317273575733" y1="99.72546646635988" y2="109.07754008164409" stroke="#111111" stroke-width="1"></line><line x1="201.64809706003473" x2="205.78042837128402" y1="103.11933182295832" y2="112.40069990998" stroke="#111111" stroke-width="1"></line><line x1="193.9031610244523" x2="198.1968451697762" y1="106.64890252179362" y2="115.85673788592294" stroke="#111111" stroke-width="1"></line><line x1="186.22100408252652" x2="190.67473316414055" y1="110.31310342143956" y2="119.44460126682628" stroke="#111111" stroke-width="1"></line><line x1="178.60396629368105" x2="183.2163836625627" y1="114.11081837080593" y2="123.16319715474748" stroke="#111111" stroke-width="1"></line><line x1="171.05436788141404" x2="175.82406855055126" y1="118.04089054912987" y2="127.01139282935634" stroke="#111111" stroke-width="1"></line><line x1="163.5745085265363" x2="168.50003959890014" y1="122.10212281835459" y2="130.9880160929722" stroke="#111111" stroke-width="1"></line><line x1="156.16666666666654" x2="161.24652777777766" y1="126.29327808778879" y2="135.09185562762656" stroke="#111111" stroke-width="1"></line><line x1="148.83309880219687" x2="154.0657425771511" y1="130.61307969093656" y2="139.32166136404203" stroke="#111111" stroke-width="1"></line><line x1="141.57603880894044" x2="146.9598713337542" y1="135.06021177438288" y2="143.67614486241655" stroke="#111111" stroke-width="1"></line><line x1="134.39769725767178" x2="139.9310785648036" y1="139.6333196986149" y2="148.15397970489374" stroke="#111111" stroke-width="1"></line><line x1="127.30026074076585" x2="132.98150530866656" y1="144.33101045065797" y2="152.7538018996026" stroke="#111111" stroke-width="1"></line><line x1="120.28589120613981" x2="126.11326847267856" y1="149.1518530684017" y2="157.47421029614333" stroke="#111111" stroke-width="1"></line><line x1="113.35672529870396" x2="119.3284601883143" y1="154.09437907648396" y2="162.31376701239054" stroke="#111111" stroke-width="1"></line><line x1="106.51487370951787" x2="112.62914717390294" y1="159.15708293360342" y2="167.27099787248665" stroke="#111111" stroke-width="1"></line><line x1="99.76242053285398" x2="106.01737010508617" y1="164.3384224911219" y2="172.3443928558902" stroke="#111111" stroke-width="1"></line><line x1="93.10142263136254" x2="99.49514299320913" y1="169.63681946281724" y2="177.53240655734186" stroke="#111111" stroke-width="1"></line><line x1="86.53390900953093" x2="93.06445257183242" y1="175.05065990564503" y2="182.83345865761078" stroke="#111111" stroke-width="1"></line><line x1="80.06188019562933" x2="86.72725769155375" y1="180.57829471136142" y2="188.24593440487473" stroke="#111111" stroke-width="1"></line><line x1="73.68730763233026" x2="80.48548872332339" y1="186.21804010885728" y2="193.76818510658944" stroke="#111111" stroke-width="1"></line><line x1="67.4121330761883" x2="74.34104697043438" y1="191.96817817705113" y2="199.3985286316959" stroke="#111111" stroke-width="1"></line><line x1="61.238268006162286" x2="68.29580408936721" y1="197.82695736818448" y2="205.135249923014" stroke="#111111" stroke-width="1"></line><line x1="55.16759304136036" x2="62.35160151966534" y1="203.7925930413603" y2="210.97660151966528" stroke="#111111" stroke-width="1"></line><text x="648.246271554551" y="194.0925820982065" text-anchor="middle" font-family="Merriweather" font-size="1.2em">10°</text><text x="582.9109445907986" y="156.37121348809194" text-anchor="middle" font-family="Merriweather" font-size="1.2em">20°</text><text x="512.017961133059" y="130.5682776911484" text-anchor="middle" font-family="Merriweather" font-size="1.2em">30°</text><text x="437.72136861011455" y="117.46778385465046" text-anchor="middle" font-family="Merriweather" font-size="1.2em">40°</text><text x="362.2786313898855" y="117.46778385465046" text-anchor="middle" font-family="Merriweather" font-size="1.2em">50°</text><text x="287.98203886694114" y="130.56827769114835" text-anchor="middle" font-family="Merriweather" font-size="1.2em">60°</text><text x="217.0890554092014" y="156.37121348809188" text-anchor="middle" font-family="Merriweather" font-size="1.2em">70°</text><text x="151.7537284454491" y="194.09258209820655" text-anchor="middle" font-family="Merriweather" font-size="1.2em">80°</text><text x="716.0963730454198" y="232.52862695458032" text-anchor="end" font-family="Merriweather" font-size="1.2em">0°</text><text x="83.90362695458032" y="232.52862695458026" text-anchor="start" font-family="Merriweather" font-size="1.2em" dx="0.4em">90°</text><line x1="55.16759304136036" x2="33.615567606445325" y1="203.7925930413603" y2="182.24056760644527" stroke="#111111" stroke-width="2px"></line><line x1="181.90883659452052" x2="168.27813888167805" y1="112.44267318904105" y2="85.18127776335609" stroke="#111111" stroke-width="2px"></line><line x1="245.7862594391221" x2="236.1479006540672" y1="85.98377831736605" y2="57.06870196220143" stroke="#111111" stroke-width="2px"></line><line x1="300.3649970942237" x2="294.1378094126127" y1="71.24502139412704" y2="41.408772731259944" stroke="#111111" stroke-width="2px"></line><line x1="350.9851295287935" x2="347.9217001243431" y1="63.42780271783448" y2="33.102977887699126" stroke="#111111" stroke-width="2px"></line><line x1="400.00000000000006" x2="400.00000000000006" y1="60.958333333333314" y2="30.47916666666663" stroke="#111111" stroke-width="2px"></line><line x1="449.01487047120656" x2="452.07829987565697" y1="63.42780271783448" y2="33.102977887699126" stroke="#111111" stroke-width="2px"></line><line x1="499.6350029057762" x2="505.86219058738726" y1="71.24502139412704" y2="41.408772731259944" stroke="#111111" stroke-width="2px"></line><line x1="554.213740560878" x2="563.8520993459329" y1="85.9837783173661" y2="57.06870196220149" stroke="#111111" stroke-width="2px"></line><line x1="618.0911634054794" x2="631.7218611183218" y1="112.44267318904099" y2="85.18127776335604" stroke="#111111" stroke-width="2px"></line><line x1="744.8324069586397" x2="766.3844323935548" y1="203.79259304136036" y2="182.24056760644532" stroke="#111111" stroke-width="2px"></line><line x1="141.00581487530587" x2="128.05610561907116" y1="135.41707431442768" y2="114.75667803014903" stroke="#111111" stroke-width="2px"></line><line x1="215.6332463112938" x2="206.41490862685848" y1="97.1522124346078" y2="74.57857305633814" stroke="#111111" stroke-width="2px"></line><line x1="273.782579005004" x2="267.47170795525415" y1="77.57517204636434" y2="54.022680648682524" stroke="#111111" stroke-width="2px"></line><line x1="325.9928286498856" x2="322.2924700823799" y1="66.60662237676809" y2="42.50570349560644" stroke="#111111" stroke-width="2px"></line><line x1="375.586053362495" x2="374.3653560306198" y1="61.56983167986107" y2="37.21707326385405" stroke="#111111" stroke-width="2px"></line><line x1="424.41394663750503" x2="425.63464396938025" y1="61.56983167986107" y2="37.21707326385405" stroke="#111111" stroke-width="2px"></line><line x1="474.00717135011445" x2="477.70752991762015" y1="66.60662237676814" y2="42.5057034956065" stroke="#111111" stroke-width="2px"></line><line x1="526.2174209949959" x2="532.5282920447457" y1="77.57517204636434" y2="54.022680648682524" stroke="#111111" stroke-width="2px"></line><line x1="584.3667536887062" x2="593.5850913731416" y1="97.1522124346078" y2="74.57857305633814" stroke="#111111" stroke-width="2px"></line><line x1="658.9941851246942" x2="671.9438943809289" y1="135.41707431442768" y2="114.75667803014903" stroke="#111111" stroke-width="2px"></line><line x1="91.37932786478012" x2="84.94973052862969" y1="171.03784647305213" y2="163.17144744124073" stroke="#111111" stroke-width="1"></line><line x1="107.39999999999986" x2="101.30416666666656" y1="158.49166666666673" y2="150.36388888888894" stroke="#111111" stroke-width="1"></line><line x1="120.10619073619046" x2="114.27506970986104" y1="149.277740946464" y2="140.95800638284862" stroke="#111111" stroke-width="1"></line><line x1="131.10110386195902" x2="125.49904352574981" y1="141.79314107850303" y2="133.31747735097184" stroke="#111111" stroke-width="1"></line><line x1="141.00581487530587" x2="135.61010268520806" y1="135.41707431442768" y2="126.80857586264494" stroke="#111111" stroke-width="1"></line><line x1="150.13892170288472" x2="144.9334825716948" y1="129.83123293800008" y2="121.1063627908751" stroke="#111111" stroke-width="1"></line><line x1="158.6897489026661" x2="153.66245200480498" y1="124.8465903409903" y2="116.01787347309426" stroke="#111111" stroke-width="1"></line><line x1="166.78170782292432" x2="161.92299340256858" y1="120.34004115625783" y2="111.41743784701316" stroke="#111111" stroke-width="1"></line><line x1="174.500571170784" x2="169.80266640350868" y1="116.22612699560011" y2="107.21781714134175" stroke="#111111" stroke-width="1"></line><line x1="181.90883659452052" x2="177.3652706902397" y1="112.44267318904105" y2="103.3555413804794" stroke="#111111" stroke-width="1"></line><line x1="189.05372884674742" x2="184.65901486438798" y1="108.94278695935827" y2="99.78274085434492" stroke="#111111" stroke-width="1"></line><line x1="195.9719785703962" x2="191.7213947906128" y1="105.69007899094373" y2="96.46226813658836" stroke="#111111" stroke-width="1"></line><line x1="202.69283552388276" x2="198.582269597297" y1="102.65565057767458" y2="93.36462246470944" stroke="#111111" stroke-width="1"></line><line x1="209.24005356778903" x2="205.26588801711796" y1="99.81610902862252" y2="90.46592380005217" stroke="#111111" stroke-width="1"></line><line x1="215.6332463112938" x2="211.7922722761124" y1="97.1522124346078" y2="87.7465293603288" stroke="#111111" stroke-width="1"></line><line x1="221.88884139109928" x2="218.17819225341384" y1="94.64791582418741" y2="85.19005990385801" stroke="#111111" stroke-width="1"></line><line x1="228.0207697493303" x2="224.43786911910803" y1="92.28968234404107" y2="82.78269655954193" stroke="#111111" stroke-width="1"></line><line x1="234.04097468785804" x2="230.58349499385508" y1="90.0659746878581" y2="80.51266166052176" stroke="#111111" stroke-width="1"></line><line x1="239.9597951762845" x2="236.6256242424571" y1="87.9668722981641" y2="78.36982797104247" stroke="#111111" stroke-width="1"></line><line x1="245.7862594391221" x2="242.5734731774371" y1="85.98377831736605" y2="76.34541953231115" stroke="#111111" stroke-width="1"></line><line x1="251.52831325225054" x2="248.43515311167243" y1="84.10919185989377" y2="74.43177919030825" stroke="#111111" stroke-width="1"></line><line x1="257.1929998877698" x2="254.21785405209832" y1="82.33652866843971" y2="72.6221855156989" stroke="#111111" stroke-width="1"></line><line x1="262.78660368712735" x2="259.92799126394254" y1="80.65997817671843" y2="70.91070688873344" stroke="#111111" stroke-width="1"></line><line x1="268.31476588676406" x2="265.57132350940503" y1="79.07438835699509" y2="69.29208394776578" stroke="#111111" stroke-width="1"></line><line x1="273.782579005004" x2="271.15304940094154" y1="77.57517204636434" y2="67.76163396399693" stroke="#111111" stroke-width="1"></line><line x1="279.19466447258407" x2="276.6778866490962" y1="76.15823007232962" y2="66.31517236550314" stroke="#111111" stroke-width="1"></line><line x1="284.55523702844187" x2="282.1501377998677" y1="74.8198876592628" y2="64.94894781883079" stroke="#111111" stroke-width="1"></line><line x1="289.86815856167595" x2="287.57374519837754" y1="73.55684143832406" y2="63.65958813495581" stroke="#111111" stroke-width="1"></line><line x1="295.136983463475" x2="292.95233728563073" y1="72.36611500084507" y2="62.444054896696" stroke="#111111" stroke-width="1"></line><line x1="300.3649970942237" x2="298.28926786702004" y1="71.24502139412704" y2="61.2996051731713" stroke="#111111" stroke-width="1"></line><line x1="305.5552486263101" x2="303.58764963935823" y1="70.1911313036673" y2="60.22375903916037" stroke="#111111" stroke-width="1"></line><line x1="310.7105792613776" x2="308.85038299598966" y1="69.20224592804414" y2="59.21427188487837" stroke="#111111" stroke-width="1"></line><line x1="315.8336466200052" x2="314.08018092458866" y1="68.27637375392482" y2="58.269110707131574" stroke="#111111" stroke-width="1"></line><line x1="320.92694594645" x2="319.27959065366775" y1="67.41171059454086" y2="57.38643373192713" stroke="#111111" stroke-width="1"></line><line x1="325.9928286498856" x2="324.4510125800916" y1="66.60662237676809" y2="56.564572842950724" stroke="#111111" stroke-width="1"></line><line x1="331.03351860827206" x2="329.59671691261104" y1="65.85963025790443" y2="55.80201838827742" stroke="#111111" stroke-width="1"></line><line x1="336.05112658554225" x2="334.7188583894077" y1="65.1693977294301" y2="55.09740601545985" stroke="#111111" stroke-width="1"></line><line x1="341.04766305265616" x2="339.81948936625315" y1="64.53471942598907" y2="54.449505247363845" stroke="#111111" stroke-width="1"></line><line x1="346.02504965487805" x2="344.900571522688" y1="63.95451140695661" y2="53.85720956126818" stroke="#111111" stroke-width="1"></line><line x1="350.9851295287935" x2="349.9639863939767" y1="63.42780271783448" y2="53.31952777445605" stroke="#111111" stroke-width="1"></line><line x1="355.929676641152" x2="355.0115449045094" y1="62.953728071317414" y2="52.83557657280318" stroke="#111111" stroke-width="1"></line><line x1="360.8604042960871" x2="360.04499605225556" y1="62.5315215147275" y2="52.404574046284324" stroke="#111111" stroke-width="1"></line><line x1="365.77897293647345" x2="365.06603487264994" y1="62.160510972799614" y2="52.02583411806626" stroke="#111111" stroke-width="1"></line><line x1="370.6869973482229" x2="370.07630979297755" y1="61.84011357344434" y2="51.69876177289109" stroke="#111111" stroke-width="1"></line><line x1="375.586053362495" x2="375.07742947421366" y1="61.56983167986107" y2="51.422849006524814" stroke="#111111" stroke-width="1"></line><line x1="380.47768413955697" x2="380.07096922579774" y1="61.34924956578959" y2="51.19767143174357" stroke="#111111" stroke-width="1"></line><line x1="385.3634061089367" x2="385.05847706953955" y1="61.178030682263966" y2="51.02288548814448" stroke="#111111" stroke-width="1"></line><line x1="390.2447146332445" x2="390.04147952143705" y1="61.0559154743392" y2="50.89822621338794" stroke="#111111" stroke-width="1"></line><line x1="395.12308945731905" x2="395.0214871543465" y1="60.98271971522354" y2="50.82350554262399" stroke="#111111" stroke-width="1"></line><line x1="400.00000000000006" x2="400.00000000000006" y1="60.958333333333314" y2="50.798611111111086" stroke="#111111" stroke-width="1"></line><line x1="404.8769105426808" x2="404.9785128456533" y1="60.98271971522354" y2="50.82350554262399" stroke="#111111" stroke-width="1"></line><line x1="409.7552853667556" x2="409.958520478563" y1="61.0559154743392" y2="50.89822621338794" stroke="#111111" stroke-width="1"></line><line x1="414.63659389106334" x2="414.9415229304605" y1="61.178030682263966" y2="51.02288548814448" stroke="#111111" stroke-width="1"></line><line x1="419.5223158604431" x2="419.9290307742024" y1="61.34924956578959" y2="51.19767143174357" stroke="#111111" stroke-width="1"></line><line x1="424.41394663750503" x2="424.9225705257864" y1="61.56983167986107" y2="51.422849006524814" stroke="#111111" stroke-width="1"></line><line x1="429.3130026517772" x2="429.9236902070225" y1="61.84011357344434" y2="51.69876177289109" stroke="#111111" stroke-width="1"></line><line x1="434.22102706352655" x2="434.93396512735" y1="62.160510972799614" y2="52.02583411806626" stroke="#111111" stroke-width="1"></line><line x1="439.13959570391273" x2="439.9550039477443" y1="62.5315215147275" y2="52.404574046284324" stroke="#111111" stroke-width="1"></line><line x1="444.07032335884793" x2="444.98845509549056" y1="62.953728071317414" y2="52.83557657280318" stroke="#111111" stroke-width="1"></line><line x1="449.01487047120656" x2="450.0360136060234" y1="63.42780271783448" y2="53.31952777445605" stroke="#111111" stroke-width="1"></line><line x1="453.9749503451221" x2="455.09942847731213" y1="63.95451140695661" y2="53.85720956126818" stroke="#111111" stroke-width="1"></line><line x1="458.95233694734395" x2="460.1805106337469" y1="64.53471942598907" y2="54.449505247363845" stroke="#111111" stroke-width="1"></line><line x1="463.9488734144577" x2="465.2811416105923" y1="65.1693977294301" y2="55.09740601545985" stroke="#111111" stroke-width="1"></line><line x1="468.96648139172805" x2="470.403283087389" y1="65.85963025790448" y2="55.802018388277475" stroke="#111111" stroke-width="1"></line><line x1="474.00717135011445" x2="475.5489874199085" y1="66.60662237676814" y2="56.56457284295078" stroke="#111111" stroke-width="1"></line><line x1="479.07305405355004" x2="480.7204093463323" y1="67.41171059454092" y2="57.386433731927184" stroke="#111111" stroke-width="1"></line><line x1="484.166353379995" x2="485.9198190754115" y1="68.27637375392487" y2="58.26911070713163" stroke="#111111" stroke-width="1"></line><line x1="489.2894207386224" x2="491.14961700401045" y1="69.20224592804414" y2="59.21427188487837" stroke="#111111" stroke-width="1"></line><line x1="494.4447513736898" x2="496.4123503606417" y1="70.1911313036673" y2="60.22375903916037" stroke="#111111" stroke-width="1"></line><line x1="499.6350029057762" x2="501.7107321329799" y1="71.24502139412704" y2="61.2996051731713" stroke="#111111" stroke-width="1"></line><line x1="504.8630165365249" x2="507.04766271436915" y1="72.36611500084507" y2="62.444054896696" stroke="#111111" stroke-width="1"></line><line x1="510.13184143832416" x2="512.4262548016226" y1="73.55684143832411" y2="63.65958813495587" stroke="#111111" stroke-width="1"></line><line x1="515.4447629715582" x2="517.8498622001323" y1="74.81988765926286" y2="64.94894781883085" stroke="#111111" stroke-width="1"></line><line x1="520.8053355274159" x2="523.3221133509037" y1="76.15823007232956" y2="66.31517236550309" stroke="#111111" stroke-width="1"></line><line x1="526.2174209949959" x2="528.8469505990583" y1="77.57517204636434" y2="67.76163396399693" stroke="#111111" stroke-width="1"></line><line x1="531.6852341132359" x2="534.428676490595" y1="79.07438835699509" y2="69.29208394776578" stroke="#111111" stroke-width="1"></line><line x1="537.2133963128726" x2="540.0720087360576" y1="80.65997817671848" y2="70.91070688873344" stroke="#111111" stroke-width="1"></line><line x1="542.8070001122303" x2="545.7821459479018" y1="82.33652866843977" y2="72.62218551569896" stroke="#111111" stroke-width="1"></line><line x1="548.4716867477496" x2="551.5648468883278" y1="84.10919185989383" y2="74.4317791903083" stroke="#111111" stroke-width="1"></line><line x1="554.213740560878" x2="557.4265268225629" y1="85.9837783173661" y2="76.34541953231121" stroke="#111111" stroke-width="1"></line><line x1="560.0402048237156" x2="563.374375757543" y1="87.9668722981641" y2="78.36982797104247" stroke="#111111" stroke-width="1"></line><line x1="565.9590253121419" x2="569.4165050061449" y1="90.06597468785804" y2="80.5126616605217" stroke="#111111" stroke-width="1"></line><line x1="571.9792302506697" x2="575.562130880892" y1="92.28968234404107" y2="82.78269655954193" stroke="#111111" stroke-width="1"></line><line x1="578.1111586089007" x2="581.8218077465863" y1="94.64791582418741" y2="85.19005990385801" stroke="#111111" stroke-width="1"></line><line x1="584.3667536887062" x2="588.2077277238876" y1="97.1522124346078" y2="87.7465293603288" stroke="#111111" stroke-width="1"></line><line x1="590.759946432211" x2="594.734111982882" y1="99.81610902862258" y2="90.46592380005222" stroke="#111111" stroke-width="1"></line><line x1="597.3071644761171" x2="601.417730402703" y1="102.65565057767452" y2="93.36462246470938" stroke="#111111" stroke-width="1"></line><line x1="604.0280214296038" x2="608.2786052093871" y1="105.69007899094373" y2="96.46226813658836" stroke="#111111" stroke-width="1"></line><line x1="610.9462711532524" x2="615.3409851356118" y1="108.94278695935822" y2="99.78274085434487" stroke="#111111" stroke-width="1"></line><line x1="618.0911634054794" x2="622.6347293097602" y1="112.44267318904099" y2="103.35554138047934" stroke="#111111" stroke-width="1"></line><line x1="625.4994288292161" x2="630.1973335964914" y1="116.22612699560017" y2="107.21781714134181" stroke="#111111" stroke-width="1"></line><line x1="633.2182921770757" x2="638.0770065974314" y1="120.34004115625777" y2="111.4174378470131" stroke="#111111" stroke-width="1"></line><line x1="641.310251097334" x2="646.3375479951951" y1="124.8465903409903" y2="116.01787347309426" stroke="#111111" stroke-width="1"></line><line x1="649.8610782971153" x2="655.0665174283052" y1="129.83123293800008" y2="121.1063627908751" stroke="#111111" stroke-width="1"></line><line x1="658.9941851246942" x2="664.389897314792" y1="135.41707431442768" y2="126.80857586264494" stroke="#111111" stroke-width="1"></line><line x1="668.898896138041" x2="674.5009564742502" y1="141.79314107850303" y2="133.31747735097184" stroke="#111111" stroke-width="1"></line><line x1="679.8938092638097" x2="685.7249302901391" y1="149.27774094646406" y2="140.95800638284874" stroke="#111111" stroke-width="1"></line><line x1="692.6000000000001" x2="698.6958333333334" y1="158.49166666666673" y2="150.36388888888894" stroke="#111111" stroke-width="1"></line><line x1="708.6206721352199" x2="715.0502694713704" y1="171.03784647305213" y2="163.17144744124073" stroke="#111111" stroke-width="1"></line><line x1="744.8324069586397" x2="752.0164154369447" y1="203.79259304136036" y2="196.60858456305533" stroke="#111111" stroke-width="1"></line><line x1="55.16759304136036" x2="51.57558880220785" y1="203.7925930413603" y2="200.2005888022078" stroke="#111111" stroke-width="1"></line><line x1="66.2446105407301" x2="62.76799190052935" y1="193.06049420018195" y2="189.3566972647672" stroke="#111111" stroke-width="1"></line><line x1="70.93397209324235" x2="67.50620096921364" y1="188.7162239810666" y2="184.96717423086938" stroke="#111111" stroke-width="1"></line><line x1="74.57247895625898" x2="71.18260894538668" y1="185.42298138624932" y2="181.63962702568944" stroke="#111111" stroke-width="1"></line><line x1="77.66706524342726" x2="74.30943050637961" y1="182.67383256233109" y2="178.86184123485538" stroke="#111111" stroke-width="1"></line><line x1="80.41408769581346" x2="77.08506777597819" y1="180.27242102914693" y2="176.43541499820054" stroke="#111111" stroke-width="1"></line><line x1="82.91425006850443" x2="79.61127350671808" y1="178.11804329316715" y2="174.25859582747103" stroke="#111111" stroke-width="1"></line><line x1="85.22737506463602" x2="81.94849355489265" y1="176.15087691347145" y2="172.27093813132012" stroke="#111111" stroke-width="1"></line><line x1="87.3924405307472" x2="84.13611178627582" y1="174.331944306396" y2="170.4330583095877" stroke="#111111" stroke-width="1"></line><line x1="89.4365206119806" x2="86.20148436835541" y1="172.6341715903365" y2="168.7176004610692" stroke="#111111" stroke-width="1"></line><line x1="91.37932786478012" x2="88.1645291967049" y1="171.03784647305213" y2="167.10464695714649" stroke="#111111" stroke-width="1"></line><line x1="708.6206721352199" x2="711.8354708032952" y1="171.03784647305213" y2="167.10464695714649" stroke="#111111" stroke-width="1"></line><line x1="710.5634793880192" x2="713.7985156316445" y1="172.6341715903364" y2="168.71760046106908" stroke="#111111" stroke-width="1"></line><line x1="712.6075594692525" x2="715.8638882137238" y1="174.33194430639566" y2="170.4330583095873" stroke="#111111" stroke-width="1"></line><line x1="714.7726249353636" x2="718.0515064451071" y1="176.15087691347117" y2="172.27093813131984" stroke="#111111" stroke-width="1"></line><line x1="717.0857499314948" x2="720.3887264932812" y1="178.11804329316658" y2="174.2585958274704" stroke="#111111" stroke-width="1"></line><line x1="719.5859123041857" x2="722.914932224021" y1="180.27242102914613" y2="176.43541499819975" stroke="#111111" stroke-width="1"></line><line x1="722.332934756572" x2="725.6905694936195" y1="182.67383256233035" y2="178.86184123485464" stroke="#111111" stroke-width="1"></line><line x1="725.4275210437397" x2="728.8173910546119" y1="185.42298138624807" y2="181.63962702568818" stroke="#111111" stroke-width="1"></line><line x1="729.0660279067563" x2="732.493799030785" y1="188.71622398106535" y2="184.96717423086812" stroke="#111111" stroke-width="1"></line><line x1="733.7553894592668" x2="737.2320080994674" y1="193.06049420017894" y2="189.35669726476414" stroke="#111111" stroke-width="1"></line><line x1="744.832398058664" x2="748.4244022051084" y1="203.7925841413849" y2="200.20057980952436" stroke="#111111" stroke-width="1"></line><text x="163.73457297739722" y="76.09414595479444" text-anchor="middle" font-family="Merriweather" font-size="1.2em">10%</text><text x="232.93511439238227" y="47.4303431771466" text-anchor="middle" font-family="Merriweather" font-size="1.2em">20%</text><text x="292.06208018540906" y="31.463356510304266" text-anchor="middle" font-family="Merriweather" font-size="1.2em">30%</text><text x="346.9005569895263" y="22.994702944320693" text-anchor="middle" font-family="Merriweather" font-size="1.2em">40%</text><text x="400.00000000000006" y="20.319444444444457" text-anchor="middle" font-family="Merriweather" font-size="1.2em">50%</text><text x="453.0994430104738" y="22.994702944320693" text-anchor="middle" font-family="Merriweather" font-size="1.2em">60%</text><text x="507.93791981459094" y="31.463356510304266" text-anchor="middle" font-family="Merriweather" font-size="1.2em">70%</text><text x="567.0648856076177" y="47.43034317714665" text-anchor="middle" font-family="Merriweather" font-size="1.2em">80%</text><text x="636.2654270226027" y="76.09414595479439" text-anchor="middle" font-family="Merriweather" font-size="1.2em">90%</text><text x="65.66093852017849" y="139.57225034580654" text-anchor="middle" font-family="Merriweather" font-size="1.0em">1%</text><text x="119.42296611491469" y="100.98308050729673" text-anchor="middle" font-family="Merriweather" font-size="1.0em">5%</text><text x="734.3390614798216" y="139.57225034580654" text-anchor="middle" font-family="Merriweather" font-size="1.0em">99%</text><text x="680.5770338850854" y="100.98308050729673" text-anchor="middle" font-family="Merriweather" font-size="1.0em">95%</text><text x="773.5684408718596" y="175.0565591281404" text-anchor="middle" font-family="Merriweather" font-size="1.2em">100%</text><text x="26.431559128140407" y="175.05655912814035" text-anchor="middle" font-family="Merriweather" font-size="1.2em">0%</text></svg>