<svg version="1.1" viewBox="0.0 0.0 823.0367454068241 240.51706036745406" fill="none" stroke="none" stroke-linecap="square" stroke-miterlimit="10" xmlns:xlink="http://www.w3.org/1999/xlink" xmlns="http://www.w3.org/2000/svg"><clipPath id="p.0"><path d="m0 0l823.03674 0l0 240.51706l-823.03674 0l0 -240.51706z" clip-rule="nonzero"/></clipPath><g clip-path="url(#p.0)"><path fill="#000000" fill-opacity="0.0" d="m0 0l823.03674 0l0 240.51706l-823.03674 0z" fill-rule="evenodd"/><path fill="#0471a6" fill-opacity="0.3452" d="m28.75853 118.23097l0 0c0 -24.709305 20.03085 -44.740158 44.740158 -44.740158l0 0c11.865829 0 23.245659 4.713684 31.63607 13.104088c8.390404 8.390404 13.104088 19.77024 13.104088 31.63607l0 0c0 24.709305 -20.030853 44.740158 -44.740158 44.740158l0 0c-24.709309 0 -44.740158 -20.030853 -44.740158 -44.740158z" fill-rule="evenodd"/><path stroke="#000000" stroke-width="1.0" stroke-linejoin="round" stroke-linecap="butt" d="m28.75853 118.23097l0 0c0 -24.709305 20.03085 -44.740158 44.740158 -44.740158l0 0c11.865829 0 23.245659 4.713684 31.63607 13.104088c8.390404 8.390404 13.104088 19.77024 13.104088 31.63607l0 0c0 24.709305 -20.030853 44.740158 -44.740158 44.740158l0 0c-24.709309 0 -44.740158 -20.030853 -44.740158 -44.740158z" fill-rule="evenodd"/><path fill="#000000" d="m62.967438 129.95097l8.859375 -11.9375l-7.8125 -10.96875l3.609375 0l4.15625 5.875q1.296875 1.828125 1.84375 2.8125q0.765625 -1.25 1.8125 -2.609375l4.609375 -6.078125l3.296875 0l-8.046875 10.796875l8.671875 12.109375l-3.75 0l-5.765625 -8.171875q-0.484375 -0.703125 -1.0 -1.53125q-0.765625 1.25 -1.09375 1.71875l-5.75 7.984375l-3.640625 0z" fill-rule="nonzero"/><path fill="#ffffff" d="m158.72179 118.23097l0 0c0 -24.709305 20.030853 -44.740158 44.740158 -44.740158l0 0c11.865829 0 23.245667 4.713684 31.636063 13.104088c8.390411 8.390404 13.104095 19.77024 13.104095 31.63607l0 0c0 24.709305 -20.030853 44.740158 -44.740158 44.740158l0 0c-24.709305 0 -44.740158 -20.030853 -44.740158 -44.740158z" fill-rule="evenodd"/><path stroke="#000000" stroke-width="1.0" stroke-linejoin="round" stroke-linecap="butt" d="m158.72179 118.23097l0 0c0 -24.709305 20.030853 -44.740158 44.740158 -44.740158l0 0c11.865829 0 23.245667 4.713684 31.636063 13.104088c8.390411 8.390404 13.104095 19.77024 13.104095 31.63607l0 0c0 24.709305 -20.030853 44.740158 -44.740158 44.740158l0 0c-24.709305 0 -44.740158 -20.030853 -44.740158 -44.740158z" fill-rule="evenodd"/><path fill="#000000" d="m189.70413 129.95097l0 -2.8125l11.734375 -14.671875q1.25 -1.5625 2.375 -2.71875l-12.78125 0l0 -2.703125l16.40625 0l0 2.703125l-12.859375 15.890625l-1.390625 1.609375l14.625 0l0 2.703125l-18.109375 0z" fill-rule="nonzero"/><path fill="#000000" d="m209.61038 123.95097q0 -2.875 1.25 -4.125q0.875 -0.875 2.375 -0.875q1.5 0 2.375 0.875q1.25 1.25 1.25 4.125l0 1.25q0 2.75 -1.25 4.0q-0.875 0.875 -2.375 0.875q-1.5 0 -2.375 -0.875q-1.25 -1.25 -1.25 -4.0l0 -1.25zm3.625 -3.625q-0.625 0 -1.125 0.5q-0.75 0.75 -0.75 3.0l0 1.375q0 2.125 0.875 3.0q0.5 0.5 1.0 0.5q0.5 0 1.0 -0.5q0.875 -0.875 0.875 -3.0l0 -1.375q0 -2.125 -0.875 -3.0q-0.5 -0.5 -1.0 -0.5z" fill-rule="nonzero"/><path fill="#ffffff" d="m288.68503 118.23097l0 0c0 -24.709305 20.030853 -44.740158 44.740173 -44.740158l0 0c11.865814 0 23.245667 4.713684 31.636078 13.104088c8.390381 8.390404 13.104065 19.77024 13.104065 31.63607l0 0c0 24.709305 -20.030853 44.740158 -44.740143 44.740158l0 0c-24.70932 0 -44.740173 -20.030853 -44.740173 -44.740158z" fill-rule="evenodd"/><path stroke="#000000" stroke-width="1.0" stroke-linejoin="round" stroke-linecap="butt" d="m288.68503 118.23097l0 0c0 -24.709305 20.030853 -44.740158 44.740173 -44.740158l0 0c11.865814 0 23.245667 4.713684 31.636078 13.104088c8.390381 8.390404 13.104065 19.77024 13.104065 31.63607l0 0c0 24.709305 -20.030853 44.740158 -44.740143 44.740158l0 0c-24.70932 0 -44.740173 -20.030853 -44.740173 -44.740158z" fill-rule="evenodd"/><path fill="#000000" d="m319.6674 129.95097l0 -2.8125l11.734375 -14.671875q1.25 -1.5625 2.375 -2.71875l-12.78125 0l0 -2.703125l16.40625 0l0 2.703125l-12.859375 15.890625l-1.390625 1.609375l14.625 0l0 2.703125l-18.109375 0z" fill-rule="nonzero"/><path fill="#000000" d="m343.07364 120.32597q0.625 -0.625 0.625 -1.25l1.0 0l0 10.875l-1.75 0l0 -8.375l-2.0 0l0 -0.75l0.625 0q1.0 0 1.5 -0.5z" fill-rule="nonzero"/><path fill="#ffffff" d="m572.0 118.23097l0 0c0 -24.709305 20.030823 -44.740158 44.740173 -44.740158l0 0c11.865784 0 23.245667 4.713684 31.636047 13.104088c8.390442 8.390404 13.104065 19.77024 13.104065 31.63607l0 0c0 24.709305 -20.030823 44.740158 -44.740112 44.740158l0 0c-24.70935 0 -44.740173 -20.030853 -44.740173 -44.740158z" fill-rule="evenodd"/><path stroke="#000000" stroke-width="1.0" stroke-linejoin="round" stroke-linecap="butt" d="m572.0 118.23097l0 0c0 -24.709305 20.030823 -44.740158 44.740173 -44.740158l0 0c11.865784 0 23.245667 4.713684 31.636047 13.104088c8.390442 8.390404 13.104065 19.77024 13.104065 31.63607l0 0c0 24.709305 -20.030823 44.740158 -44.740112 44.740158l0 0c-24.70935 0 -44.740173 -20.030853 -44.740173 -44.740158z" fill-rule="evenodd"/><path fill="#000000" d="m603.6353 129.95097l0 -2.8125l11.734375 -14.671875q1.25 -1.5625 2.375 -2.71875l-12.78125 0l0 -2.703125l16.40625 0l0 2.703125l-12.859375 15.890625l-1.390625 1.609375l14.625 0l0 2.703125l-18.109375 0z" fill-rule="nonzero"/><path fill="#ffffff" d="m701.96326 118.23097l0 0c0 -24.709305 20.030823 -44.740158 44.740173 -44.740158l0 0c11.865784 0 23.245667 4.713684 31.636047 13.104088c8.390381 8.390404 13.104065 19.77024 13.104065 31.63607l0 0c0 24.709305 -20.030823 44.740158 -44.740112 44.740158l0 0c-24.70935 0 -44.740173 -20.030853 -44.740173 -44.740158z" fill-rule="evenodd"/><path stroke="#000000" stroke-width="1.0" stroke-linejoin="round" stroke-linecap="butt" d="m701.96326 118.23097l0 0c0 -24.709305 20.030823 -44.740158 44.740173 -44.740158l0 0c11.865784 0 23.245667 4.713684 31.636047 13.104088c8.390381 8.390404 13.104065 19.77024 13.104065 31.63607l0 0c0 24.709305 -20.030823 44.740158 -44.740112 44.740158l0 0c-24.70935 0 -44.740173 -20.030853 -44.740173 -44.740158z" fill-rule="evenodd"/><path fill="#000000" d="m733.5986 129.95097l0 -2.8125l11.734375 -14.671875q1.25 -1.5625 2.375 -2.71875l-12.78125 0l0 -2.703125l16.40625 0l0 2.703125l-12.859375 15.890625l-1.390625 1.609375l14.625 0l0 2.703125l-18.109375 0z" fill-rule="nonzero"/><path fill="#000000" fill-opacity="0.0" d="m118.238846 118.23097l40.472443 0" fill-rule="evenodd"/><path stroke="#000000" stroke-width="4.0" stroke-linejoin="round" stroke-linecap="butt" d="m118.238846 118.23097l16.472443 0" fill-rule="evenodd"/><path fill="#000000" stroke="#000000" stroke-width="4.0" stroke-linecap="butt" d="m134.71129 124.8379l18.15239 -6.606926l-18.15239 -6.6069336z" fill-rule="evenodd"/><path fill="#000000" fill-opacity="0.0" d="m248.2021 118.23097l40.472427 0" fill-rule="evenodd"/><path stroke="#000000" stroke-width="4.0" stroke-linejoin="round" stroke-linecap="butt" d="m248.2021 118.23097l16.472427 0" fill-rule="evenodd"/><path fill="#000000" stroke="#000000" stroke-width="4.0" stroke-linecap="butt" d="m264.67453 124.8379l18.152405 -6.606926l-18.152405 -6.6069336z" fill-rule="evenodd"/><path fill="#000000" fill-opacity="0.0" d="m661.4803 118.23097l40.472473 0" fill-rule="evenodd"/><path stroke="#000000" stroke-width="4.0" stroke-linejoin="round" stroke-linecap="butt" d="m661.4803 118.23097l16.472473 0" fill-rule="evenodd"/><path fill="#000000" stroke="#000000" stroke-width="4.0" stroke-linecap="butt" d="m677.95276 124.8379l18.152405 -6.606926l-18.152405 -6.6069336z" fill-rule="evenodd"/><path fill="#000000" fill-opacity="0.0" d="m378.16534 118.23097l40.472443 0" fill-rule="evenodd"/><path stroke="#000000" stroke-width="4.0" stroke-linejoin="round" stroke-linecap="butt" d="m378.16534 118.23097l16.472443 0" fill-rule="evenodd"/><path fill="#000000" stroke="#000000" stroke-width="4.0" stroke-linecap="butt" d="m394.6378 124.8379l18.152405 -6.606926l-18.152405 -6.6069336z" fill-rule="evenodd"/><path fill="#000000" fill-opacity="0.0" d="m531.5276 118.23097l40.472412 0" fill-rule="evenodd"/><path stroke="#000000" stroke-width="4.0" stroke-linejoin="round" stroke-linecap="butt" d="m531.5276 118.23097l16.472412 0" fill-rule="evenodd"/><path fill="#000000" stroke="#000000" stroke-width="4.0" stroke-linecap="butt" d="m548.0 124.8379l18.152405 -6.606926l-18.152405 -6.6069336z" fill-rule="evenodd"/><path fill="#000000" d="m432.437 118.23097l0 0c0 -5.8794403 4.7662354 -10.645668 10.64566 -10.645668l0 0c2.8234253 0 5.531189 1.1215897 7.5276184 3.118042c1.99646 1.9964523 3.118042 4.704216 3.118042 7.527626l0 0c0 5.8794403 -4.766205 10.645676 -10.64566 10.645676l0 0c-5.879425 0 -10.64566 -4.7662354 -10.64566 -10.645676z" fill-rule="evenodd"/><path stroke="#000000" stroke-width="1.0" stroke-linejoin="round" stroke-linecap="butt" d="m432.437 118.23097l0 0c0 -5.8794403 4.7662354 -10.645668 10.64566 -10.645668l0 0c2.8234253 0 5.531189 1.1215897 7.5276184 3.118042c1.99646 1.9964523 3.118042 4.704216 3.118042 7.527626l0 0c0 5.8794403 -4.766205 10.645676 -10.64566 10.645676l0 0c-5.879425 0 -10.64566 -4.7662354 -10.64566 -10.645676z" fill-rule="evenodd"/><path fill="#000000" d="m464.437 118.23097l0 0c0 -5.8794403 4.7662354 -10.645668 10.64566 -10.645668l0 0c2.8234253 0 5.531189 1.1215897 7.5276184 3.118042c1.99646 1.9964523 3.118042 4.704216 3.118042 7.527626l0 0c0 5.8794403 -4.766205 10.645676 -10.64566 10.645676l0 0c-5.879425 0 -10.64566 -4.7662354 -10.64566 -10.645676z" fill-rule="evenodd"/><path stroke="#000000" stroke-width="1.0" stroke-linejoin="round" stroke-linecap="butt" d="m464.437 118.23097l0 0c0 -5.8794403 4.7662354 -10.645668 10.64566 -10.645668l0 0c2.8234253 0 5.531189 1.1215897 7.5276184 3.118042c1.99646 1.9964523 3.118042 4.704216 3.118042 7.527626l0 0c0 5.8794403 -4.766205 10.645676 -10.64566 10.645676l0 0c-5.879425 0 -10.64566 -4.7662354 -10.64566 -10.645676z" fill-rule="evenodd"/><path fill="#000000" d="m496.437 118.23097l0 0c0 -5.8794403 4.7662354 -10.645668 10.64566 -10.645668l0 0c2.8234253 0 5.5311584 1.1215897 7.5276184 3.118042c1.99646 1.9964523 3.118042 4.704216 3.118042 7.527626l0 0c0 5.8794403 -4.7662354 10.645676 -10.64566 10.645676l0 0c-5.879425 0 -10.64566 -4.7662354 -10.64566 -10.645676z" fill-rule="evenodd"/><path stroke="#000000" stroke-width="1.0" stroke-linejoin="round" stroke-linecap="butt" d="m496.437 118.23097l0 0c0 -5.8794403 4.7662354 -10.645668 10.64566 -10.645668l0 0c2.8234253 0 5.5311584 1.1215897 7.5276184 3.118042c1.99646 1.9964523 3.118042 4.704216 3.118042 7.527626l0 0c0 5.8794403 -4.7662354 10.645676 -10.64566 10.645676l0 0c-5.879425 0 -10.64566 -4.7662354 -10.64566 -10.645676z" fill-rule="evenodd"/><path fill="#000000" fill-opacity="0.0" d="m745.0656 111.74541l37.637817 0l0 38.582672l-37.637817 0z" fill-rule="evenodd"/><path fill="#000000" d="m758.22186 136.10541l0 -10.109375l-3.78125 0l0 -1.34375l9.078125 0l0 1.34375l-3.78125 0l0 10.109375l-1.515625 0z" fill-rule="nonzero"/><path fill="#000000" fill-opacity="0.0" d="m614.0816 110.23097l47.40155 0l0 38.582672l-47.40155 0z" fill-rule="evenodd"/><path fill="#000000" d="m627.23785 134.59097l0 -10.109375l-3.78125 0l0 -1.34375l9.078125 0l0 1.34375l-3.78125 0l0 10.109375l-1.515625 0zm5.25 -3.4375l0 -1.421875l4.3125 0l0 1.421875l-4.3125 0zm10.78125 3.4375l-1.40625 0l0 -8.96875q-0.515625 0.484375 -1.34375 0.96875q-0.8125 0.484375 -1.46875 0.734375l0 -1.359375q1.171875 -0.5625 2.046875 -1.34375q0.890625 -0.796875 1.265625 -1.53125l0.90625 0l0 11.5z" fill-rule="nonzero"/></g></svg>