<svg version="1.1" viewBox="0.0 0.0 823.0367454068241 240.51706036745406" fill="none" stroke="none" stroke-linecap="square" stroke-miterlimit="10" xmlns:xlink="http://www.w3.org/1999/xlink" xmlns="http://www.w3.org/2000/svg"><clipPath id="p.0"><path d="m0 0l823.03674 0l0 240.51706l-823.03674 0l0 -240.51706z" clip-rule="nonzero"/></clipPath><g clip-path="url(#p.0)"><path fill="#000000" fill-opacity="0.0" d="m0 0l823.03674 0l0 240.51706l-823.03674 0z" fill-rule="evenodd"/><path fill="#0471a6" fill-opacity="0.3452" d="m28.75853 118.23097l0 0c0 -24.709305 20.03085 -44.740158 44.740158 -44.740158l0 0c11.865829 0 23.245659 4.713684 31.63607 13.104088c8.390404 8.390404 13.104088 19.77024 13.104088 31.63607l0 0c0 24.709305 -20.030853 44.740158 -44.740158 44.740158l0 0c-24.709309 0 -44.740158 -20.030853 -44.740158 -44.740158z" fill-rule="evenodd"/><path stroke="#000000" stroke-width="1.0" stroke-linejoin="round" stroke-linecap="butt" d="m28.75853 118.23097l0 0c0 -24.709305 20.03085 -44.740158 44.740158 -44.740158l0 0c11.865829 0 23.245659 4.713684 31.63607 13.104088c8.390404 8.390404 13.104088 19.77024 13.104088 31.63607l0 0c0 24.709305 -20.030853 44.740158 -44.740158 44.740158l0 0c-24.709309 0 -44.740158 -20.030853 -44.740158 -44.740158z" fill-rule="evenodd"/><path fill="#000000" d="m62.967438 129.95097l8.859375 -11.9375l-7.8125 -10.96875l3.609375 0l4.15625 5.875q1.296875 1.828125 1.84375 2.8125q0.765625 -1.25 1.8125 -2.609375l4.609375 -6.078125l3.296875 0l-8.046875 10.796875l8.671875 12.109375l-3.75 0l-5.765625 -8.171875q-0.484375 -0.703125 -1.0 -1.53125q-0.765625 1.25 -1.09375 1.71875l-5.75 7.984375l-3.640625 0z" fill-rule="nonzero"/><path fill="#ffffff" d="m158.72179 118.23097l0 0c0 -24.709305 20.030853 -44.740158 44.740158 -44.740158l0 0c11.865829 0 23.245667 4.713684 31.636063 13.104088c8.390411 8.390404 13.104095 19.77024 13.104095 31.63607l0 0c0 24.709305 -20.030853 44.740158 -44.740158 44.740158l0 0c-24.709305 0 -44.740158 -20.030853 -44.740158 -44.740158z" fill-rule="evenodd"/><path stroke="#000000" stroke-width="1.0" stroke-linejoin="round" stroke-linecap="butt" d="m158.72179 118.23097l0 0c0 -24.709305 20.030853 -44.740158 44.740158 -44.740158l0 0c11.865829 0 23.245667 4.713684 31.636063 13.104088c8.390411 8.390404 13.104095 19.77024 13.104095 31.63607l0 0c0 24.709305 -20.030853 44.740158 -44.740158 44.740158l0 0c-24.709305 0 -44.740158 -20.030853 -44.740158 -44.740158z" fill-rule="evenodd"/><path fill="#000000" d="m189.70413 129.95097l0 -2.8125l11.734375 -14.671875q1.25 -1.5625 2.375 -2.71875l-12.78125 0l0 -2.703125l16.40625 0l0 2.703125l-12.859375 15.890625l-1.390625 1.609375l14.625 0l0 2.703125l-18.109375 0z" fill-rule="nonzero"/><path fill="#000000" d="m209.61038 123.95097q0 -2.875 1.25 -4.125q0.875 -0.875 2.375 -0.875q1.5 0 2.375 0.875q1.25 1.25 1.25 4.125l0 1.25q0 2.75 -1.25 4.0q-0.875 0.875 -2.375 0.875q-1.5 0 -2.375 -0.875q-1.25 -1.25 -1.25 -4.0l0 -1.25zm3.625 -3.625q-0.625 0 -1.125 0.5q-0.75 0.75 -0.75 3.0l0 1.375q0 2.125 0.875 3.0q0.5 0.5 1.0 0.5q0.5 0 1.0 -0.5q0.875 -0.875 0.875 -3.0l0 -1.375q0 -2.125 -0.875 -3.0q-0.5 -0.5 -1.0 -0.5z" fill-rule="nonzero"/><path fill="#ffffff" d="m288.68503 118.23097l0 0c0 -24.709305 20.030853 -44.740158 44.740173 -44.740158l0 0c11.865814 0 23.245667 4.713684 31.636078 13.104088c8.390381 8.390404 13.104065 19.77024 13.104065 31.63607l0 0c0 24.709305 -20.030853 44.740158 -44.740143 44.740158l0 0c-24.70932 0 -44.740173 -20.030853 -44.740173 -44.740158z" fill-rule="evenodd"/><path stroke="#000000" stroke-width="1.0" stroke-linejoin="round" stroke-linecap="butt" d="m288.68503 118.23097l0 0c0 -24.709305 20.030853 -44.740158 44.740173 -44.740158l0 0c11.865814 0 23.245667 4.713684 31.636078 13.104088c8.390381 8.390404 13.104065 19.77024 13.104065 31.63607l0 0c0 24.709305 -20.030853 44.740158 -44.740143 44.740158l0 0c-24.70932 0 -44.740173 -20.030853 -44.740173 -44.740158z" fill-rule="evenodd"/><path fill="#000000" d="m319.6674 129.95097l0 -2.8125l11.734375 -14.671875q1.25 -1.5625 2.375 -2.71875l-12.78125 0l0 -2.703125l16.40625 0l0 2.703125l-12.859375 15.890625l-1.390625 1.609375l14.625 0l0 2.703125l-18.109375 0z" fill-rule="nonzero"/><path fill="#000000" d="m343.07364 120.32597q0.625 -0.625 0.625 -1.25l1.0 0l0 10.875l-1.75 0l0 -8.375l-2.0 0l0 -0.75l0.625 0q1.0 0 1.5 -0.5z" fill-rule="nonzero"/><path fill="#ffffff" d="m572.0 118.23097l0 0c0 -24.709305 20.030823 -44.740158 44.740173 -44.740158l0 0c11.865784 0 23.245667 4.713684 31.636047 13.104088c8.390442 8.390404 13.104065 19.77024 13.104065 31.63607l0 0c0 24.709305 -20.030823 44.740158 -44.740112 44.740158l0 0c-24.70935 0 -44.740173 -20.030853 -44.740173 -44.740158z" fill-rule="evenodd"/><path stroke="#000000" stroke-width="1.0" stroke-linejoin="round" stroke-linecap="butt" d="m572.0 118.23097l0 0c0 -24.709305 20.030823 -44.740158 44.740173 -44.740158l0 0c11.865784 0 23.245667 4.713684 31.636047 13.104088c8.390442 8.390404 13.104065 19.77024 13.104065 31.63607l0 0c0 24.709305 -20.030823 44.740158 -44.740112 44.740158l0 0c-24.70935 0 -44.740173 -20.030853 -44.740173 -44.740158z" fill-rule="evenodd"/><path fill="#000000" d="m603.6353 129.95097l0 -2.8125l11.734375 -14.671875q1.25 -1.5625 2.375 -2.71875l-12.78125 0l0 -2.703125l16.40625 0l0 2.703125l-12.859375 15.890625l-1.390625 1.609375l14.625 0l0 2.703125l-18.109375 0z" fill-rule="nonzero"/><path fill="#ffffff" d="m701.96326 118.23097l0 0c0 -24.709305 20.030823 -44.740158 44.740173 -44.740158l0 0c11.865784 0 23.245667 4.713684 31.636047 13.104088c8.390381 8.390404 13.104065 19.77024 13.104065 31.63607l0 0c0 24.709305 -20.030823 44.740158 -44.740112 44.740158l0 0c-24.70935 0 -44.740173 -20.030853 -44.740173 -44.740158z" fill-rule="evenodd"/><path stroke="#000000" stroke-width="1.0" stroke-linejoin="round" stroke-linecap="butt" d="m701.96326 118.23097l0 0c0 -24.709305 20.030823 -44.740158 44.740173 -44.740158l0 0c11.865784 0 23.245667 4.713684 31.636047 13.104088c8.390381 8.390404 13.104065 19.77024 13.104065 31.63607l0 0c0 24.709305 -20.030823 44.740158 -44.740112 44.740158l0 0c-24.70935 0 -44.740173 -20.030853 -44.740173 -44.740158z" fill-rule="evenodd"/><path fill="#000000" d="m733.5986 129.95097l0 -2.8125l11.734375 -14.671875q1.25 -1.5625 2.375 -2.71875l-12.78125 0l0 -2.703125l16.40625 0l0 2.703125l-12.859375 15.890625l-1.390625 1.609375l14.625 0l0 2.703125l-18.109375 0z" fill-rule="nonzero"/><path fill="#000000" fill-opacity="0.0" d="m248.2021 118.23097l40.472427 0" fill-rule="evenodd"/><path stroke="#000000" stroke-width="4.0" stroke-linejoin="round" stroke-linecap="butt" d="m272.2021 118.23097l16.472443 0" fill-rule="evenodd"/><path fill="#000000" stroke="#000000" stroke-width="4.0" stroke-linecap="butt" d="m272.2021 111.62404l-18.152374 6.6069336l18.152374 6.606926z" fill-rule="evenodd"/><path fill="#000000" fill-opacity="0.0" d="m661.4803 118.23097l40.472473 0" fill-rule="evenodd"/><path stroke="#000000" stroke-width="4.0" stroke-linejoin="round" stroke-linecap="butt" d="m685.4803 118.23097l16.472473 0" fill-rule="evenodd"/><path fill="#000000" stroke="#000000" stroke-width="4.0" stroke-linecap="butt" d="m685.4803 111.62404l-18.152344 6.6069336l18.152344 6.606926z" fill-rule="evenodd"/><path fill="#000000" fill-opacity="0.0" d="m378.16534 118.23097l40.472443 0" fill-rule="evenodd"/><path stroke="#000000" stroke-width="4.0" stroke-linejoin="round" stroke-linecap="butt" d="m402.16534 118.23097l16.472443 0" fill-rule="evenodd"/><path fill="#000000" stroke="#000000" stroke-width="4.0" stroke-linecap="butt" d="m402.16534 111.62404l-18.152374 6.6069336l18.152374 6.606926z" fill-rule="evenodd"/><path fill="#000000" fill-opacity="0.0" d="m531.5276 118.23097l40.472412 0" fill-rule="evenodd"/><path stroke="#000000" stroke-width="4.0" stroke-linejoin="round" stroke-linecap="butt" d="m555.5276 118.23097l16.472412 0" fill-rule="evenodd"/><path fill="#000000" stroke="#000000" stroke-width="4.0" stroke-linecap="butt" d="m555.5276 111.62404l-18.152405 6.6069336l18.152405 6.606926z" fill-rule="evenodd"/><path fill="#000000" d="m432.437 118.23097l0 0c0 -5.8794403 4.7662354 -10.645668 10.64566 -10.645668l0 0c2.8234253 0 5.531189 1.1215897 7.5276184 3.118042c1.99646 1.9964523 3.118042 4.704216 3.118042 7.527626l0 0c0 5.8794403 -4.766205 10.645676 -10.64566 10.645676l0 0c-5.879425 0 -10.64566 -4.7662354 -10.64566 -10.645676z" fill-rule="evenodd"/><path stroke="#000000" stroke-width="1.0" stroke-linejoin="round" stroke-linecap="butt" d="m432.437 118.23097l0 0c0 -5.8794403 4.7662354 -10.645668 10.64566 -10.645668l0 0c2.8234253 0 5.531189 1.1215897 7.5276184 3.118042c1.99646 1.9964523 3.118042 4.704216 3.118042 7.527626l0 0c0 5.8794403 -4.766205 10.645676 -10.64566 10.645676l0 0c-5.879425 0 -10.64566 -4.7662354 -10.64566 -10.645676z" fill-rule="evenodd"/><path fill="#000000" d="m464.437 118.23097l0 0c0 -5.8794403 4.7662354 -10.645668 10.64566 -10.645668l0 0c2.8234253 0 5.531189 1.1215897 7.5276184 3.118042c1.99646 1.9964523 3.118042 4.704216 3.118042 7.527626l0 0c0 5.8794403 -4.766205 10.645676 -10.64566 10.645676l0 0c-5.879425 0 -10.64566 -4.7662354 -10.64566 -10.645676z" fill-rule="evenodd"/><path stroke="#000000" stroke-width="1.0" stroke-linejoin="round" stroke-linecap="butt" d="m464.437 118.23097l0 0c0 -5.8794403 4.7662354 -10.645668 10.64566 -10.645668l0 0c2.8234253 0 5.531189 1.1215897 7.5276184 3.118042c1.99646 1.9964523 3.118042 4.704216 3.118042 7.527626l0 0c0 5.8794403 -4.766205 10.645676 -10.64566 10.645676l0 0c-5.879425 0 -10.64566 -4.7662354 -10.64566 -10.645676z" fill-rule="evenodd"/><path fill="#000000" d="m496.437 118.23097l0 0c0 -5.8794403 4.7662354 -10.645668 10.64566 -10.645668l0 0c2.8234253 0 5.5311584 1.1215897 7.5276184 3.118042c1.99646 1.9964523 3.118042 4.704216 3.118042 7.527626l0 0c0 5.8794403 -4.7662354 10.645676 -10.64566 10.645676l0 0c-5.879425 0 -10.64566 -4.7662354 -10.64566 -10.645676z" fill-rule="evenodd"/><path stroke="#000000" stroke-width="1.0" stroke-linejoin="round" stroke-linecap="butt" d="m496.437 118.23097l0 0c0 -5.8794403 4.7662354 -10.645668 10.64566 -10.645668l0 0c2.8234253 0 5.5311584 1.1215897 7.5276184 3.118042c1.99646 1.9964523 3.118042 4.704216 3.118042 7.527626l0 0c0 5.8794403 -4.7662354 10.645676 -10.64566 10.645676l0 0c-5.879425 0 -10.64566 -4.7662354 -10.64566 -10.645676z" fill-rule="evenodd"/><path fill="#000000" fill-opacity="0.0" d="m745.0656 111.74541l31.118103 0l0 38.582672l-31.118103 0z" fill-rule="evenodd"/><path fill="#000000" d="m758.22186 136.10541l0 -10.109375l-3.78125 0l0 -1.34375l9.078125 0l0 1.34375l-3.78125 0l0 10.109375l-1.515625 0z" fill-rule="nonzero"/><path fill="#000000" fill-opacity="0.0" d="m614.0816 110.23097l47.40155 0l0 38.582672l-47.40155 0z" fill-rule="evenodd"/><path fill="#000000" d="m627.23785 134.59097l0 -10.109375l-3.78125 0l0 -1.34375l9.078125 0l0 1.34375l-3.78125 0l0 10.109375l-1.515625 0zm5.25 -3.4375l0 -1.421875l4.3125 0l0 1.421875l-4.3125 0zm10.78125 3.4375l-1.40625 0l0 -8.96875q-0.515625 0.484375 -1.34375 0.96875q-0.8125 0.484375 -1.46875 0.734375l0 -1.359375q1.171875 -0.5625 2.046875 -1.34375q0.890625 -0.796875 1.265625 -1.53125l0.90625 0l0 11.5z" fill-rule="nonzero"/><path fill="#000000" fill-opacity="0.0" d="m73.49869 162.97113c0 12.5 32.48819 24.992126 64.97638 25.0c32.48819 0.007873535 64.97638 -12.468506 64.97638 -24.937012" fill-rule="evenodd"/><path stroke="#000000" stroke-width="4.0" stroke-linejoin="round" stroke-linecap="butt" d="m73.49869 162.97113c0 12.5 32.48819 24.992126 64.97638 25.0c16.244095 0.0039367676 32.48819 -3.1131897 44.671265 -7.789871c0.76142883 -0.2922821 1.5070038 -0.5906677 2.2357483 -0.89476013l0.29580688 -0.12475586" fill-rule="evenodd"/><path fill="#000000" stroke="#000000" stroke-width="4.0" stroke-linecap="butt" d="m190.11765 184.05461l9.003265 -17.090988l-17.882782 7.3052673z" fill-rule="evenodd"/><path fill="#000000" fill-opacity="0.0" d="m73.48819 162.90814c6.2449875 0 -5.671829 7.5104065 12.489975 16.089233c18.161797 8.578827 66.40221 18.226074 123.72351 16.089233c57.321304 -2.1368256 123.723526 -16.05774 123.723526 -32.11548" fill-rule="evenodd"/><path stroke="#000000" stroke-width="4.0" stroke-linejoin="round" stroke-linecap="butt" d="m73.48819 162.90814c6.2449875 0 -5.6718216 7.5104065 12.489975 16.089233c18.161797 8.578827 66.40221 18.226074 123.723526 16.089233c28.660645 -1.0684052 59.591522 -5.08284 83.35724 -10.837387c5.9414062 -1.4386444 11.435028 -2.9860382 16.333405 -4.623337c1.2245789 -0.40934753 2.4119568 -0.82429504 3.559845 -1.2445679c0.2869873 -0.10505676 0.57147217 -0.21046448 0.8534546 -0.31619263l0.7373352 -0.27980042" fill-rule="evenodd"/><path fill="#000000" stroke="#000000" stroke-width="4.0" stroke-linecap="butt" d="m318.62112 182.9834l10.2034 -16.402786l-18.359772 6.006653z" fill-rule="evenodd"/><path fill="#000000" fill-opacity="0.0" d="m73.49869 162.97113c0 26.137787 135.81102 52.267715 271.62204 52.27559c135.81104 0.007873535 271.62207 -26.106293 271.62207 -52.2126" fill-rule="evenodd"/><path stroke="#000000" stroke-width="4.0" stroke-linejoin="round" stroke-linecap="butt" d="m73.49869 162.97113c0 26.137787 135.81102 52.267715 271.62204 52.27559c67.90552 0.0039367676 135.81104 -6.522644 186.74017 -16.313492c25.464539 -4.8954163 46.68506 -10.606903 61.539368 -16.726181c1.8568115 -0.76490784 3.6140747 -1.5361938 5.2678223 -2.3130646c0.20672607 -0.097091675 0.4118042 -0.1942749 0.6152344 -0.29156494l0.06573486 -0.031707764" fill-rule="evenodd"/><path fill="#000000" stroke="#000000" stroke-width="4.0" stroke-linecap="butt" d="m603.9014 184.35901l8.603394 -17.295746l-17.708069 7.719162z" fill-rule="evenodd"/><path fill="#000000" fill-opacity="0.0" d="m73.49869 162.97113c0 31.178482 168.29921 62.349075 336.59842 62.35695c168.2992 0.007873535 336.59845 -31.146973 336.59845 -62.29396" fill-rule="evenodd"/><path stroke="#000000" stroke-width="4.0" stroke-linejoin="round" stroke-linecap="butt" d="m73.49869 162.97113c0 31.178482 168.29921 62.349075 336.59842 62.35695c84.1496 0.0039367676 168.2992 -7.7828064 231.41144 -19.463913c31.556091 -5.8405457 57.852844 -12.654678 76.26056 -19.955368c4.6019287 -1.82518 8.710815 -3.6807556 12.285522 -5.559143l0.014526367 -0.0076904297" fill-rule="evenodd"/><path fill="#000000" stroke="#000000" stroke-width="4.0" stroke-linecap="butt" d="m734.83374 184.91904l7.810791 -17.667847l-17.340088 8.513718z" fill-rule="evenodd"/></g></svg>