<svg version="1.1" viewBox="0.0 0.0 202.10498687664042 273.246719160105" fill="none" stroke="none" stroke-linecap="square" stroke-miterlimit="10" xmlns:xlink="http://www.w3.org/1999/xlink" xmlns="http://www.w3.org/2000/svg"><clipPath id="p.0"><path d="m0 0l202.10498 0l0 273.2467l-202.10498 0l0 -273.2467z" clip-rule="nonzero"/></clipPath><g clip-path="url(#p.0)"><path fill="#000000" fill-opacity="0.0" d="m0 0l202.10498 0l0 273.2467l-202.10498 0z" fill-rule="evenodd"/><path fill="#ff7f0e" fill-opacity="0.4667" d="m53.34934 208.04855l0 0c0 -13.80278 11.189358 -24.992126 24.99213 -24.992126l0 0c6.628319 0 12.985168 2.6330872 17.672096 7.3200226c4.6869354 4.6869354 7.3200226 11.043777 7.3200226 17.672104l0 0c0 13.802765 -11.189354 24.992126 -24.992119 24.992126l0 0c-13.8027725 0 -24.99213 -11.189362 -24.99213 -24.992126z" fill-rule="evenodd"/><path stroke="#000000" stroke-width="1.0" stroke-linejoin="round" stroke-linecap="butt" d="m53.34934 208.04855l0 0c0 -13.80278 11.189358 -24.992126 24.99213 -24.992126l0 0c6.628319 0 12.985168 2.6330872 17.672096 7.3200226c4.6869354 4.6869354 7.3200226 11.043777 7.3200226 17.672104l0 0c0 13.802765 -11.189354 24.992126 -24.992119 24.992126l0 0c-13.8027725 0 -24.99213 -11.189362 -24.99213 -24.992126z" fill-rule="evenodd"/><path fill="#000000" d="m78.88992 204.66104l0 8.1875l-1.140625 0l0 -8.1875l-2.875 0l0 -0.984375l6.921875 0l-0.109375 0.984375l-2.796875 0zm2.2991638 -2.2693634l-5.71875 0l0 -0.859375l5.71875 0l0 0.859375z" fill-rule="nonzero"/><path fill="#ff7f0e" fill-opacity="0.4667" d="m53.34934 66.93306l0 0c0 -13.802765 11.189358 -24.992123 24.99213 -24.992123l0 0c6.628319 0 12.985168 2.633091 17.672096 7.3200226c4.6869354 4.6869354 7.3200226 11.043781 7.3200226 17.6721l0 0c0 13.8027725 -11.189354 24.992126 -24.992119 24.992126l0 0c-13.8027725 0 -24.99213 -11.189354 -24.99213 -24.992126z" fill-rule="evenodd"/><path stroke="#000000" stroke-width="1.0" stroke-linejoin="round" stroke-linecap="butt" d="m53.34934 66.93306l0 0c0 -13.802765 11.189358 -24.992123 24.99213 -24.992123l0 0c6.628319 0 12.985168 2.633091 17.672096 7.3200226c4.6869354 4.6869354 7.3200226 11.043781 7.3200226 17.6721l0 0c0 13.8027725 -11.189354 24.992126 -24.992119 24.992126l0 0c-13.8027725 0 -24.99213 -11.189354 -24.99213 -24.992126z" fill-rule="evenodd"/><path fill="#000000" d="m78.88992 63.545563l0 8.1875l-1.140625 0l0 -8.1875l-2.875 0l0 -0.984375l6.921875 0l-0.109375 0.984375l-2.796875 0z" fill-rule="nonzero"/><path fill="#000000" d="m8.728338 132.7034l0 0c2.6440096 0 4.787402 2.143402 4.787402 4.7873993l0 0c0 1.2696991 -0.50438595 2.4873962 -1.4021978 3.3852081c-0.8978119 0.8978119 -2.1155062 1.4022064 -3.3852043 1.4022064l0 0c-2.6440086 0 -4.787401 -2.143402 -4.787401 -4.7874146l0 0c0 -2.6439972 2.1433926 -4.7873993 4.787401 -4.7873993z" fill-rule="evenodd"/><path stroke="#000000" stroke-width="1.0" stroke-linejoin="round" stroke-linecap="butt" d="m8.728338 132.7034l0 0c2.6440096 0 4.787402 2.143402 4.787402 4.7873993l0 0c0 1.2696991 -0.50438595 2.4873962 -1.4021978 3.3852081c-0.8978119 0.8978119 -2.1155062 1.4022064 -3.3852043 1.4022064l0 0c-2.6440086 0 -4.787401 -2.143402 -4.787401 -4.7874146l0 0c0 -2.6439972 2.1433926 -4.7873993 4.787401 -4.7873993z" fill-rule="evenodd"/><path fill="#ff7f0e" fill-opacity="0.4667" d="m143.16719 101.85957l0 0c0 -13.8027725 11.189362 -24.992126 24.992126 -24.992126l0 0c6.6283264 0 12.985168 2.6330872 17.672104 7.3200226c4.6869354 4.6869354 7.3200226 11.043777 7.3200226 17.672104l0 0c0 13.8027725 -11.189362 24.992126 -24.992126 24.992126l0 0c-13.802765 0 -24.992126 -11.189354 -24.992126 -24.992126z" fill-rule="evenodd"/><path stroke="#000000" stroke-width="1.0" stroke-linejoin="round" stroke-linecap="butt" d="m143.16719 101.85957l0 0c0 -13.8027725 11.189362 -24.992126 24.992126 -24.992126l0 0c6.6283264 0 12.985168 2.6330872 17.672104 7.3200226c4.6869354 4.6869354 7.3200226 11.043777 7.3200226 17.672104l0 0c0 13.8027725 -11.189362 24.992126 -24.992126 24.992126l0 0c-13.802765 0 -24.992126 -11.189354 -24.992126 -24.992126z" fill-rule="evenodd"/><path fill="#000000" d="m170.28589 102.03457q0 -1.203125 -0.25 -1.921875q-0.25 -0.71875 -0.671875 -1.078125q-0.40625 -0.359375 -0.90625 -0.484375q-0.484375 -0.125 -0.953125 -0.125l-1.078125 0l0 7.3125l1.09375 0q0.5 0 0.984375 -0.15625q0.484375 -0.15625 0.890625 -0.5625q0.40625 -0.40625 0.640625 -1.125q0.25 -0.71875 0.25 -1.859375zm1.234375 0q0 1.4375 -0.375 2.34375q-0.359375 0.90625 -0.984375 1.40625q-0.609375 0.5 -1.34375 0.6875q-0.71875 0.1875 -1.4375 0.1875l-2.109375 0l0 -9.171875l1.96875 0q0.796875 0 1.5625 0.1875q0.765625 0.171875 1.375 0.65625q0.625 0.484375 0.984375 1.375q0.359375 0.890625 0.359375 2.328125zm-0.7200012 -5.8318634l-5.71875 0l0 -0.859375l5.71875 0l0 0.859375z" fill-rule="nonzero"/><path fill="#ff7f0e" fill-opacity="0.4667" d="m143.16719 30.59448l0 0c0 -13.802771 11.189362 -24.992126 24.992126 -24.992126l0 0c6.6283264 0 12.985168 2.6330914 17.672104 7.320024c4.6869354 4.6869335 7.3200226 11.043777 7.3200226 17.672102l0 0c0 13.802771 -11.189362 24.992125 -24.992126 24.992125l0 0c-13.802765 0 -24.992126 -11.189354 -24.992126 -24.992125z" fill-rule="evenodd"/><path stroke="#000000" stroke-width="1.0" stroke-linejoin="round" stroke-linecap="butt" d="m143.16719 30.59448l0 0c0 -13.802771 11.189362 -24.992126 24.992126 -24.992126l0 0c6.6283264 0 12.985168 2.6330914 17.672104 7.320024c4.6869354 4.6869335 7.3200226 11.043777 7.3200226 17.672102l0 0c0 13.802771 -11.189362 24.992125 -24.992126 24.992125l0 0c-13.802765 0 -24.992126 -11.189354 -24.992126 -24.992125z" fill-rule="evenodd"/><path fill="#000000" d="m170.28589 30.76948q0 -1.203125 -0.25 -1.921875q-0.25 -0.71875 -0.671875 -1.078125q-0.40625 -0.359375 -0.90625 -0.484375q-0.484375 -0.125 -0.953125 -0.125l-1.078125 0l0 7.312502l1.09375 0q0.5 0 0.984375 -0.15625q0.484375 -0.15625 0.890625 -0.5625q0.40625 -0.40625 0.640625 -1.125q0.25 -0.7187519 0.25 -1.8593769zm1.234375 0q0 1.4375019 -0.375 2.343752q-0.359375 0.90625 -0.984375 1.40625q-0.609375 0.5 -1.34375 0.6875q-0.71875 0.1875 -1.4375 0.1875l-2.109375 0l0 -9.171877l1.96875 0q0.796875 0 1.5625 0.1875q0.765625 0.171875 1.375 0.65625q0.625 0.484375 0.984375 1.375q0.359375 0.890625 0.359375 2.328125z" fill-rule="nonzero"/><path fill="#000000" fill-opacity="0.0" d="m12.102434 134.11697l48.566933 -49.51181" fill-rule="evenodd"/><path stroke="#000000" stroke-width="1.0" stroke-linejoin="round" stroke-linecap="butt" d="m12.102434 134.11697l44.365356 -45.228493" fill-rule="evenodd"/><path fill="#000000" stroke="#000000" stroke-width="1.0" stroke-linecap="butt" d="m57.64694 90.04513l1.9987106 -4.396332l-4.357006 2.0830383z" fill-rule="evenodd"/><path fill="#000000" fill-opacity="0.0" d="m12.113543 140.876l48.566933 49.51181" fill-rule="evenodd"/><path stroke="#000000" stroke-width="1.0" stroke-linejoin="round" stroke-linecap="butt" d="m12.113543 140.87602l44.365356 45.22847" fill-rule="evenodd"/><path fill="#000000" stroke="#000000" stroke-width="1.0" stroke-linecap="butt" d="m55.29975 187.26115l4.357006 2.083023l-1.9987106 -4.3963165z" fill-rule="evenodd"/><path fill="#000000" fill-opacity="0.0" d="m96.017586 49.271645l47.149605 -18.677164" fill-rule="evenodd"/><path stroke="#000000" stroke-width="1.0" stroke-linejoin="round" stroke-linecap="butt" d="m96.017586 49.271645l41.571327 -16.467464" fill-rule="evenodd"/><path fill="#000000" stroke="#000000" stroke-width="1.0" stroke-linecap="butt" d="m138.19722 34.339817l3.6108246 -3.2069416l-4.8274384 0.1356659z" fill-rule="evenodd"/><path fill="#000000" fill-opacity="0.0" d="m96.017586 84.59973l47.149605 17.259842" fill-rule="evenodd"/><path stroke="#000000" stroke-width="1.0" stroke-linejoin="round" stroke-linecap="butt" d="m96.017586 84.599724l41.51525 15.197304" fill-rule="evenodd"/><path fill="#000000" stroke="#000000" stroke-width="1.0" stroke-linecap="butt" d="m136.96504 101.3481l4.8293304 0.008934021l-3.6937408 -3.1110764z" fill-rule="evenodd"/><path fill="#000000" fill-opacity="0.0" d="m2.7017195 105.14316l35.33858 -35.37008l20.566929 20.566933l-35.338585 35.37008z" fill-rule="evenodd"/><path fill="#000000" d="m20.290888 104.36965l5.0381374 5.0381317l-0.64053154 0.64110565l-4.3420773 -4.342079l-0.46351242 1.9008713l-0.7290802 -0.176651l0.58488274 -2.5087051l0.55218124 -0.55267334zm5.75581 3.590294l0.5192814 0.5192795l-2.9928207 2.995491l-0.5192814 -0.5192795l2.9928207 -2.995491zm-1.8662357 -7.6380844q0.8393154 -0.840065 1.9550323 -0.5640335q1.1157093 0.2539215 2.40839 1.5466003q1.2926788 1.2926788 1.5580368 2.4198227q0.2763996 1.1160889 -0.5629139 1.9561539q-0.8393154 0.840065 -1.9660759 0.5750885q-1.1267586 -0.26496887 -2.4194393 -1.5576477q-1.2926788 -1.2926865 -1.5469875 -2.4087753q-0.26535797 -1.1271439 0.57395744 -1.9672089zm0.508234 0.5082321q-0.48591995 0.486351 -0.25377655 1.2709198q0.24318504 0.7735214 1.3922348 1.9225693q0.77339745 0.77339935 1.3589268 1.1600494q0.5855236 0.36455536 1.0384102 0.35340118q0.4418373 -0.022201538 0.7952328 -0.3759079q0.32026672 -0.320549 0.3312111 -0.7736435q0.010944366 -0.45309448 -0.3426628 -1.0497742q-0.36465645 -0.6077194 -1.1270046 -1.3700714q-0.77339935 -0.77339935 -1.358923 -1.1379471q-0.5855274 -0.3866577 -1.0273666 -0.36445618q-0.45288658 0.011146545 -0.80628204 0.36486053zm0.9498348 -0.57486725l0.7180805 0.3866272l1.6801186 4.9946823l-0.67385864 -0.20981598l-1.7243404 -5.1714935zm3.0610256 -4.4564896q0.8393154 -0.840065 1.9550323 -0.5640335q1.1157112 0.2539215 2.408392 1.5466003q1.2926788 1.2926788 1.5580368 2.4198227q0.2763977 1.1160889 -0.5629158 1.9561539q-0.8393173 0.840065 -1.9660759 0.5750885q-1.1267586 -0.26496887 -2.4194374 -1.5576477q-1.2926807 -1.2926788 -1.5469894 -2.4087753q-0.26535606 -1.1271439 0.57395744 -1.9672089zm0.508234 0.5082321q-0.48591995 0.486351 -0.25377655 1.2709274q0.24318504 0.7735138 1.3922348 1.9225616q0.77339745 0.77339935 1.3589268 1.1600494q0.5855236 0.36455536 1.0384083 0.35340118q0.44184113 -0.022193909 0.7952347 -0.3759079q0.32026672 -0.320549 0.3312111 -0.7736435q0.010944366 -0.45309448 -0.3426628 -1.0497665q-0.36465454 -0.60772705 -1.1270065 -1.370079q-0.77339554 -0.77339935 -1.3589191 -1.1379471q-0.5855293 -0.3866577 -1.0273685 -0.36445618q-0.45288658 0.011154175 -0.80628204 0.36486053zm0.9498348 -0.5748596l0.7180824 0.38661957l1.6801167 4.9946823l-0.67385864 -0.20981598l-1.7243404 -5.171486zm4.540846 -6.0481644l0.67378235 -0.14381409l1.6478233 8.785179l-0.662735 0.1327591l-1.6588707 -8.774124zm2.8839035 3.9224625q-0.22087097 0.22106934 -0.19870758 0.5525894q0.022167206 0.3315277 0.41991425 0.72927856q0.36460114 0.36460114 0.7291336 0.41977692q0.3534851 0.04412079 0.5743599 -0.17694855q0.23191452 -0.23212433 0.1876564 -0.5636444q-0.03321457 -0.34257507 -0.4309616 -0.7403183q-0.40879822 -0.40879822 -0.7291336 -0.41977692q-0.32034683 -0.033081055 -0.55226135 0.19904327zm-4.9267464 -0.8608856q-0.22087097 0.22106934 -0.1876564 0.5636444q0.022167206 0.3315277 0.40886307 0.7182236q0.36460495 0.36460114 0.7180939 0.4308319q0.3534851 0.04412079 0.5853996 -0.18799591q0.23191452 -0.23212433 0.19870758 -0.55259705q-0.03321457 -0.34257507 -0.4420128 -0.7513733q-0.4087944 -0.4087906 -0.7291336 -0.4197693q-0.32034302 -0.033081055 -0.55226135 0.19903564zm-0.45298767 -0.45298767q0.35339355 -0.353714 0.76208115 -0.43115997q0.41973114 -0.08850098 0.8174248 0.06612396q0.40873718 0.14356995 0.72914505 0.46398163q0.32040787 0.32040405 0.46409988 0.7292633q0.15473175 0.39780426 0.07750702 0.828804q-0.07723236 0.40890503 -0.43062973 0.762619q-0.35339355 0.35370636 -0.7731247 0.44221497q-0.41973877 0.06639862 -0.82847595 -0.077178955q-0.39769363 -0.15462494 -0.7181015 -0.475029q-0.33145523 -0.33145905 -0.47513962 -0.7182083q-0.14369011 -0.40885925 -0.066459656 -0.8177643q0.08827591 -0.4199524 0.44167328 -0.7736664zm4.915695 0.8498306q0.35339737 -0.35370636 0.7731323 -0.42010498q0.41973114 -0.08850098 0.8174248 0.06612396q0.40873718 0.14356995 0.72914505 0.463974q0.32040787 0.32041168 0.46409607 0.7292633q0.15473557 0.39780426 0.07750702 0.82881165q-0.077228546 0.40890503 -0.43062592 0.7626114q-0.34235382 0.342659 -0.76208496 0.43115997q-0.41973495 0.06639862 -0.82847214 -0.077171326q-0.40873718 -0.14356995 -0.72914505 -0.46398163q-0.33145523 -0.33145142 -0.47514725 -0.74031067q-0.1436882 -0.40885162 -0.06645584 -0.81775665q0.088272095 -0.41996002 0.43062592 -0.762619z" fill-rule="nonzero"/><path fill="#000000" fill-opacity="0.0" d="m96.017586 190.395l47.149605 -17.039368" fill-rule="evenodd"/><path stroke="#000000" stroke-width="1.0" stroke-linejoin="round" stroke-linecap="butt" d="m96.017586 190.39502l41.506783 -15.000122" fill-rule="evenodd"/><path fill="#000000" stroke="#000000" stroke-width="1.0" stroke-linecap="butt" d="m138.08575 176.9483l3.7065582 -3.0957947l-4.8293304 -0.011016846z" fill-rule="evenodd"/><path fill="#000000" fill-opacity="0.0" d="m96.013565 225.72066l47.149612 18.897629" fill-rule="evenodd"/><path stroke="#000000" stroke-width="1.0" stroke-linejoin="round" stroke-linecap="butt" d="m96.013565 225.72066l41.58029 16.665436" fill-rule="evenodd"/><path fill="#000000" stroke="#000000" stroke-width="1.0" stroke-linecap="butt" d="m136.97935 243.91928l4.8268433 0.15513611l-3.5978546 -3.2214813z" fill-rule="evenodd"/><path fill="#000000" fill-opacity="0.0" d="m21.805548 147.77953l35.37008 35.307083l-20.566929 20.56694l-35.37008 -35.3071z" fill-rule="evenodd"/><path fill="#000000" d="m22.107565 164.73532q0.84043694 0.8389435 0.5645981 1.954483q-0.25373268 1.115509 -1.5464134 2.4081879q-1.2926807 1.2926788 -2.4200153 1.5582275q-1.1162777 0.27659607 -1.9567146 -0.5623474q-0.8404379 -0.8389435 -0.5756569 -1.9654999q0.26478195 -1.1265717 1.5574627 -2.4192505q1.2926788 -1.2926788 2.408966 -1.5471802q1.1273365 -0.2655487 1.9677734 0.5733795zm-0.508234 0.50823975q-0.48656845 -0.4857025 -1.2712612 -0.25343323q-0.77363396 0.24330139 -1.9226837 1.3923492q-0.77339745 0.773407 -1.1600075 1.3588867q-0.36450386 0.5854645 -0.3532486 1.0382538q0.022302628 0.44174194 0.3761711 0.79496765q0.32069397 0.3201294 0.77388954 0.33096313q0.45319748 0.010848999 1.0499268 -0.3428192q0.60777855 -0.36470032 1.3701286 -1.1270599q0.77339935 -0.7733917 1.1379032 -1.3588715q0.38661003 -0.58547974 0.3643055 -1.0272217q-0.011255264 -0.45277405 -0.36512375 -0.806015zm0.57520485 0.9494934l-0.3865528 0.7180023l-4.9954185 1.6808624l0.20971489 -0.67375183l5.1722565 -1.7251129zm6.0505257 4.5384827l0.14399338 0.67359924l-8.786772 1.6494141l-0.13293839 -0.6625519l8.775717 -1.6604614zm-3.922697 2.88414q-0.22116852 -0.22077942 -0.552763 -0.19854736q-0.33159447 0.022247314 -0.7293415 0.4199829q-0.36460304 0.36460876 -0.41970634 0.7290802q-0.044057846 0.3534088 0.17711067 0.57418823q0.23222542 0.23181152 0.56381035 0.18748474q0.34264183 -0.03327942 0.7403908 -0.43103027q0.4087963 -0.40879822 0.41970634 -0.72906494q0.033018112 -0.32028198 -0.1992073 -0.5520935zm0.8599758 -4.9258423q-0.22116852 -0.22076416 -0.56381035 -0.18748474q-0.33159447 0.022232056 -0.71829414 0.40893555q-0.36460114 0.3645935 -0.43076515 0.7180176q-0.04405594 0.35342407 0.18816948 0.5852356q0.23222733 0.23181152 0.552763 0.1985321q0.34264183 -0.03327942 0.75143814 -0.44207764q0.4087963 -0.40879822 0.41970634 -0.72906494q0.033018112 -0.32028198 -0.1992073 -0.5520935zm0.45298958 -0.45298767q0.35386848 0.35324097 0.4314251 0.7618103q0.08861542 0.41963196 -0.065956116 0.81726074q-0.14351273 0.40867615 -0.4639206 0.72909546q-0.32040787 0.32040405 -0.72932243 0.4641571q-0.39785576 0.15478516 -0.8289757 0.07766724q-0.40901375 -0.07711792 -0.76288223 -0.4303589q-0.35386848 -0.35324097 -0.442482 -0.77285767q-0.06650734 -0.41963196 0.07700539 -0.8283081q0.15457153 -0.39762878 0.4749794 -0.7180481q0.33145523 -0.33145142 0.7182636 -0.4751892q0.40891457 -0.14375305 0.8179264 -0.06663513q0.42007065 0.08816528 0.77393913 0.44140625zm-0.84892654 4.914795q0.35386848 0.3532257 0.42037582 0.77285767q0.08861351 0.4196167 -0.06595802 0.81726074q-0.14351273 0.40867615 -0.4639206 0.7290802q-0.32040787 0.3204193 -0.72932243 0.4641571q-0.39785576 0.15480042 -0.8289757 0.077682495q-0.40901184 -0.07711792 -0.7628803 -0.4303589q-0.34280968 -0.34220886 -0.4314251 -0.76182556q-0.06650734 -0.4196167 0.07700539 -0.8283081q0.14351273 -0.40867615 0.4639206 -0.7290802q0.33145714 -0.33145142 0.7403717 -0.47520447q0.40891457 -0.14375305 0.8179264 -0.06661987q0.42007256 0.088150024 0.76288223 0.4303589z" fill-rule="nonzero"/><path fill="#000000" fill-opacity="0.0" d="m85.14834 26.373037l55.086617 -21.889763l10.708664 27.02362l-55.086617 21.889765z" fill-rule="evenodd"/><path fill="#000000" d="m101.17969 32.68603q0.39205933 -0.15578842 0.7663193 -0.18681717q0.37426758 -0.031028748 0.7395172 0.04240799l-0.10948181 0.6992264q-0.2898941 -0.052936554 -0.5800476 -0.021709442q-0.29014587 0.031230927 -0.56604004 0.14086151q-0.5517807 0.21926117 -0.785408 0.73243713q-0.23363495 0.51317215 -0.1721344 1.2621498q0.07026672 0.7286835 0.44167328 1.6235313l0.12664032 0.31957245q0.50079346 1.2637672 1.0650177 1.7120972q0.5642166 0.44833374 1.3192902 0.14828873q0.6389084 -0.25387955 0.77991486 -0.831131q0.14977264 -0.5975418 -0.16682434 -1.3964767q-0.3281021 -0.82798386 -0.78871155 -1.0148468q-0.46636963 -0.20138931 -1.0036316 0.012104034q-0.53726196 0.21348953 -0.8171997 0.69462585q-0.27993774 0.4811325 -0.33107758 1.0731087l-0.3080902 -0.73505783q0.10948181 -0.6992264 0.432724 -1.1135025q0.33200073 -0.4345703 0.88378906 -0.6538315q0.5227356 -0.20772171 1.0504532 -0.14840698q0.5277176 0.059318542 0.9790497 0.43481827q0.4658432 0.3697281 0.7536545 1.0960312q0.29932404 0.75535583 0.22189331 1.4082184q-0.077430725 0.65286636 -0.45600128 1.1395683q-0.36405182 0.48093414 -0.95939636 0.7175064q-0.62438965 0.24811172 -1.1521072 0.18879318q-0.5189514 -0.07960892 -0.9675293 -0.40576172q-0.43405914 -0.33192062 -0.8065033 -0.8900833q-0.3636856 -0.5784607 -0.66300964 -1.3338165q-0.44898987 -1.1330338 -0.48667908 -2.0764198q-0.0231781 -0.9491577 0.36468506 -1.6244965q0.3966217 -0.69563675 1.1952515 -1.012989zm6.3597107 -2.409462l2.6248474 6.623886l-0.8421936 0.33465958l-2.262207 -5.70874l-1.1795425 1.5615883l-0.5990219 -0.45131683l1.5320892 -2.0715752l0.72602844 -0.28850174zm3.8579102 5.5790596l0.27054596 0.682724l-3.9350815 1.5636826l-0.27054596 -0.682724l3.9350815 -1.5636826zm2.8725433 -1.2423401q-0.09210205 -0.23241806 -0.05076599 -0.46741867q0.035575867 -0.24952316 0.17829132 -0.4407425q0.15724182 -0.19699097 0.40409088 -0.2950821q0.24684906 -0.098091125 0.4961853 -0.06266022q0.24933624 0.035427094 0.43157196 0.1984024q0.19099426 0.1426773 0.2830963 0.37509537q0.097854614 0.24694061 0.062278748 0.4964676q-0.021057129 0.24375534 -0.17829895 0.4407425q-0.15723419 0.19699097 -0.40408325 0.2950821q-0.24684906 0.098091125 -0.49619293 0.06266022q-0.2348175 -0.041194916 -0.43156433 -0.1984024q-0.19675446 -0.15720367 -0.29460907 -0.4041443zm4.7354813 -9.01063q0.3920517 -0.15579224 0.7663193 -0.18681908q0.37426758 -0.031028748 0.7395096 0.04240799l-0.10948181 0.6992283q-0.28988647 -0.05294037 -0.58004 -0.021709442q-0.2901535 0.031230927 -0.56604004 0.14086151q-0.55178833 0.21926117 -0.78541565 0.7324333q-0.23362732 0.51317215 -0.17212677 1.2621517q0.070259094 0.7286835 0.44167328 1.6235294l0.12663269 0.31957436q0.50079346 1.2637672 1.0650177 1.7120972q0.56422424 0.44833374 1.3192978 0.14828873q0.63890076 -0.25388145 0.77991486 -0.8311291q0.14977264 -0.5975456 -0.16682434 -1.3964787q-0.3281021 -0.82798576 -0.7887192 -1.0148487q-0.466362 -0.2013874 -1.003624 0.012104034q-0.53726196 0.21349144 -0.8171997 0.69462585q-0.27993774 0.4811344 -0.33107758 1.0731106l-0.3080902 -0.73505783q0.10948181 -0.6992283 0.432724 -1.1135025q0.33200073 -0.4345703 0.88378143 -0.6538315q0.5227432 -0.20772171 1.0504608 -0.14840508q0.5277176 0.059314728 0.97904205 0.43481445q0.46585083 0.36973 0.7536621 1.0960331q0.29932404 0.7553539 0.22189331 1.4082203q-0.077430725 0.65286446 -0.45600128 1.1395664q-0.36405945 0.48093414 -0.959404 0.7175064q-0.624382 0.24811172 -1.1520996 0.18879318q-0.5189514 -0.07960892 -0.9675293 -0.40576172q-0.43405914 -0.33192062 -0.8065109 -0.8900852q-0.36367798 -0.5784607 -0.663002 -1.3338146q-0.44898987 -1.1330338 -0.4866867 -2.0764198q-0.023170471 -0.9491558 0.36468506 -1.6244965q0.3966217 -0.69563484 1.1952591 -1.0129871zm7.582962 -3.097311l0.67541504 0.13513565l-1.9731979 8.720024l-0.6608963 -0.14090538l1.9586792 -8.714254zm1.0904617 4.74522q-0.2904129 0.115400314 -0.4016037 0.4285984q-0.11118317 0.31319618 0.09603882 0.83613586q0.18995667 0.47935867 0.50260925 0.6745739q0.30690765 0.18068886 0.5973129 0.06528854q0.30493164 -0.12117195 0.3958435 -0.44312477q0.10543823 -0.32772446 -0.10179138 -0.85066223q-0.21298218 -0.53746414 -0.50260925 -0.6745739q-0.28086853 -0.15740776 -0.5858002 -0.03623581zm-4.179924 -2.7441406q-0.2904129 0.115400314 -0.3958435 0.44312477q-0.111190796 0.31319618 0.090278625 0.8216095q0.18995667 0.47936058 0.48809052 0.6803436q0.30690002 0.18068886 0.61183167 0.059518814q0.30493164 -0.12117195 0.4016037 -0.4285984q0.1054306 -0.32772446 -0.107551575 -0.8651886q-0.21298218 -0.53746414 -0.50260925 -0.6745739q-0.28086853 -0.15740776 -0.5858002 -0.03623581zm-0.23600769 -0.5955696q0.46466064 -0.18464088 0.8704529 -0.09369087q0.4203186 0.08518028 0.72395325 0.384861q0.31815338 0.29391098 0.48508453 0.715168q0.16693115 0.4212551 0.13658905 0.85364723q-0.015823364 0.4266224 -0.25769806 0.79174995q-0.23310852 0.34483147 -0.69776154 0.52947235q-0.46466064 0.18464279 -0.88497925 0.09946251q-0.41155243 -0.10547638 -0.7297058 -0.39938736q-0.30363464 -0.2996807 -0.4705658 -0.7209377q-0.17268372 -0.43578148 -0.15110779 -0.8478775q0.030342102 -0.43239212 0.26345062 -0.7772236q0.24762726 -0.3506012 0.7122879 -0.535244zm4.174164 2.7296143q0.46466064 -0.18464088 0.8762131 -0.079164505q0.4203186 0.08518028 0.72395325 0.384861q0.31814575 0.29391098 0.4850769 0.7151661q0.16693115 0.42125702 0.13659668 0.85364914q-0.015823364 0.4266224 -0.25769043 0.79174995q-0.23310852 0.34483147 -0.69776917 0.52947235q-0.45013428 0.17887115 -0.8704605 0.09369087q-0.41155243 -0.10547447 -0.7297058 -0.39938545q-0.31815338 -0.29391098 -0.48508453 -0.715168q-0.17268372 -0.43578148 -0.14234161 -0.8681736q0.030334473 -0.43239212 0.26345062 -0.7772236q0.24762726 -0.3506012 0.69776154 -0.52947426z" fill-rule="nonzero"/><path fill="#000000" fill-opacity="0.0" d="m98.11031 78.48556l49.480324 18.582672l-10.204727 27.2126l-49.480316 -18.58268z" fill-rule="evenodd"/><path fill="#000000" d="m105.07391 93.691475q0.6436081 0.24171448 1.0239029 0.65158844q0.39492798 0.4153595 0.49546814 0.9037628q0.120643616 0.47927094 -0.05491638 0.9474335q-0.1591034 0.42427063 -0.47544098 0.68935394q-0.30171967 0.27056885 -0.691185 0.37465668q-0.3748474 0.10958862 -0.7679672 0.045402527q0.38397217 0.17758179 0.658226 0.5142441q0.2943573 0.3275299 0.37661743 0.7756882q0.08773804 0.4335251 -0.11525726 0.97483826q-0.2194519 0.5852051 -0.7076721 0.9526367q-0.46811676 0.35829926 -1.1135712 0.43301392q-0.63082886 0.080207825 -1.3475723 -0.18897247q-0.5704727 -0.21424103 -1.0586472 -0.6479416q-0.48817444 -0.43369293 -0.70207214 -1.0648117l0.7405472 -0.23928833q0.16636658 0.44635773 0.49546814 0.7702484q0.34922028 0.31474304 0.77342224 0.47405243q0.71674347 0.2691803 1.2488403 0.051750183q0.5522156 -0.22657013 0.7936096 -0.87029266q0.1865387 -0.4974289 0.100616455 -0.846817q-0.06580353 -0.3585205 -0.34371185 -0.5964203q-0.27791595 -0.23789215 -0.68748474 -0.39170837l-0.5704727 -0.21424866l0.35476685 -0.6345291l0.3949356 0.14832306q0.3364334 0.1263504 0.67287445 0.11917877q0.35655212 -0.016311646 0.64546204 -0.2082367q0.29439545 -0.20655823 0.4480133 -0.6162033q0.20848083 -0.55594635 -0.0621109 -0.9913788q-0.26509857 -0.4500656 -0.80631256 -0.6533203q-0.45345306 -0.17029572 -0.850235 -0.1357193q-0.3766632 0.02545166 -0.8484268 0.21546936l-0.26142883 -0.68235016q0.59243774 -0.24484253 1.1464691 -0.25375366q0.5686569 -0.0034103394 1.0952454 0.1943512zm7.7023926 4.878868q-0.18653107 0.49742126 -0.63635254 0.76244354q-0.44433594 0.25039673 -1.1300201 0.3433838q0.5686264 0.53067017 0.78800964 1.1471558q0.23400116 0.62197876 -0.0019073486 1.2510757q-0.20848083 0.55594635 -0.67110443 0.8996124q-0.45713806 0.32904053 -1.0824814 0.39461517q-0.6198578 0.050949097 -1.3512268 -0.22372437q-0.73137665 -0.27467346 -1.1646957 -0.72114563q-0.413208 -0.45561218 -0.52654266 -0.99889374q-0.09870148 -0.5377884 0.10977936 -1.0937347q0.23590851 -0.629097 0.76618195 -0.93066406q0.5449066 -0.2960739 1.2781296 -0.3378296q-0.44246674 -0.4665985 -0.58322906 -0.93672943q-0.14076233 -0.47013092 0.078689575 -1.055336q0.17556 -0.46816254 0.49189758 -0.7332382q0.3163452 -0.2650833 0.7058182 -0.36917114q0.38947296 -0.10408783 0.77893066 -0.074661255q0.40409088 0.03492737 0.75514984 0.16677094q0.36569214 0.13733673 0.6929703 0.37708282q0.32728577 0.2397461 0.5375366 0.5690689q0.23036957 0.3201828 0.2797165 0.72260284q0.05483246 0.38777924 -0.115249634 0.8413162zm-1.8780289 3.1835938q0.17556 -0.46817017 0.040275574 -0.8194046q-0.12979889 -0.3658676 -0.47353363 -0.69524384q-0.34373474 -0.32938385 -0.8282547 -0.7283249q-0.32730103 0.027297974 -0.6527786 0.13873291q-0.31998444 0.09680176 -0.5814743 0.3490982q-0.2559967 0.2376709 -0.42058563 0.6765747q-0.21396637 0.5705719 0.010902405 1.0389099q0.23950195 0.47383118 0.95625305 0.7430115q0.71674347 0.2691803 1.2287292 0.06088257q0.5174713 -0.22292328 0.7204666 -0.76423645zm-1.4350891 -4.3610992q-0.14813232 0.3950119 -0.060386658 0.69501495q0.10786438 0.29087067 0.3894348 0.56352234q0.30168152 0.26351166 0.6947861 0.5947418q0.5869446 -0.09668732 0.9252243 -0.28676605q0.3583908 -0.19921875 0.5339508 -0.6673813q0.19202423 -0.51205444 -0.014572144 -0.9401474q-0.20658875 -0.42808533 -0.791687 -0.6478195q-0.58509827 -0.21974182 -1.0367432 -0.038856506q-0.43701935 0.18637848 -0.640007 0.72769165zm4.685295 6.783455q0.08778381 -0.23407745 0.27612305 -0.38032532q0.1938324 -0.16087341 0.42787933 -0.20649719q0.24867249 -0.040138245 0.49733734 0.053253174q0.24866486 0.09339142 0.40956116 0.28733826q0.1608963 0.19394684 0.18647766 0.43722534q0.045700073 0.23413849 -0.04208374 0.46822357q-0.09326172 0.24871063 -0.28709412 0.40958405q-0.17919922 0.16636658 -0.4278717 0.20650482q-0.24868011 0.040130615 -0.49734497 -0.053260803q-0.24866486 -0.09338379 -0.40956116 -0.28733826q-0.14626312 -0.18845367 -0.18647766 -0.43722534q-0.04021454 -0.24876404 0.05305481 -0.4974823zm8.940796 -3.719017l0.59239197 0.55628204l-3.4578705 3.6584778l3.656868 1.3733597l-0.25237274 0.6729889l-4.549141 -1.7084656l0.2304306 -0.6144638l3.7796936 -3.938179zm0.64341736 3.312706l-1.6074829 4.2866287l-0.8191376 -0.30763245l0.8174591 -2.1798935l0.90704346 -2.06279l0.7021179 0.26368713zm7.6661377 -0.27545166l0.4095459 0.5543823l-7.3142014 5.13105l-0.39492035 -0.54888916l7.299576 -5.1365433zm-2.3772736 4.2478943q-0.2925415 -0.10987091 -0.5851135 0.047309875q-0.29255676 0.15717316 -0.49006653 0.68385315q-0.18105316 0.48279572 -0.08050537 0.837677q0.106033325 0.34025574 0.39857483 0.45011902q0.30717468 0.115364075 0.5906067 -0.061935425q0.29804993 -0.1717987 0.4955597 -0.6984863q0.20298767 -0.5413132 0.08050537 -0.837677q-0.102386475 -0.30549622 -0.40956116 -0.4208603zm-1.254036 -4.8438873q-0.29254913 -0.10987091 -0.59059906 0.061935425q-0.2925644 0.15717316 -0.48458862 0.6692276q-0.18104553 0.48279572 -0.09513092 0.83218384q0.106033325 0.3402481 0.413208 0.45561218q0.30717468 0.115356445 0.5851135 -0.047309875q0.29804993 -0.1717987 0.5010452 -0.7131195q0.20298767 -0.5413132 0.08050537 -0.837677q-0.102371216 -0.30549622 -0.40955353 -0.42085266zm0.22493744 -0.59983826q0.4680786 0.17578888 0.7075958 0.516098q0.25413513 0.3458023 0.2778778 0.7719803q0.038375854 0.43167877 -0.12072754 0.8559494q-0.1591034 0.42427826 -0.47180176 0.72410583q-0.29804993 0.30532837 -0.72226715 0.41306305q-0.4040985 0.098594666 -0.8721771 -0.077194214q-0.4680786 -0.17578888 -0.72221375 -0.5215912q-0.23402405 -0.35494232 -0.2723999 -0.78661346q-0.023742676 -0.4261856 0.13536072 -0.85045624q0.16458893 -0.4389038 0.45716095 -0.729599q0.31269073 -0.2998352 0.71678925 -0.39842987q0.41872406 -0.0931015 0.8868027 0.08268738zm1.2595215 4.829262q0.4680786 0.17578888 0.70210266 0.5307236q0.2541504 0.3458023 0.27789307 0.7719879q0.038360596 0.43167114 -0.1207428 0.8559494q-0.1591034 0.42427063 -0.4717865 0.72410583q-0.29804993 0.30532837 -0.7222748 0.41305542q-0.4040985 0.098602295 -0.8721771 -0.077194214q-0.45344543 -0.17029572 -0.70758057 -0.516098q-0.23402405 -0.3549347 -0.2723999 -0.78661346q-0.038368225 -0.43167114 0.12073517 -0.8559494q0.16458893 -0.4389038 0.47727203 -0.7387314q0.31269073 -0.2998352 0.7167816 -0.39842987q0.4187317 -0.0931015 0.8721771 0.077194214z" fill-rule="nonzero"/><path fill="#000000" fill-opacity="0.0" d="m98.147446 219.97621l54.29921 19.46457l-9.826767 27.370071l-54.299217 -19.464554z" fill-rule="evenodd"/><path fill="#000000" d="m105.52891 235.16014q0.7648468 0.27416992 1.1382141 0.8063812q0.37865448 0.51750183 0.40166473 1.2394867q0.023010254 0.72198486 -0.28850555 1.5896301q-0.3748703 1.0441132 -0.8542175 1.6856232q-0.46463776 0.6467743 -1.0948334 0.9686127q-0.6154938 0.32711792 -1.4429398 0.41227722q-0.8074646 0.07571411 -1.8732605 -0.0075683594l0.035820007 -0.7008972q1.0857925 0.07385254 1.8702469 -0.07650757q0.78445435 -0.1503601 1.3286667 -0.60261536q0.54421234 -0.4522705 0.88513947 -1.309372l0.18894958 -0.48002625q0.30622864 -0.8529358 0.34394073 -1.4203644q0.04299164 -0.58213806 -0.18668365 -0.91345215q-0.20969391 -0.34074402 -0.695076 -0.51474q-0.6618805 -0.23725891 -1.1627274 0.047958374q-0.48612976 0.29049683 -0.77124786 1.08461q-0.27983093 0.77941895 -0.08824158 1.2630615q0.21157837 0.47421265 0.7999191 0.68510437q0.5147934 0.1845398 0.9975357 0.04222107q0.48802185 -0.1570282 0.991127 -0.5410309l-0.26399994 0.7352905q-0.46727753 0.33044434 -0.99942017 0.47166443q-0.5268631 0.12651062 -1.1152039 -0.08439636q-0.58834076 -0.21089172 -0.9345627 -0.6337738q-0.3462143 -0.42289734 -0.43672943 -1.0030975q-0.07053375 -0.5896301 0.17762756 -1.2808075q0.2639923 -0.7352905 0.7376785 -1.129837q0.49367523 -0.4039917 1.0835266 -0.4747162q0.60983276 -0.08016968 1.2275925 0.14128113zm7.972763 2.9575806l-0.3605423 0.63427734l-2.7357864 -0.9806824l-0.7814255 2.176468q0.3816681 -0.045776367 0.682251 -0.00440979q0.3058548 0.026641846 0.61473846 0.13737488q0.5589218 0.2003479 0.8957138 0.6032562q0.33678436 0.40290833 0.39260864 0.9872589q0.06109619 0.5696564 -0.18177795 1.2461243q-0.24815369 0.69117737 -0.7324066 1.1151428q-0.4642563 0.41453552 -1.0993576 0.51882935q-0.61511993 0.09487915 -1.3211288 -0.15820312q-0.6324692 -0.22671509 -1.0386505 -0.6213074q-0.40618134 -0.39457703 -0.660759 -0.9339905l0.6943207 -0.3154602q0.1927185 0.43424988 0.5023575 0.727829q0.3149109 0.27886963 0.75616455 0.43704224q0.69129944 0.247818 1.2068558 -0.03213501q0.5302582 -0.27468872 0.81536865 -1.0688019q0.20063782 -0.55882263 0.15500641 -0.9403534q-0.045639038 -0.38153076 -0.29228973 -0.61932373q-0.22666168 -0.24723816 -0.56495667 -0.368515q-0.30888367 -0.11071777 -0.56533813 -0.13626099q-0.25645447 -0.025527954 -0.592865 -0.013336182l-0.67658997 -0.24253845l1.2407761 -3.4558868l3.6477127 1.3076019zm1.0518646 7.2986603q0.084480286 -0.23529053 0.2707901 -0.3842926q0.19158173 -0.16369629 0.42503357 -0.21279907q0.24816132 -0.0438385 0.4982071 0.045791626q0.25004578 0.08963013 0.4137268 0.2810974q0.16368103 0.19146729 0.1927185 0.43424988q0.04902649 0.23336792 -0.035446167 0.46865845q-0.08975983 0.25 -0.28134918 0.4136963q-0.17687988 0.16897583 -0.42503357 0.21281433q-0.24816132 0.043823242 -0.4982071 -0.045806885q-0.25004578 -0.08963013 -0.4137268 -0.2810974q-0.14897156 -0.18618774 -0.1927185 -0.43424988q-0.04374695 -0.24806213 0.04600525 -0.49806213zm9.031746 -3.7835999q0.7648468 0.27416992 1.1382141 0.8063812q0.37865448 0.51750183 0.40166473 1.2394867q0.023010254 0.72198486 -0.28850555 1.5896301q-0.37487793 1.0441284 -0.8542175 1.6856232q-0.46463776 0.6467743 -1.0948334 0.9686127q-0.6154938 0.32711792 -1.4429398 0.41227722q-0.8074646 0.07571411 -1.8732605 -0.0075683594l0.035820007 -0.7008972q1.0857925 0.07385254 1.8702469 -0.07650757q0.78445435 -0.1503601 1.3286667 -0.60261536q0.54421234 -0.4522705 0.88513947 -1.309372l0.18894958 -0.480011q0.30622864 -0.85295105 0.34394073 -1.4203796q0.04299164 -0.58213806 -0.18668365 -0.91345215q-0.20969391 -0.34074402 -0.695076 -0.51474q-0.6618881 -0.23725891 -1.1627274 0.047958374q-0.48612976 0.29049683 -0.77124786 1.0846252q-0.27983856 0.7794037 -0.08824158 1.2630463q0.21157837 0.47421265 0.7999191 0.6851196q0.5147934 0.1845398 0.9975357 0.04220581q0.48802185 -0.1570282 0.991127 -0.5410309l-0.26399994 0.7352905q-0.46727753 0.3304596 -0.99942017 0.47166443q-0.5268631 0.12651062 -1.1152039 -0.08439636q-0.58834076 -0.21089172 -0.9345627 -0.6337738q-0.3462143 -0.42288208 -0.43672943 -1.0030823q-0.07053375 -0.5896454 0.17761993 -1.2808228q0.26399994 -0.7352905 0.73768616 -1.129837q0.49367523 -0.40397644 1.0835266 -0.4747162q0.60983276 -0.08016968 1.2275925 0.14128113zm8.212631 2.8443756l0.41749573 0.5480194l-7.2429733 5.238159l-0.40279388 -0.5427551l7.2282715 -5.2434235zm-2.3175201 4.281601q-0.2941742 -0.10543823 -0.5845642 0.056030273q-0.29040527 0.16148376 -0.480484 0.69088745q-0.17422485 0.4853058 -0.06863403 0.8385315q0.11088562 0.33851624 0.4050598 0.44396973q0.30888367 0.11071777 0.58984375 -0.070739746q0.2956848 -0.17617798 0.48576355 -0.7055969q0.19534302 -0.54411316 0.06863403 -0.83851624q-0.10673523 -0.303833 -0.4156189 -0.41456604zm-1.3230286 -4.8230896q-0.2941742 -0.10545349 -0.5898514 0.070739746q-0.29039764 0.1614685 -0.47519684 0.676178q-0.17423248 0.48529053 -0.083343506 0.83325195q0.11088562 0.33851624 0.41976166 0.44924927q0.30887604 0.11071777 0.58457184 -0.056030273q0.29566956 -0.17617798 0.49102783 -0.7203064q0.19535828 -0.54411316 0.06863403 -0.83851624q-0.10673523 -0.303833 -0.41560364 -0.41456604zm0.21647644 -0.6029358q0.4706726 0.16871643 0.7150574 0.5052948q0.25909424 0.3418579 0.28889465 0.7675171q0.044509888 0.4309082 -0.10861206 0.8573761q-0.15312195 0.42648315 -0.46162415 0.7308502q-0.29379272 0.3096466 -0.71655273 0.42367554q-0.40279388 0.104599 -0.8734665 -0.06413269q-0.4706726 -0.16871643 -0.72976685 -0.51057434q-0.23911285 -0.35128784 -0.2836151 -0.7822113q-0.029800415 -0.42564392 0.12332153 -0.8521118q0.15839386 -0.44117737 0.44690704 -0.7361145q0.3085022 -0.30438232 0.71128845 -0.40898132q0.4174881 -0.09931946 0.88816833 0.06941223zm1.3283081 4.80838q0.4706726 0.16873169 0.70977783 0.52001953q0.2591095 0.3418579 0.28889465 0.76750183q0.044509888 0.4309082 -0.10861206 0.85739136q-0.15310669 0.4264679 -0.4616089 0.73083496q-0.29379272 0.30966187 -0.716568 0.42367554q-0.40278625 0.104599 -0.87345886 -0.06411743q-0.45596313 -0.16345215 -0.715065 -0.50531006q-0.23910522 -0.35128784 -0.2836151 -0.7822113q-0.04450226 -0.43092346 0.10861206 -0.85739136q0.15840149 -0.44117737 0.46689606 -0.74554443q0.3085022 -0.30438232 0.71128845 -0.40898132q0.41749573 -0.09931946 0.87345886 0.06413269z" fill-rule="nonzero"/><path fill="#000000" fill-opacity="0.0" d="m86.7848 164.8063l52.314964 -18.582687l9.732285 27.370087l-52.314964 18.582672z" fill-rule="evenodd"/><path fill="#000000" d="m101.967964 171.92151l0.8114395 0.043395996l-0.2857132 5.026184l3.680931 -1.3074951l0.24079895 0.6772003l-4.579071 1.6265259l-0.21986389 -0.61831665l0.35147858 -5.4474945zm2.626999 2.117859l1.5338135 4.3135376l-0.82453156 0.2928772l-0.77999115 -2.193573l-0.6360321 -2.1618042l0.70674133 -0.2510376zm4.9844666 2.209015q-0.08375549 -0.23554993 -0.03401947 -0.46876526q0.04450226 -0.24795532 0.19403076 -0.43371582q0.16425323 -0.19099426 0.4145584 -0.27990723q0.25030518 -0.088912964 0.4983139 -0.0443573q0.24800873 0.044555664 0.42436218 0.2140503q0.18584442 0.14955139 0.26960754 0.38510132q0.08898926 0.25027466 0.044487 0.49822998q-0.029777527 0.2427063 -0.19403076 0.43370056q-0.16425323 0.19099426 -0.4145584 0.27990723q-0.25030518 0.088912964 -0.4983139 0.0443573q-0.233284 -0.04978943 -0.42436218 -0.2140503q-0.19107819 -0.16427612 -0.28007507 -0.41455078zm5.47641 -8.859726l2.3870926 6.7132263l-0.8539734 0.30334473l-2.0573044 -5.785736l-1.2351685 1.5165253l-0.5827255 -0.47283936l1.6058884 -2.0130157l0.7361908 -0.26150513zm3.6572647 5.7148743l0.24604034 0.69192505l-3.9901276 1.4173279l-0.24604034 -0.6919403l3.9901276 -1.4173126zm3.6153336 -8.497131l0.67041016 0.15982056l-2.2849045 8.638062l-0.65569305 -0.16505432l2.2701874 -8.632828zm0.9203186 4.780182q-0.29447174 0.104599 -0.41684723 0.41337585q-0.12237549 0.3087616 0.066078186 0.8387604q0.17275238 0.48582458 0.47834778 0.6923218q0.30036163 0.19177246 0.5948334 0.08717346q0.30919647 -0.10983276 0.41161346 -0.42808533q0.11714172 -0.3235016 -0.07131195 -0.8534851q-0.19369507 -0.5447235 -0.47834778 -0.6923218q-0.27516937 -0.16757202 -0.58436584 -0.057739258zm-4.080696 -2.8948364q-0.29447174 0.104599 -0.41161346 0.42808533q-0.12237549 0.30877686 0.06084442 0.82403564q0.17275238 0.48582458 0.46362305 0.69755554q0.30036163 0.19178772 0.6095581 0.081954956q0.30919647 -0.10983276 0.41684723 -0.41337585q0.11714172 -0.32348633 -0.076553345 -0.86820984q-0.19368744 -0.54470825 -0.47834015 -0.6923218q-0.27516937 -0.16755676 -0.58436584 -0.057724zm-0.21463013 -0.6036072q0.4711609 -0.1673584 0.8736038 -0.061584473q0.41716766 0.10054016 0.7099991 0.41105652q0.30755615 0.3052826 0.45936584 0.7322235q0.15181732 0.42694092 0.10600281 0.8577423q-0.031089783 0.4255829 -0.28598022 0.7814331q-0.24539948 0.33587646 -0.71656036 0.5032501q-0.47115326 0.1673584 -0.8883209 0.06681824q-0.40768433 -0.12049866 -0.7152405 -0.42578125q-0.29283142 -0.31053162 -0.4446411 -0.73747253q-0.15704346 -0.4416504 -0.12071991 -0.85250854q0.045814514 -0.43081665 0.29120636 -0.7666931q0.2601242 -0.3411255 0.7312851 -0.5084839zm4.0754623 2.880127q0.4711609 -0.1673584 0.8788376 -0.046875q0.41716766 0.10054016 0.7100067 0.41105652q0.30755615 0.30529785 0.45936584 0.73223877q0.15180969 0.42692566 0.10599518 0.8577423q-0.031089783 0.4255829 -0.28598022 0.78141785q-0.24539948 0.33589172 -0.71655273 0.5032501q-0.45643616 0.16212463 -0.8736038 0.061584473q-0.40768433 -0.1204834 -0.7152405 -0.42578125q-0.30755615 -0.3052826 -0.45936584 -0.7322235q-0.15704346 -0.44166565 -0.11122894 -0.87246704q0.045814514 -0.43081665 0.29120636 -0.7666931q0.2601242 -0.3411255 0.71656036 -0.5032501z" fill-rule="nonzero"/><path fill="#ff7f0e" fill-opacity="0.4667" d="m143.16719 244.62073l0 0c0 -13.802765 11.189362 -24.992126 24.992126 -24.992126l0 0c6.6283264 0 12.985168 2.6330872 17.672104 7.3200226c4.6869354 4.6869354 7.3200226 11.043777 7.3200226 17.672104l0 0c0 13.802765 -11.189362 24.992126 -24.992126 24.992126l0 0c-13.802765 0 -24.992126 -11.189362 -24.992126 -24.992126z" fill-rule="evenodd"/><path stroke="#000000" stroke-width="1.0" stroke-linejoin="round" stroke-linecap="butt" d="m143.16719 244.62073l0 0c0 -13.802765 11.189362 -24.992126 24.992126 -24.992126l0 0c6.6283264 0 12.985168 2.6330872 17.672104 7.3200226c4.6869354 4.6869354 7.3200226 11.043777 7.3200226 17.672104l0 0c0 13.802765 -11.189362 24.992126 -24.992126 24.992126l0 0c-13.802765 0 -24.992126 -11.189362 -24.992126 -24.992126z" fill-rule="evenodd"/><path fill="#000000" d="m170.28589 244.79573q0 -1.203125 -0.25 -1.921875q-0.25 -0.71875 -0.671875 -1.078125q-0.40625 -0.359375 -0.90625 -0.484375q-0.484375 -0.125 -0.953125 -0.125l-1.078125 0l0 7.3125l1.09375 0q0.5 0 0.984375 -0.15625q0.484375 -0.15625 0.890625 -0.5625q0.40625 -0.40625 0.640625 -1.125q0.25 -0.71875 0.25 -1.859375zm1.234375 0q0 1.4375 -0.375 2.34375q-0.359375 0.90625 -0.984375 1.40625q-0.609375 0.5 -1.34375 0.6875q-0.71875 0.1875 -1.4375 0.1875l-2.109375 0l0 -9.171875l1.96875 0q0.796875 0 1.5625 0.1875q0.765625 0.171875 1.375 0.65625q0.625 0.484375 0.984375 1.375q0.359375 0.890625 0.359375 2.328125zm-0.7200012 -5.8318634l-5.71875 0l0 -0.859375l5.71875 0l0 0.859375z" fill-rule="nonzero"/><path fill="#ff7f0e" fill-opacity="0.4667" d="m143.16719 173.35564l0 0c0 -13.802765 11.189362 -24.992126 24.992126 -24.992126l0 0c6.6283264 0 12.985168 2.6330872 17.672104 7.3200226c4.6869354 4.6869354 7.3200226 11.043777 7.3200226 17.672104l0 0c0 13.802765 -11.189362 24.992126 -24.992126 24.992126l0 0c-13.802765 0 -24.992126 -11.189362 -24.992126 -24.992126z" fill-rule="evenodd"/><path stroke="#000000" stroke-width="1.0" stroke-linejoin="round" stroke-linecap="butt" d="m143.16719 173.35564l0 0c0 -13.802765 11.189362 -24.992126 24.992126 -24.992126l0 0c6.6283264 0 12.985168 2.6330872 17.672104 7.3200226c4.6869354 4.6869354 7.3200226 11.043777 7.3200226 17.672104l0 0c0 13.802765 -11.189362 24.992126 -24.992126 24.992126l0 0c-13.802765 0 -24.992126 -11.189362 -24.992126 -24.992126z" fill-rule="evenodd"/><path fill="#000000" d="m170.28589 173.53064q0 -1.203125 -0.25 -1.921875q-0.25 -0.71875 -0.671875 -1.078125q-0.40625 -0.359375 -0.90625 -0.484375q-0.484375 -0.125 -0.953125 -0.125l-1.078125 0l0 7.3125l1.09375 0q0.5 0 0.984375 -0.15625q0.484375 -0.15625 0.890625 -0.5625q0.40625 -0.40625 0.640625 -1.125q0.25 -0.71875 0.25 -1.859375zm1.234375 0q0 1.4375 -0.375 2.34375q-0.359375 0.90625 -0.984375 1.40625q-0.609375 0.5 -1.34375 0.6875q-0.71875 0.1875 -1.4375 0.1875l-2.109375 0l0 -9.171875l1.96875 0q0.796875 0 1.5625 0.1875q0.765625 0.171875 1.375 0.65625q0.625 0.484375 0.984375 1.375q0.359375 0.890625 0.359375 2.328125z" fill-rule="nonzero"/></g></svg>