<svg version="1.1" viewBox="0.0 0.0 202.10498687664042 273.246719160105" fill="none" stroke="none" stroke-linecap="square" stroke-miterlimit="10" xmlns:xlink="http://www.w3.org/1999/xlink" xmlns="http://www.w3.org/2000/svg"><clipPath id="p.0"><path d="m0 0l202.10498 0l0 273.2467l-202.10498 0l0 -273.2467z" clip-rule="nonzero"/></clipPath><g clip-path="url(#p.0)"><path fill="#000000" fill-opacity="0.0" d="m0 0l202.10498 0l0 273.2467l-202.10498 0z" fill-rule="evenodd"/><path fill="#1f77b4" fill-opacity="0.4693" d="m53.34934 208.04855l0 0c0 -13.80278 11.189358 -24.992126 24.99213 -24.992126l0 0c6.628319 0 12.985168 2.6330872 17.672096 7.3200226c4.6869354 4.6869354 7.3200226 11.043777 7.3200226 17.672104l0 0c0 13.802765 -11.189354 24.992126 -24.992119 24.992126l0 0c-13.8027725 0 -24.99213 -11.189362 -24.99213 -24.992126z" fill-rule="evenodd"/><path stroke="#000000" stroke-width="1.0" stroke-linejoin="round" stroke-linecap="butt" d="m53.34934 208.04855l0 0c0 -13.80278 11.189358 -24.992126 24.99213 -24.992126l0 0c6.628319 0 12.985168 2.6330872 17.672096 7.3200226c4.6869354 4.6869354 7.3200226 11.043777 7.3200226 17.672104l0 0c0 13.802765 -11.189354 24.992126 -24.992119 24.992126l0 0c-13.8027725 0 -24.99213 -11.189362 -24.99213 -24.992126z" fill-rule="evenodd"/><path fill="#000000" d="m80.46805 208.22354q0 -1.203125 -0.25 -1.921875q-0.25 -0.71875 -0.671875 -1.078125q-0.40625 -0.359375 -0.90625 -0.484375q-0.484375 -0.125 -0.953125 -0.125l-1.078125 0l0 7.3125l1.09375 0q0.5 0 0.984375 -0.15625q0.484375 -0.15625 0.890625 -0.5625q0.40625 -0.40625 0.640625 -1.125q0.25 -0.71875 0.25 -1.859375zm1.234375 0q0 1.4375 -0.375 2.34375q-0.359375 0.90625 -0.984375 1.40625q-0.609375 0.5 -1.34375 0.6875q-0.71875 0.1875 -1.4375 0.1875l-2.109375 0l0 -9.171875l1.96875 0q0.796875 0 1.5625 0.1875q0.765625 0.171875 1.375 0.65625q0.625 0.484375 0.984375 1.375q0.359375 0.890625 0.359375 2.328125zm-0.7200012 -5.8318634l-5.71875 0l0 -0.859375l5.71875 0l0 0.859375z" fill-rule="nonzero"/><path fill="#1f77b4" fill-opacity="0.4693" d="m53.34934 66.93306l0 0c0 -13.802765 11.189358 -24.992123 24.99213 -24.992123l0 0c6.628319 0 12.985168 2.633091 17.672096 7.3200226c4.6869354 4.6869354 7.3200226 11.043781 7.3200226 17.6721l0 0c0 13.8027725 -11.189354 24.992126 -24.992119 24.992126l0 0c-13.8027725 0 -24.99213 -11.189354 -24.99213 -24.992126z" fill-rule="evenodd"/><path stroke="#000000" stroke-width="1.0" stroke-linejoin="round" stroke-linecap="butt" d="m53.34934 66.93306l0 0c0 -13.802765 11.189358 -24.992123 24.99213 -24.992123l0 0c6.628319 0 12.985168 2.633091 17.672096 7.3200226c4.6869354 4.6869354 7.3200226 11.043781 7.3200226 17.6721l0 0c0 13.8027725 -11.189354 24.992126 -24.992119 24.992126l0 0c-13.8027725 0 -24.99213 -11.189354 -24.99213 -24.992126z" fill-rule="evenodd"/><path fill="#000000" d="m80.46805 67.10806q0 -1.203125 -0.25 -1.921875q-0.25 -0.71875 -0.671875 -1.078125q-0.40625 -0.359375 -0.90625 -0.484375q-0.484375 -0.125 -0.953125 -0.125l-1.078125 0l0 7.3125l1.09375 0q0.5 0 0.984375 -0.15625q0.484375 -0.15625 0.890625 -0.5625q0.40625 -0.40625 0.640625 -1.125q0.25 -0.71875 0.25 -1.859375zm1.234375 0q0 1.4375 -0.375 2.34375q-0.359375 0.90625 -0.984375 1.40625q-0.609375 0.5 -1.34375 0.6875q-0.71875 0.1875 -1.4375 0.1875l-2.109375 0l0 -9.171875l1.96875 0q0.796875 0 1.5625 0.1875q0.765625 0.171875 1.375 0.65625q0.625 0.484375 0.984375 1.375q0.359375 0.890625 0.359375 2.328125z" fill-rule="nonzero"/><path fill="#000000" d="m8.728338 132.7034l0 0c2.6440096 0 4.787402 2.143402 4.787402 4.7873993l0 0c0 1.2696991 -0.50438595 2.4873962 -1.4021978 3.3852081c-0.8978119 0.8978119 -2.1155062 1.4022064 -3.3852043 1.4022064l0 0c-2.6440086 0 -4.787401 -2.143402 -4.787401 -4.7874146l0 0c0 -2.6439972 2.1433926 -4.7873993 4.787401 -4.7873993z" fill-rule="evenodd"/><path stroke="#000000" stroke-width="1.0" stroke-linejoin="round" stroke-linecap="butt" d="m8.728338 132.7034l0 0c2.6440096 0 4.787402 2.143402 4.787402 4.7873993l0 0c0 1.2696991 -0.50438595 2.4873962 -1.4021978 3.3852081c-0.8978119 0.8978119 -2.1155062 1.4022064 -3.3852043 1.4022064l0 0c-2.6440086 0 -4.787401 -2.143402 -4.787401 -4.7874146l0 0c0 -2.6439972 2.1433926 -4.7873993 4.787401 -4.7873993z" fill-rule="evenodd"/><path fill="#1f77b4" fill-opacity="0.4693" d="m143.16719 101.85957l0 0c0 -13.8027725 11.189362 -24.992126 24.992126 -24.992126l0 0c6.6283264 0 12.985168 2.6330872 17.672104 7.3200226c4.6869354 4.6869354 7.3200226 11.043777 7.3200226 17.672104l0 0c0 13.8027725 -11.189362 24.992126 -24.992126 24.992126l0 0c-13.802765 0 -24.992126 -11.189354 -24.992126 -24.992126z" fill-rule="evenodd"/><path stroke="#000000" stroke-width="1.0" stroke-linejoin="round" stroke-linecap="butt" d="m143.16719 101.85957l0 0c0 -13.8027725 11.189362 -24.992126 24.992126 -24.992126l0 0c6.6283264 0 12.985168 2.6330872 17.672104 7.3200226c4.6869354 4.6869354 7.3200226 11.043777 7.3200226 17.672104l0 0c0 13.8027725 -11.189362 24.992126 -24.992126 24.992126l0 0c-13.802765 0 -24.992126 -11.189354 -24.992126 -24.992126z" fill-rule="evenodd"/><path fill="#000000" d="m168.70776 98.47207l0 8.1875l-1.140625 0l0 -8.1875l-2.875 0l0 -0.984375l6.921875 0l-0.109375 0.984375l-2.796875 0zm2.2991638 -2.2693634l-5.71875 0l0 -0.859375l5.71875 0l0 0.859375z" fill-rule="nonzero"/><path fill="#1f77b4" fill-opacity="0.4693" d="m143.16719 30.59448l0 0c0 -13.802771 11.189362 -24.992126 24.992126 -24.992126l0 0c6.6283264 0 12.985168 2.6330914 17.672104 7.320024c4.6869354 4.6869335 7.3200226 11.043777 7.3200226 17.672102l0 0c0 13.802771 -11.189362 24.992125 -24.992126 24.992125l0 0c-13.802765 0 -24.992126 -11.189354 -24.992126 -24.992125z" fill-rule="evenodd"/><path stroke="#000000" stroke-width="1.0" stroke-linejoin="round" stroke-linecap="butt" d="m143.16719 30.59448l0 0c0 -13.802771 11.189362 -24.992126 24.992126 -24.992126l0 0c6.6283264 0 12.985168 2.6330914 17.672104 7.320024c4.6869354 4.6869335 7.3200226 11.043777 7.3200226 17.672102l0 0c0 13.802771 -11.189362 24.992125 -24.992126 24.992125l0 0c-13.802765 0 -24.992126 -11.189354 -24.992126 -24.992125z" fill-rule="evenodd"/><path fill="#000000" d="m168.70776 27.20698l0 8.187502l-1.140625 0l0 -8.187502l-2.875 0l0 -0.984375l6.921875 0l-0.109375 0.984375l-2.796875 0z" fill-rule="nonzero"/><path fill="#1f77b4" fill-opacity="0.4693" d="m144.93753 244.38976l0 0c0 -13.802765 11.189362 -24.992126 24.992126 -24.992126l0 0c6.6283264 0 12.985168 2.6330872 17.672104 7.3200226c4.6869354 4.6869354 7.3200226 11.043777 7.3200226 17.672104l0 0c0 13.80278 -11.189362 24.992142 -24.992126 24.992142l0 0c-13.802765 0 -24.992126 -11.189362 -24.992126 -24.992142z" fill-rule="evenodd"/><path stroke="#000000" stroke-width="1.0" stroke-linejoin="round" stroke-linecap="butt" d="m144.93753 244.38976l0 0c0 -13.802765 11.189362 -24.992126 24.992126 -24.992126l0 0c6.6283264 0 12.985168 2.6330872 17.672104 7.3200226c4.6869354 4.6869354 7.3200226 11.043777 7.3200226 17.672104l0 0c0 13.80278 -11.189362 24.992142 -24.992126 24.992142l0 0c-13.802765 0 -24.992126 -11.189362 -24.992126 -24.992142z" fill-rule="evenodd"/><path fill="#000000" d="m170.47812 241.00226l0 8.1875l-1.140625 0l0 -8.1875l-2.875 0l0 -0.984375l6.921875 0l-0.109375 0.984375l-2.796875 0zm2.2991638 -2.2693634l-5.71875 0l0 -0.859375l5.71875 0l0 0.859375z" fill-rule="nonzero"/><path fill="#1f77b4" fill-opacity="0.4693" d="m144.93753 173.12466l0 0c0 -13.802765 11.189362 -24.992126 24.992126 -24.992126l0 0c6.6283264 0 12.985168 2.6330872 17.672104 7.3200226c4.6869354 4.6869354 7.3200226 11.043777 7.3200226 17.672104l0 0c0 13.802765 -11.189362 24.992126 -24.992126 24.992126l0 0c-13.802765 0 -24.992126 -11.189362 -24.992126 -24.992126z" fill-rule="evenodd"/><path stroke="#000000" stroke-width="1.0" stroke-linejoin="round" stroke-linecap="butt" d="m144.93753 173.12466l0 0c0 -13.802765 11.189362 -24.992126 24.992126 -24.992126l0 0c6.6283264 0 12.985168 2.6330872 17.672104 7.3200226c4.6869354 4.6869354 7.3200226 11.043777 7.3200226 17.672104l0 0c0 13.802765 -11.189362 24.992126 -24.992126 24.992126l0 0c-13.802765 0 -24.992126 -11.189362 -24.992126 -24.992126z" fill-rule="evenodd"/><path fill="#000000" d="m170.47812 169.73717l0 8.1875l-1.140625 0l0 -8.1875l-2.875 0l0 -0.984375l6.921875 0l-0.109375 0.984375l-2.796875 0z" fill-rule="nonzero"/><path fill="#000000" fill-opacity="0.0" d="m12.102434 134.11697l48.566933 -49.51181" fill-rule="evenodd"/><path stroke="#000000" stroke-width="1.0" stroke-linejoin="round" stroke-linecap="butt" d="m12.102434 134.11697l44.365356 -45.228493" fill-rule="evenodd"/><path fill="#000000" stroke="#000000" stroke-width="1.0" stroke-linecap="butt" d="m57.64694 90.04513l1.9987106 -4.396332l-4.357006 2.0830383z" fill-rule="evenodd"/><path fill="#000000" fill-opacity="0.0" d="m12.113543 140.876l48.566933 49.51181" fill-rule="evenodd"/><path stroke="#000000" stroke-width="1.0" stroke-linejoin="round" stroke-linecap="butt" d="m12.113543 140.87602l44.365356 45.22847" fill-rule="evenodd"/><path fill="#000000" stroke="#000000" stroke-width="1.0" stroke-linecap="butt" d="m55.29975 187.26115l4.357006 2.083023l-1.9987106 -4.3963165z" fill-rule="evenodd"/><path fill="#000000" fill-opacity="0.0" d="m96.017586 49.271645l47.149605 -18.677164" fill-rule="evenodd"/><path stroke="#000000" stroke-width="1.0" stroke-linejoin="round" stroke-linecap="butt" d="m96.017586 49.271645l41.571327 -16.467464" fill-rule="evenodd"/><path fill="#000000" stroke="#000000" stroke-width="1.0" stroke-linecap="butt" d="m138.19722 34.339817l3.6108246 -3.2069416l-4.8274384 0.1356659z" fill-rule="evenodd"/><path fill="#000000" fill-opacity="0.0" d="m96.017586 84.59973l47.149605 17.259842" fill-rule="evenodd"/><path stroke="#000000" stroke-width="1.0" stroke-linejoin="round" stroke-linecap="butt" d="m96.017586 84.599724l41.51525 15.197304" fill-rule="evenodd"/><path fill="#000000" stroke="#000000" stroke-width="1.0" stroke-linecap="butt" d="m136.96504 101.3481l4.8293304 0.008934021l-3.6937408 -3.1110764z" fill-rule="evenodd"/><path fill="#000000" fill-opacity="0.0" d="m2.7017195 105.14316l35.33858 -35.37008l20.566929 20.566933l-35.338585 35.37008z" fill-rule="evenodd"/><path fill="#000000" d="m24.46772 110.712l-0.7620888 0.40905762l-2.5310173 -6.5747833l-2.4406395 2.44281l-0.53033066 -0.53032684l3.0701275 -3.0728607l0.48613548 0.48612976l2.7078133 6.8399734zm1.1925621 -11.981812l0.67378044 -0.14381409l1.6478233 8.785179l-0.6627369 0.13276672l-1.6588669 -8.774132zm2.8839016 3.9224625q-0.22087097 0.22106934 -0.19870567 0.55259705q0.022165298 0.3315277 0.41991425 0.72927094q0.36460114 0.36460114 0.7291336 0.41977692q0.3534851 0.044128418 0.574358 -0.17694092q0.23191643 -0.23212433 0.18765831 -0.5636444q-0.03321457 -0.34257507 -0.43096352 -0.7403259q-0.4087963 -0.4087906 -0.7291336 -0.4197693q-0.32034492 -0.033088684 -0.55226135 0.19903564zm-4.9267445 -0.860878q-0.22087288 0.22106934 -0.18765831 0.5636444q0.022167206 0.33152008 0.40886497 0.7182236q0.36460304 0.36460114 0.71809196 0.43082428q0.3534851 0.044128418 0.58540154 -0.18799591q0.23191452 -0.23212433 0.19870567 -0.5525894q-0.03321457 -0.34257507 -0.44201088 -0.7513733q-0.4087963 -0.40879822 -0.7291355 -0.41977692q-0.32034302 -0.033081055 -0.55225945 0.19904327zm-0.45298958 -0.4529953q0.35339546 -0.35370636 0.76208305 -0.43115234q0.41973114 -0.08850098 0.8174248 0.06612396q0.40873718 0.14356995 0.72914505 0.463974q0.32040787 0.32041168 0.46409798 0.7292633q0.15473366 0.39780426 0.07750702 0.82881165q-0.07723045 0.40890503 -0.43062782 0.7626114q-0.35339546 0.353714 -0.7731266 0.44221497q-0.41973686 0.06639862 -0.82847404 -0.077171326q-0.39769363 -0.15462494 -0.7181015 -0.47503662q-0.33145523 -0.33145142 -0.47514153 -0.7182083q-0.14369011 -0.40885162 -0.06645775 -0.81775665q0.08827591 -0.41996002 0.44167137 -0.773674zm4.915695 0.84983826q0.35339737 -0.353714 0.7731323 -0.4201126q0.41973114 -0.08850098 0.8174248 0.06612396q0.40873718 0.14356995 0.72914505 0.46398163q0.32040787 0.32040405 0.46409798 0.7292633q0.15473366 0.39779663 0.07750702 0.828804q-0.07723045 0.40890503 -0.43062592 0.762619q-0.34235382 0.342659 -0.76208496 0.43115997q-0.41973495 0.06639862 -0.82847214 -0.077171326q-0.40873718 -0.14357758 -0.72914505 -0.46398163q-0.33145714 -0.33145905 -0.47514725 -0.74031067q-0.14369011 -0.40885925 -0.06645775 -0.8177643q0.088274 -0.4199524 0.43062592 -0.7626114z" fill-rule="nonzero"/><path fill="#000000" fill-opacity="0.0" d="m96.02415 190.3845l48.913383 -17.259842" fill-rule="evenodd"/><path stroke="#000000" stroke-width="1.0" stroke-linejoin="round" stroke-linecap="butt" d="m96.02415 190.38452l43.255302 -15.263321" fill-rule="evenodd"/><path fill="#000000" stroke="#000000" stroke-width="1.0" stroke-linecap="butt" d="m139.82909 176.67882l3.7298584 -3.067688l-4.829117 -0.04751587z" fill-rule="evenodd"/><path fill="#000000" fill-opacity="0.0" d="m96.013565 225.72066l48.91339 18.677155" fill-rule="evenodd"/><path stroke="#000000" stroke-width="1.0" stroke-linejoin="round" stroke-linecap="butt" d="m96.013565 225.72066l43.30812 16.53685" fill-rule="evenodd"/><path fill="#000000" stroke="#000000" stroke-width="1.0" stroke-linecap="butt" d="m138.73248 243.80057l4.8287354 0.07575989l-3.6503296 -3.1618958z" fill-rule="evenodd"/><path fill="#000000" fill-opacity="0.0" d="m21.805548 147.77953l35.37008 35.307083l-20.566929 20.56694l-35.37008 -35.3071z" fill-rule="evenodd"/><path fill="#000000" d="m22.008049 164.65807q0.575037 0.5740204 0.68585587 1.2144928q0.12187004 0.6294403 -0.16522598 1.2921753q-0.28709412 0.66275024 -0.9389591 1.3146057q-0.7844467 0.78445435 -1.4917011 1.1602478q-0.6961975 0.38684082 -1.4036083 0.40924072q-0.6963539 0.033447266 -1.4812737 -0.24229431q-0.76281166 -0.27575684 -1.6915388 -0.8054352l0.3313284 -0.6185913q0.9508343 0.52967834 1.7246647 0.7281189q0.7738323 0.19844055 1.4590683 0.021438599q0.685236 -0.17700195 1.3592167 -0.8067932l0.37566185 -0.3535614q0.64081573 -0.64082336 0.91692924 -1.1379089q0.2871647 -0.50813293 0.22066689 -0.90567017q-0.044391632 -0.3975525 -0.40931702 -0.76182556q-0.49762726 -0.49674988 -1.0723896 -0.45231628q-0.5637016 0.0554657 -1.1603222 0.65208435q-0.5855732 0.58558655 -0.6185036 1.1046448q-0.010822296 0.5190582 0.43151474 0.9606018q0.387043 0.38635254 0.88448334 0.46343994q0.5084896 0.06604004 1.1274242 -0.06677246l-0.5524273 0.5524292q-0.56368256 0.09965515 -1.1053467 5.0354004E-4q-0.53061676 -0.110198975 -0.9729519 -0.5517578q-0.44233513 -0.44154358 -0.5752125 -0.9715729q-0.13287735 -0.53004456 0.032672882 -1.093338q0.18765831 -0.5633087 0.7069397 -1.0825958q0.5524273 -0.55241394 1.1492462 -0.70729065q0.6189251 -0.15489197 1.1827354 0.032592773q0.5859165 0.18748474 1.0503693 0.6511078zm4.3813686 4.351486q0.48656845 0.4857025 0.66366005 1.0157166q0.1881504 0.5410614 0.07783127 1.0270233q-0.08821106 0.4859619 -0.44176483 0.83950806q-0.32040787 0.3204193 -0.7182827 0.43103027q-0.38681793 0.12164307 -0.78477097 0.05557251q-0.38689613 -0.05505371 -0.7185993 -0.2757721q0.27647972 0.3201294 0.3872013 0.7397461q0.13282776 0.41960144 0.022491455 0.86138916q-0.09929085 0.43075562 -0.50808716 0.8395386q-0.4419403 0.4419403 -1.0387688 0.57473755q-0.5747223 0.13278198 -1.1938038 -0.06573486q-0.6080246 -0.18746948 -1.1498852 -0.72836304q-0.43127823 -0.43051147 -0.69682693 -1.0267487q-0.2655487 -0.5962372 -0.19952202 -1.2588806l0.7737808 0.08799744q-0.032949448 0.4748993 0.1330452 0.9055176q0.18810081 0.4306183 0.5087948 0.7507477q0.5418606 0.54089355 1.1166496 0.5627289q0.5968971 0.021820068 1.0830345 -0.46432495q0.3756504 -0.37564087 0.44181252 -0.72906494q0.088272095 -0.35343933 -0.066625595 -0.6846771q-0.15489578 -0.3312378 -0.46453094 -0.6403198l-0.43127632 -0.43051147l0.58564186 -0.43096924l0.29857635 0.29804993q0.25434303 0.253891 0.5639 0.38627625q0.33166122 0.13237 0.6742954 0.07699585q0.35368156 -0.06640625 0.66304016 -0.3757782q0.41984558 -0.41984558 0.3532982 -0.92781067q-0.055498123 -0.5190277 -0.46465874 -0.9274597q-0.34280968 -0.3421936 -0.71868706 -0.4745636q-0.3537693 -0.13235474 -0.86223984 -0.15422058l0.04389 -0.7288971q0.6411114 0.02180481 1.1496677 0.2424469q0.5196171 0.23168945 0.9177189 0.6290741zm6.3607807 6.2390747l0.14399338 0.673584l-8.786772 1.6494293l-0.13293839 -0.66256714l8.775717 -1.6604462zm-3.922697 2.8841248q-0.22116852 -0.22076416 -0.552763 -0.1985321q-0.33159447 0.022232056 -0.7293415 0.4199829q-0.36460114 0.3645935 -0.41970634 0.72906494q-0.044057846 0.3534088 0.17711067 0.57418823q0.23222542 0.23181152 0.56381035 0.18748474q0.34264183 -0.03327942 0.7403908 -0.43103027q0.4087963 -0.40879822 0.41970634 -0.72906494q0.033018112 -0.32028198 -0.1992073 -0.5520935zm0.8599758 -4.9258423q-0.22116852 -0.22076416 -0.56381035 -0.18748474q-0.33159447 0.022232056 -0.71829414 0.40893555q-0.36460114 0.3645935 -0.43076515 0.71803284q-0.04405594 0.3534088 0.18816948 0.58522034q0.23222733 0.23181152 0.552763 0.19854736q0.34264183 -0.033294678 0.75143814 -0.4420929q0.4087963 -0.40878296 0.41970825 -0.72906494q0.033016205 -0.32028198 -0.19920921 -0.5520935zm0.45298958 -0.45298767q0.35386848 0.35324097 0.4314251 0.76182556q0.08861542 0.4196167 -0.065956116 0.8172455q-0.14351273 0.4086914 -0.4639206 0.72909546q-0.32040787 0.32040405 -0.72932243 0.4641571q-0.39785576 0.15478516 -0.8289757 0.07766724q-0.40901375 -0.07711792 -0.76288223 -0.4303589q-0.35386848 -0.35324097 -0.442482 -0.77285767q-0.06650734 -0.4196167 0.07700539 -0.8283081q0.15457153 -0.39762878 0.4749794 -0.7180481q0.33145523 -0.33145142 0.7182636 -0.4751892q0.40891457 -0.14375305 0.8179264 -0.06661987q0.42007256 0.088150024 0.77393913 0.441391zm-0.84892654 4.914795q0.35386848 0.35324097 0.42037582 0.77285767q0.08861351 0.41963196 -0.065956116 0.81726074q-0.14351463 0.40867615 -0.4639225 0.72909546q-0.32040787 0.32040405 -0.72932243 0.4641571q-0.39785576 0.15478516 -0.8289757 0.07766724q-0.40901184 -0.07711792 -0.7628803 -0.4303589q-0.34280968 -0.3421936 -0.4314251 -0.76182556q-0.06650734 -0.4196167 0.07700539 -0.82829285q0.14351273 -0.40867615 0.4639206 -0.72909546q0.33145714 -0.33145142 0.7403717 -0.47520447q0.40891457 -0.14375305 0.8179264 -0.06661987q0.42007256 0.08816528 0.76288223 0.4303589z" fill-rule="nonzero"/><path fill="#000000" fill-opacity="0.0" d="m85.14834 26.373037l55.086617 -21.889763l10.708664 27.02362l-55.086617 21.889765z" fill-rule="evenodd"/><path fill="#000000" d="m100.72079 32.8852q0.7550659 -0.3000412 1.3869171 -0.14759827q0.626091 0.13791656 1.1204605 0.6644478q0.4943695 0.5265312 0.833992 1.3835678q0.4086914 1.0313492 0.47293854 1.8296776q0.07876587 0.79255676 -0.18141174 1.4507904q-0.2456665 0.652462 -0.81025696 1.2635231q-0.5558319 0.5907631 -1.4105759 1.2330551l-0.43628693 -0.54961014q0.86351013 -0.6625862 1.3527527 -1.2941475q0.48924255 -0.63155746 0.59872437 -1.3307877q0.10948181 -0.6992264 -0.20109558 -1.5678024l-0.17543793 -0.4851303q-0.3338623 -0.84251404 -0.68053436 -1.2932243q-0.35243225 -0.46523666 -0.74370575 -0.5619583q-0.38251495 -0.11701584 -0.86169434 0.073394775q-0.6534271 0.259655 -0.840744 0.804863q-0.17279816 0.53944016 0.13803864 1.3238487q0.30508423 0.7698822 0.76844025 1.0060921q0.4721222 0.21591568 1.052948 -0.014888763q0.50821686 -0.20195007 0.77638245 -0.62796783q0.26241302 -0.4405403 0.38615417 -1.061367l0.28781128 0.7263031q-0.13224792 0.55695343 -0.43821716 1.0148048q-0.31172943 0.44332504 -0.8925476 0.6741295q-0.5808258 0.23080063 -1.1200562 0.14243317q-0.53923035 -0.08836746 -0.9905548 -0.4638672q-0.44256592 -0.39579773 -0.7131119 -1.0785217q-0.28781128 -0.7263031 -0.1931076 -1.3355904q0.10346222 -0.62958145 0.49930573 -1.0727081q0.40460968 -0.46342087 1.014473 -0.70576096zm5.732834 -2.2948704q0.6389084 -0.25388145 1.1956635 -0.20610619q0.57128143 0.04200554 0.9735489 0.3361187q0.41103363 0.27381706 0.5952301 0.7386513q0.16693115 0.4212551 0.110557556 0.83036613q-0.04184723 0.4033394 -0.260437 0.7424011q-0.20407104 0.3332901 -0.53829956 0.5501747q0.40356445 -0.1267395 0.83264923 -0.061855316q0.43784332 0.04458618 0.79956055 0.32118607q0.35595703 0.26207733 0.5689392 0.7995415q0.2302475 0.5810394 0.11527252 1.181572q-0.1062088 0.5802345 -0.5341034 1.0697212q-0.41337585 0.48371506 -1.1248856 0.766449q-0.56629944 0.2250328 -1.2189484 0.23217392q-0.6526413 0.0071372986 -1.2346573 -0.31642914l0.38786316 -0.67533875q0.4228058 0.2186966 0.883934 0.23721695q0.4698944 -0.0017738342 0.8909912 -0.16910553q0.7115097 -0.2827301 0.95965576 -0.8016739q0.25691223 -0.539238 0.0036392212 -1.1783829q-0.19570923 -0.49388885 -0.4938507 -0.6948738q-0.28936768 -0.22127914 -0.6548691 -0.2105484q-0.3655014 0.010734558 -0.77207947 0.17229462l-0.56630707 0.2250328l-0.16313934 -0.70859146l0.3920517 -0.15578842q0.33397675 -0.13271332 0.5783386 -0.36432266q0.25312805 -0.25190353 0.33827972 -0.5883827q0.07939911 -0.35100555 -0.08177185 -0.7577362q-0.21874237 -0.5519905 -0.7114029 -0.69249153q-0.4984131 -0.15502548 -1.035675 0.058465958q-0.4501419 0.17887115 -0.7207947 0.4713688q-0.2618866 0.27220345 -0.48374176 0.73025703l-0.6516113 -0.32954025q0.27444458 -0.5798321 0.67879486 -0.95908356q0.4188614 -0.3850193 0.9416046 -0.592741zm7.816231 4.0229588q-0.09210205 -0.23241806 -0.05076599 -0.46741867q0.035575867 -0.24952316 0.17829132 -0.4407425q0.15724182 -0.19699097 0.40409088 -0.2950821q0.24684906 -0.098091125 0.4961853 -0.06266022q0.24933624 0.035427094 0.43157196 0.1984024q0.19099426 0.1426773 0.2830963 0.37509537q0.097854614 0.24694061 0.062278748 0.4964676q-0.021057129 0.24375534 -0.17829895 0.4407425q-0.15723419 0.19699097 -0.40408325 0.2950821q-0.24684906 0.098091125 -0.49619293 0.06266022q-0.2348175 -0.041194916 -0.43156433 -0.1984024q-0.19675446 -0.15720367 -0.29460907 -0.4041443zm7.1048584 -7.951353q0.19571686 0.49388504 0.04044342 0.9927349q-0.161026 0.4843216 -0.6064453 1.0144005q0.77731323 0.0105724335 1.353569 0.31961632q0.59077454 0.30327225 0.838295 0.9278927q0.21873474 0.5519905 0.10677338 1.1176987q-0.11772919 0.5511837 -0.5368576 1.0203743q-0.42488098 0.45466614 -1.1509094 0.7431679q-0.72602844 0.28850174 -1.3466263 0.24927902q-0.61183167 -0.059516907 -1.0604172 -0.3856697q-0.4340515 -0.33192062 -0.6527939 -0.88391113q-0.24752045 -0.62462044 -0.05718994 -1.2046528q0.20484924 -0.5858021 0.7198639 -1.109909q-0.64087677 -0.047977448 -1.060669 -0.3014984q-0.4197998 -0.25352097 -0.6500473 -0.8345642q-0.1842041 -0.4648342 -0.1278305 -0.8739433q0.056373596 -0.40910912 0.27496338 -0.74817276q0.21858978 -0.33906174 0.5267868 -0.57922363q0.3227234 -0.24593353 0.6712189 -0.38441467q0.36301422 -0.14425087 0.7663193 -0.18682098q0.40331268 -0.042568207 0.78006744 0.059923172q0.38552094 0.082193375 0.69216156 0.34705162q0.30088043 0.2503338 0.47932434 0.70064163zm0.74586487 3.6211433q-0.1842041 -0.4648342 -0.5201416 -0.6339817q-0.3416977 -0.18367577 -0.8173523 -0.19642639q-0.47564697 -0.012752533 -1.1022644 0.017671585q-0.22408295 0.24036407 -0.3903427 0.5418205q-0.17201996 0.28693008 -0.1963501 0.6496773q-0.030075073 0.34822083 0.14260864 0.7840042q0.22449493 0.56651497 0.7053833 0.76213264q0.4954071 0.18984985 1.2069168 -0.09288406q0.7115097 -0.2827301 0.9508896 -0.7813778q0.23363495 -0.51317215 0.020652771 -1.0506363zm-3.9899673 -2.26478q0.1554184 0.39220428 0.42176056 0.55537987q0.27511597 0.1428814 0.66664886 0.15542984q0.40029907 -0.007745743 0.9137573 -0.026830673q0.369812 -0.46640587 0.49277496 -0.8347225q0.1317215 -0.38861275 -0.052474976 -0.85344505q-0.20146942 -0.5084133 -0.64180756 -0.6865196q-0.4403305 -0.17810631 -1.0211563 0.052696228q-0.5808258 0.23080063 -0.7939148 0.66856q-0.19857025 0.43198776 0.014411926 0.9694519zm8.457687 -5.512951l0.67541504 0.13513565l-1.9731979 8.720024l-0.6608963 -0.14090538l1.9586792 -8.714254zm1.0904617 4.74522q-0.2904129 0.115400314 -0.4016037 0.4285984q-0.11118317 0.31319618 0.09603882 0.83613586q0.18995667 0.47935867 0.50260925 0.6745739q0.30690765 0.18068886 0.5973129 0.06528854q0.30493164 -0.12117195 0.3958435 -0.44312477q0.10543823 -0.32772446 -0.10179138 -0.85066223q-0.21298218 -0.53746414 -0.50260925 -0.6745739q-0.28086853 -0.15740776 -0.5858002 -0.03623581zm-4.179924 -2.7441406q-0.2904129 0.115400314 -0.3958435 0.44312477q-0.111190796 0.31319618 0.090278625 0.8216095q0.18995667 0.47936058 0.48809052 0.6803436q0.30690002 0.18068886 0.61183167 0.059518814q0.30493164 -0.12117195 0.4016037 -0.4285984q0.1054306 -0.32772446 -0.107551575 -0.8651886q-0.21298218 -0.53746414 -0.50260925 -0.6745739q-0.28086853 -0.15740776 -0.5858002 -0.03623581zm-0.23600769 -0.5955696q0.46466064 -0.18464088 0.8704529 -0.09369087q0.4203186 0.08518028 0.72395325 0.384861q0.31815338 0.29391098 0.48508453 0.715168q0.16693115 0.4212551 0.13658905 0.85364723q-0.015823364 0.4266224 -0.25769806 0.79174995q-0.23310852 0.34483147 -0.69776154 0.52947235q-0.46466064 0.18464279 -0.88497925 0.09946251q-0.41155243 -0.10547638 -0.7297058 -0.39938736q-0.30363464 -0.2996807 -0.4705658 -0.7209377q-0.17268372 -0.43578148 -0.15110779 -0.8478775q0.030342102 -0.43239212 0.26345062 -0.7772236q0.24762726 -0.3506012 0.7122879 -0.535244zm4.174164 2.7296143q0.46466064 -0.18464088 0.8762131 -0.079164505q0.4203186 0.08518028 0.72395325 0.384861q0.31814575 0.29391098 0.4850769 0.7151661q0.16693115 0.42125702 0.13659668 0.85364914q-0.015823364 0.4266224 -0.25769043 0.79174995q-0.23310852 0.34483147 -0.69776917 0.52947235q-0.45013428 0.17887115 -0.8704605 0.09369087q-0.41155243 -0.10547447 -0.7297058 -0.39938545q-0.31815338 -0.29391098 -0.48508453 -0.715168q-0.17268372 -0.43578148 -0.14234161 -0.8681736q0.030334473 -0.43239212 0.26345062 -0.7772236q0.24762726 -0.3506012 0.69776154 -0.52947426z" fill-rule="nonzero"/><path fill="#000000" fill-opacity="0.0" d="m98.1109 78.48542l46.803146 17.574806l-10.204727 27.212593l-46.803146 -17.574799z" fill-rule="evenodd"/><path fill="#000000" d="m105.74756 93.943504q0.39495087 0.14830017 0.69298553 0.37704468q0.29803467 0.2287445 0.5192642 0.52879333l-0.5503998 0.44424438q-0.17918396 -0.23418427 -0.41505432 -0.40620422q-0.23586273 -0.17202759 -0.51379395 -0.27639008q-0.55584717 -0.20872498 -1.0733261 0.014221191q-0.51747894 0.22293854 -0.9746399 0.81903076q-0.43704224 0.5869446 -0.7625656 1.4995117l-0.12069702 0.32186127q-0.47731018 1.2728195 -0.36032104 1.9843597q0.11698151 0.7115402 0.8776245 0.99716187q0.6436157 0.24168396 1.1355057 -0.09101105q0.5119934 -0.3418274 0.8137436 -1.1464844q0.31272125 -0.8339157 0.096977234 -1.2821198q-0.21025085 -0.46282196 -0.7514725 -0.6660538q-0.54122925 -0.20323181 -1.0715027 -0.03517151q-0.53027344 0.16806793 -0.965477 0.57211304l0.26516724 -0.75162506q0.5504074 -0.44424438 1.0678787 -0.5336685q0.5375824 -0.09855652 1.0934372 0.11016846q0.52659607 0.19773865 0.8776474 0.5966034q0.35105133 0.39886475 0.43330383 0.9805298q0.09687805 0.5871582 -0.17743683 1.3186646q-0.28528595 0.7607727 -0.780838 1.1922302q-0.49554443 0.43145752 -1.1026154 0.53730774q-0.59243774 0.111343384 -1.1921768 -0.113861084q-0.6289902 -0.2361908 -0.9800415 -0.63505554q-0.33094025 -0.40800476 -0.4442749 -0.95127106q-0.09870911 -0.53777313 6.866455E-5 -1.2016754q0.118888855 -0.67303467 0.4041748 -1.4338074q0.42793274 -1.1411514 1.0332031 -1.8652115q0.61990356 -0.7185745 1.3604584 -0.95788574q0.7606735 -0.24845886 1.5651932 0.053649902zm2.4161758 7.983963q0.08778381 -0.23408508 0.27612305 -0.38033295q0.1938324 -0.16088104 0.42787933 -0.20652008q0.24868011 -0.040138245 0.4973526 0.053237915q0.24867249 0.09337616 0.4095688 0.28731537q0.1608963 0.19393921 0.18648529 0.43721008q0.045700073 0.23413849 -0.04208374 0.46821594q-0.09326935 0.24871826 -0.28709412 0.40959167q-0.17920685 0.1663742 -0.42788696 0.20652008q-0.24867249 0.040138245 -0.49734497 -0.053237915q-0.24867249 -0.09337616 -0.4095688 -0.28731537q-0.14627075 -0.18844604 -0.18648529 -0.43721008q-0.04021454 -0.24876404 0.05305481 -0.49747467zm8.897018 -3.7358093q0.64362335 0.24168396 1.0038147 0.66067505q0.3748169 0.42447662 0.45890045 0.9567566q0.08956909 0.5176544 -0.11891174 1.0736008q-0.17556 0.46816254 -0.5065384 0.8612747q-0.3309784 0.3931198 -0.8832092 0.7532196q-0.55223083 0.36010742 -1.3622742 0.7402344q-0.81005096 0.38012695 -1.9492264 0.8369446l3.2327194 1.2138977l-0.37122345 0.67842865l-4.081131 -1.532486l0.25785828 -0.68761444q1.055069 -0.4550171 1.804779 -0.8077316q0.764328 -0.34722137 1.274498 -0.6396713q0.51017 -0.29244232 0.84114075 -0.5520401q0.3364563 -0.27422333 0.5248108 -0.5539932q0.20298004 -0.27427673 0.3291626 -0.6107712q0.2194519 -0.5852051 0.0037155151 -1.0334015q-0.1956253 -0.45733643 -0.76610565 -0.67155457q-0.5119705 -0.19224548 -0.89962006 -0.13752747q-0.3876419 0.054725647 -0.85209656 0.31427002l-0.41503143 -0.6732483q0.5961075 -0.34362793 1.1812286 -0.39095306q0.5906143 -0.061958313 1.2927399 0.20169067zm8.353592 3.05336l0.40955353 0.55435944l-7.3142853 5.1312637l-0.39492798 -0.5488663l7.2996597 -5.136757zm-2.3772888 4.247925q-0.29254913 -0.10985565 -0.58512115 0.047325134q-0.2925644 0.15718842 -0.49007416 0.68387604q-0.18104553 0.4827881 -0.08049774 0.83766174q0.106033325 0.34024048 0.39858246 0.45009613q0.3071823 0.115348816 0.5906143 -0.061958313q0.29804993 -0.17181396 0.4955597 -0.69849396q0.2029953 -0.5413208 0.08049774 -0.8376694q-0.102378845 -0.3054886 -0.40956116 -0.4208374zm-1.2540817 -4.8437653q-0.29255676 -0.10985565 -0.5906143 0.061958313q-0.2925644 0.15718079 -0.48458862 0.6692352q-0.18104553 0.48279572 -0.09512329 0.8321762q0.106033325 0.34024048 0.41321564 0.4555893q0.3071823 0.115348816 0.58512115 -0.047332764q0.29805756 -0.17181396 0.5010452 -0.71312714q0.2029953 -0.5413132 0.08050537 -0.83766174q-0.102378845 -0.3054886 -0.40956116 -0.4208374zm0.22493744 -0.59983826q0.46808624 0.17576599 0.70760345 0.5160599q0.25414276 0.34578705 0.27788544 0.771965q0.038375854 0.4316635 -0.12072754 0.8559418q-0.1591034 0.42427063 -0.47179413 0.72411346q-0.29805756 0.30532837 -0.7222824 0.4130783q-0.4040985 0.098609924 -0.87218475 -0.07715607q-0.46808624 -0.17576599 -0.722229 -0.52155304q-0.23403168 -0.35492706 -0.27240753 -0.7865906q-0.023750305 -0.42617798 0.13535309 -0.8504486q0.16458893 -0.4389038 0.45716858 -0.7296066q0.31269073 -0.29984283 0.7167969 -0.39845276q0.4187317 -0.09311676 0.88681793 0.08264923zm1.2595749 4.8291397q0.46808624 0.17576599 0.7021103 0.53069305q0.25414276 0.34578705 0.27789307 0.7719574q0.038375854 0.43167114 -0.12072754 0.8559418q-0.1591034 0.42427063 -0.47179413 0.72411346q-0.2980652 0.305336 -0.7222824 0.41308594q-0.40410614 0.098609924 -0.8721924 -0.0771637q-0.45345306 -0.17027283 -0.7075958 -0.5160599q-0.23403168 -0.35491943 -0.27240753 -0.7865906q-0.038375854 -0.4316635 0.12072754 -0.8559418q0.16458893 -0.4389038 0.47727966 -0.73874664q0.31269073 -0.2998352 0.7167969 -0.39844513q0.4187317 -0.09312439 0.8721924 0.07715607z" fill-rule="nonzero"/><path fill="#000000" fill-opacity="0.0" d="m86.78456 164.80629l47.11812 -16.724411l9.732285 27.370071l-47.11812 16.724411z" fill-rule="evenodd"/><path fill="#000000" d="m101.96866 171.9241l0.8114929 0.043563843l-0.28586578 5.0257416l3.6812363 -1.3066406l0.24080658 0.6772156l-4.57946 1.6254578l-0.21986389 -0.61831665l0.35165405 -5.4470215zm2.6271286 2.1182404l1.5338135 4.3135376l-0.8245926 0.2926941l-0.7799988 -2.193573l-0.63601685 -2.161789l0.70679474 -0.25086975zm4.9847794 2.2098846q-0.08375549 -0.23554993 -0.03401184 -0.46875q0.044517517 -0.2479248 0.19406128 -0.43363953q0.1642685 -0.19094849 0.41458893 -0.27980042q0.25032806 -0.08885193 0.49835205 -0.04425049q0.24803162 0.04460144 0.4243927 0.21412659q0.18585205 0.14958191 0.26961517 0.38513184q0.08898926 0.25027466 0.04447937 0.4981842q-0.029785156 0.2427063 -0.19406128 0.4336548q-0.1642685 0.19094849 -0.41458893 0.27980042q-0.25032806 0.08883667 -0.49835205 0.04423523q-0.23330688 -0.049819946 -0.4243927 -0.21412659q-0.19108582 -0.16429138 -0.2800827 -0.41456604zm4.4390945 -8.605591l0.8114929 0.043563843l-0.28585815 5.0257416l3.6812286 -1.3066406l0.24080658 0.6772156l-4.5794525 1.6254578l-0.21986389 -0.61831665l0.35164642 -5.4470215zm2.6271362 2.1182404l1.5338135 4.3135376l-0.8246002 0.2926941l-0.77999115 -2.193573l-0.6360245 -2.161789l0.70680237 -0.25086975zm5.6840057 -5.1511536l0.67046356 0.15994263l-2.2853012 8.636963l-0.6557312 -0.16517639l2.2705688 -8.631729zm0.9202652 4.780014q-0.29449463 0.104537964 -0.41688538 0.41325378q-0.12239075 0.30873108 0.06606293 0.8387146q0.17275238 0.48583984 0.47836304 0.6923828q0.3003769 0.19181824 0.5948715 0.08729553q0.309227 -0.10977173 0.41165924 -0.42797852q0.11715698 -0.3234558 -0.07129669 -0.85343933q-0.19369507 -0.5447235 -0.47836304 -0.6923828q-0.27518463 -0.16760254 -0.5844116 -0.05784607zm-4.0809174 -2.895462q-0.29450226 0.104522705 -0.41165924 0.42797852q-0.12239075 0.30871582 0.060829163 0.82398987q0.17275238 0.48582458 0.4636383 0.6976013q0.3003769 0.19181824 0.6096039 0.08206177q0.30921936 -0.10975647 0.41688538 -0.41325378q0.11715698 -0.3234558 -0.07653046 -0.86816406q-0.19368744 -0.54470825 -0.47836304 -0.69236755q-0.27518463 -0.16760254 -0.584404 -0.05784607zm-0.21463013 -0.6036072q0.47119904 -0.16725159 0.8736725 -0.061401367q0.41719055 0.100616455 0.71003723 0.4111786q0.3075714 0.30532837 0.4593811 0.7322693q0.15181732 0.42692566 0.10598755 0.85769653q-0.031105042 0.42555237 -0.28601837 0.78131104q-0.24543 0.33581543 -0.7166214 0.503067q-0.47119904 0.16725159 -0.8883972 0.06661987q-0.4077072 -0.12055969 -0.7152786 -0.42588806q-0.29284668 -0.31056213 -0.44465637 -0.73750305q-0.15704346 -0.4416504 -0.12070465 -0.852478q0.045822144 -0.43077087 0.29125214 -0.7665863q0.2601471 -0.34103394 0.73134613 -0.5082855zm4.0756836 2.8807526q0.47119904 -0.16725159 0.87890625 -0.046691895q0.41719818 0.100631714 0.71004486 0.4111786q0.3075714 0.30534363 0.4593811 0.7322693q0.15180969 0.42694092 0.10597992 0.8577118q-0.031097412 0.4255371 -0.28601837 0.78131104q-0.24542236 0.33580017 -0.7166214 0.50305176q-0.4564743 0.16203308 -0.8736725 0.061416626q-0.40769958 -0.12057495 -0.715271 -0.42590332q-0.3075714 -0.30532837 -0.4593811 -0.7322693q-0.15705109 -0.44166565 -0.11122131 -0.8724365q0.045829773 -0.43075562 0.29125214 -0.76657104q0.26015472 -0.3410492 0.7166214 -0.503067z" fill-rule="nonzero"/><path fill="#000000" fill-opacity="0.0" d="m98.147446 219.97621l54.29921 19.46457l-9.826767 27.370071l-54.299217 -19.464554z" fill-rule="evenodd"/><path fill="#000000" d="m105.52891 235.16014q0.7648468 0.27416992 1.1382141 0.8063812q0.37865448 0.51750183 0.40166473 1.2394867q0.023010254 0.72198486 -0.28850555 1.5896301q-0.3748703 1.0441132 -0.8542175 1.6856232q-0.46463776 0.6467743 -1.0948334 0.9686127q-0.6154938 0.32711792 -1.4429398 0.41227722q-0.8074646 0.07571411 -1.8732605 -0.0075683594l0.035820007 -0.7008972q1.0857925 0.07385254 1.8702469 -0.07650757q0.78445435 -0.1503601 1.3286667 -0.60261536q0.54421234 -0.4522705 0.88513947 -1.309372l0.18894958 -0.48002625q0.30622864 -0.8529358 0.34394073 -1.4203644q0.04299164 -0.58213806 -0.18668365 -0.91345215q-0.20969391 -0.34074402 -0.695076 -0.51474q-0.6618805 -0.23725891 -1.1627274 0.047958374q-0.48612976 0.29049683 -0.77124786 1.08461q-0.27983093 0.77941895 -0.08824158 1.2630615q0.21157837 0.47421265 0.7999191 0.68510437q0.5147934 0.1845398 0.9975357 0.04222107q0.48802185 -0.1570282 0.991127 -0.5410309l-0.26399994 0.7352905q-0.46727753 0.33044434 -0.99942017 0.47166443q-0.5268631 0.12651062 -1.1152039 -0.08439636q-0.58834076 -0.21089172 -0.9345627 -0.6337738q-0.3462143 -0.42289734 -0.43672943 -1.0030975q-0.07053375 -0.5896301 0.17762756 -1.2808075q0.2639923 -0.7352905 0.7376785 -1.129837q0.49367523 -0.4039917 1.0835266 -0.4747162q0.60983276 -0.08016968 1.2275925 0.14128113zm7.972763 2.9575806l-0.3605423 0.63427734l-2.7357864 -0.9806824l-0.7814255 2.176468q0.3816681 -0.045776367 0.682251 -0.00440979q0.3058548 0.026641846 0.61473846 0.13737488q0.5589218 0.2003479 0.8957138 0.6032562q0.33678436 0.40290833 0.39260864 0.9872589q0.06109619 0.5696564 -0.18177795 1.2461243q-0.24815369 0.69117737 -0.7324066 1.1151428q-0.4642563 0.41453552 -1.0993576 0.51882935q-0.61511993 0.09487915 -1.3211288 -0.15820312q-0.6324692 -0.22671509 -1.0386505 -0.6213074q-0.40618134 -0.39457703 -0.660759 -0.9339905l0.6943207 -0.3154602q0.1927185 0.43424988 0.5023575 0.727829q0.3149109 0.27886963 0.75616455 0.43704224q0.69129944 0.247818 1.2068558 -0.03213501q0.5302582 -0.27468872 0.81536865 -1.0688019q0.20063782 -0.55882263 0.15500641 -0.9403534q-0.045639038 -0.38153076 -0.29228973 -0.61932373q-0.22666168 -0.24723816 -0.56495667 -0.368515q-0.30888367 -0.11071777 -0.56533813 -0.13626099q-0.25645447 -0.025527954 -0.592865 -0.013336182l-0.67658997 -0.24253845l1.2407761 -3.4558868l3.6477127 1.3076019zm1.0518646 7.2986603q0.084480286 -0.23529053 0.2707901 -0.3842926q0.19158173 -0.16369629 0.42503357 -0.21279907q0.24816132 -0.0438385 0.4982071 0.045791626q0.25004578 0.08963013 0.4137268 0.2810974q0.16368103 0.19146729 0.1927185 0.43424988q0.04902649 0.23336792 -0.035446167 0.46865845q-0.08975983 0.25 -0.28134918 0.4136963q-0.17687988 0.16897583 -0.42503357 0.21281433q-0.24816132 0.043823242 -0.4982071 -0.045806885q-0.25004578 -0.08963013 -0.4137268 -0.2810974q-0.14897156 -0.18618774 -0.1927185 -0.43424988q-0.04374695 -0.24806213 0.04600525 -0.49806213zm9.507698 -3.6295776q0.39713287 0.14234924 0.69847107 0.3665619q0.30133057 0.22421265 0.5268631 0.5208435l-0.54421234 0.45225525q-0.18253326 -0.2314148 -0.4208908 -0.39985657q-0.23834991 -0.16844177 -0.51781464 -0.26861572q-0.5589218 -0.2003479 -1.0733414 0.030212402q-0.51441956 0.2305603 -0.9632187 0.8332062q-0.4288025 0.5932312 -0.74144745 1.5102692l-0.11615753 0.3235321q-0.45935822 1.2794037 -0.3322525 1.9889069q0.12709808 0.7095032 0.8919449 0.9836731q0.647171 0.23199463 1.1344376 -0.1078949q0.50725555 -0.34931946 0.79764557 -1.1581421q0.30095673 -0.8382263 0.078819275 -1.2830353q-0.21685791 -0.45950317 -0.7610779 -0.6545868q-0.54421234 -0.19508362 -1.0722122 -0.019180298q-0.52799225 0.17590332 -0.9575577 0.58625793l0.25457 -0.7552643q0.54421234 -0.4522705 1.0605164 -0.5493622q0.536293 -0.10652161 1.0952148 0.093826294q0.5295105 0.18981934 0.8862915 0.5832825q0.35677338 0.3934784 0.4472885 0.9736786q0.10522461 0.5854645 -0.1587677 1.3207703q-0.27455902 0.7646942 -0.76408386 1.2033691q-0.48952484 0.43865967 -1.0952148 0.5535126q-0.5909805 0.12013245 -1.1940308 -0.09605408q-0.63246155 -0.22671509 -0.98924255 -0.6201782q-0.336792 -0.40290833 -0.45785522 -0.94425964q-0.10635376 -0.53608704 -0.016975403 -1.2011871q0.10936737 -0.67453 0.3839264 -1.4392395q0.4118271 -1.1470642 1.006958 -1.8798523q0.60983276 -0.72750854 1.3471375 -0.9777527q0.75730133 -0.25968933 1.5662689 0.030303955zm7.736679 2.6903534l0.41749573 0.5480194l-7.2429733 5.238159l-0.40279388 -0.5427551l7.2282715 -5.2434235zm-2.3175201 4.281601q-0.2941742 -0.10543823 -0.5845642 0.056030273q-0.29040527 0.16148376 -0.480484 0.69088745q-0.17422485 0.4853058 -0.06863403 0.8385315q0.11088562 0.33851624 0.4050598 0.44396973q0.30888367 0.11071777 0.58984375 -0.070739746q0.2956848 -0.17617798 0.48576355 -0.7055969q0.19534302 -0.54411316 0.06863403 -0.83851624q-0.10673523 -0.303833 -0.4156189 -0.41456604zm-1.3230286 -4.8230896q-0.2941742 -0.10545349 -0.5898514 0.070739746q-0.29039764 0.1614685 -0.47519684 0.676178q-0.17423248 0.48529053 -0.083343506 0.83325195q0.11088562 0.33851624 0.41976166 0.44924927q0.30887604 0.11071777 0.58457184 -0.056030273q0.29566956 -0.17617798 0.49102783 -0.7203064q0.19535828 -0.54411316 0.06863403 -0.83851624q-0.10673523 -0.303833 -0.41560364 -0.41456604zm0.21647644 -0.6029358q0.4706726 0.16871643 0.7150574 0.5052948q0.25909424 0.3418579 0.28889465 0.7675171q0.044509888 0.4309082 -0.10861206 0.8573761q-0.15312195 0.42648315 -0.46162415 0.7308502q-0.29379272 0.3096466 -0.71655273 0.42367554q-0.40279388 0.104599 -0.8734665 -0.06413269q-0.4706726 -0.16871643 -0.72976685 -0.51057434q-0.23911285 -0.35128784 -0.2836151 -0.7822113q-0.029800415 -0.42564392 0.12332153 -0.8521118q0.15839386 -0.44117737 0.44690704 -0.7361145q0.3085022 -0.30438232 0.71128845 -0.40898132q0.4174881 -0.09931946 0.88816833 0.06941223zm1.3283081 4.80838q0.4706726 0.16873169 0.70977783 0.52001953q0.2591095 0.3418579 0.28889465 0.76750183q0.044509888 0.4309082 -0.10861206 0.85739136q-0.15310669 0.4264679 -0.4616089 0.73083496q-0.29379272 0.30966187 -0.716568 0.42367554q-0.40278625 0.104599 -0.87345886 -0.06411743q-0.45596313 -0.16345215 -0.715065 -0.50531006q-0.23910522 -0.35128784 -0.2836151 -0.7822113q-0.04450226 -0.43092346 0.10861206 -0.85739136q0.15840149 -0.44117737 0.46689606 -0.74554443q0.3085022 -0.30438232 0.71128845 -0.40898132q0.41749573 -0.09931946 0.87345886 0.06413269z" fill-rule="nonzero"/></g></svg>