<svg version="1.1" viewBox="0.0 0.0 178.39107611548556 243.98162729658793" fill="none" stroke="none" stroke-linecap="square" stroke-miterlimit="10" xmlns:xlink="http://www.w3.org/1999/xlink" xmlns="http://www.w3.org/2000/svg"><clipPath id="p.0"><path d="m0 0l178.39108 0l0 243.98163l-178.39108 0l0 -243.98163z" clip-rule="nonzero"/></clipPath><g clip-path="url(#p.0)"><path fill="#000000" fill-opacity="0.0" d="m0 0l178.39108 0l0 243.98163l-178.39108 0z" fill-rule="evenodd"/><path fill="#1f77b4" fill-opacity="0.4693" d="m119.634384 29.253273l0 0c0 -13.80277 11.189346 -24.992126 24.992126 -24.992126l0 0c6.6283264 0 12.985168 2.6330914 17.672104 7.320024c4.68692 4.6869335 7.3200226 11.043777 7.3200226 17.672102l0 0c0 13.802769 -11.189362 24.992126 -24.992126 24.992126l0 0c-13.80278 0 -24.992126 -11.189358 -24.992126 -24.992126z" fill-rule="evenodd"/><path stroke="#000000" stroke-width="1.0" stroke-linejoin="round" stroke-linecap="butt" d="m119.634384 29.253273l0 0c0 -13.80277 11.189346 -24.992126 24.992126 -24.992126l0 0c6.6283264 0 12.985168 2.6330914 17.672104 7.320024c4.68692 4.6869335 7.3200226 11.043777 7.3200226 17.672102l0 0c0 13.802769 -11.189362 24.992126 -24.992126 24.992126l0 0c-13.80278 0 -24.992126 -11.189358 -24.992126 -24.992126z" fill-rule="evenodd"/><path fill="#000000" d="m142.75467 29.428272q0 -1.203125 -0.25 -1.921875q-0.25 -0.71875 -0.671875 -1.078125q-0.40625 -0.359375 -0.90625 -0.484375q-0.484375 -0.125 -0.953125 -0.125l-1.078125 0l0 7.3125l1.09375 0q0.5 0 0.984375 -0.15625q0.484375 -0.15625 0.890625 -0.5625q0.40625 -0.40625 0.640625 -1.125q0.25 -0.71875 0.25 -1.859375zm1.234375 0q0 1.4375 -0.375 2.34375q-0.359375 0.90625 -0.984375 1.40625q-0.609375 0.5 -1.34375 0.6875q-0.71875 0.1875 -1.4375 0.1875l-2.109375 0l0 -9.171875l1.96875 0q0.796875 0 1.5625 0.1875q0.765625 0.171875 1.375 0.65625q0.625 0.484375 0.984375 1.375q0.359375 0.890625 0.359375 2.328125zm5.1843414 -3.5625l0 8.1875l-1.140625 0l0 -8.1875l-2.875 0l0 -0.984375l6.921875 0l-0.109375 0.984375l-2.796875 0z" fill-rule="nonzero"/><path fill="#1f77b4" fill-opacity="0.4693" d="m119.634384 93.030174l0 0c0 -13.802765 11.189346 -24.992126 24.992126 -24.992126l0 0c6.6283264 0 12.985168 2.6330948 17.672104 7.3200226c4.68692 4.6869354 7.3200226 11.043785 7.3200226 17.672104l0 0c0 13.8027725 -11.189362 24.992126 -24.992126 24.992126l0 0c-13.80278 0 -24.992126 -11.189354 -24.992126 -24.992126z" fill-rule="evenodd"/><path stroke="#000000" stroke-width="1.0" stroke-linejoin="round" stroke-linecap="butt" d="m119.634384 93.030174l0 0c0 -13.802765 11.189346 -24.992126 24.992126 -24.992126l0 0c6.6283264 0 12.985168 2.6330948 17.672104 7.3200226c4.68692 4.6869354 7.3200226 11.043785 7.3200226 17.672104l0 0c0 13.8027725 -11.189362 24.992126 -24.992126 24.992126l0 0c-13.80278 0 -24.992126 -11.189354 -24.992126 -24.992126z" fill-rule="evenodd"/><path fill="#000000" d="m142.75467 93.20518q0 -1.203125 -0.25 -1.921875q-0.25 -0.71875 -0.671875 -1.078125q-0.40625 -0.359375 -0.90625 -0.484375q-0.484375 -0.125 -0.953125 -0.125l-1.078125 0l0 7.3125l1.09375 0q0.5 0 0.984375 -0.15625q0.484375 -0.15625 0.890625 -0.5625q0.40625 -0.40625 0.640625 -1.125q0.25 -0.71875 0.25 -1.859375zm1.234375 0q0 1.4375 -0.375 2.34375q-0.359375 0.90625 -0.984375 1.40625q-0.609375 0.5 -1.34375 0.6875q-0.71875 0.1875 -1.4375 0.1875l-2.109375 0l0 -9.171875l1.96875 0q0.796875 0 1.5625 0.1875q0.765625 0.171875 1.375 0.65625q0.625 0.484375 0.984375 1.375q0.359375 0.890625 0.359375 2.328125zm5.1843414 -3.5625l0 8.1875l-1.140625 0l0 -8.1875l-2.875 0l0 -0.984375l6.921875 0l-0.109375 0.984375l-2.796875 0zm2.2991638 -2.2693634l-5.71875 0l0 -0.859375l5.71875 0l0 0.859375z" fill-rule="nonzero"/><path fill="#1f77b4" fill-opacity="0.4693" d="m119.634384 153.88057l0 0c0 -13.802765 11.189346 -24.992126 24.992126 -24.992126l0 0c6.6283264 0 12.985168 2.6330872 17.672104 7.3200226c4.68692 4.6869354 7.3200226 11.043777 7.3200226 17.672104l0 0c0 13.802765 -11.189362 24.992126 -24.992126 24.992126l0 0c-13.80278 0 -24.992126 -11.189362 -24.992126 -24.992126z" fill-rule="evenodd"/><path stroke="#000000" stroke-width="1.0" stroke-linejoin="round" stroke-linecap="butt" d="m119.634384 153.88057l0 0c0 -13.802765 11.189346 -24.992126 24.992126 -24.992126l0 0c6.6283264 0 12.985168 2.6330872 17.672104 7.3200226c4.68692 4.6869354 7.3200226 11.043777 7.3200226 17.672104l0 0c0 13.802765 -11.189362 24.992126 -24.992126 24.992126l0 0c-13.80278 0 -24.992126 -11.189362 -24.992126 -24.992126z" fill-rule="evenodd"/><path fill="#000000" d="m142.75467 154.05557q0 -1.203125 -0.25 -1.921875q-0.25 -0.71875 -0.671875 -1.078125q-0.40625 -0.359375 -0.90625 -0.484375q-0.484375 -0.125 -0.953125 -0.125l-1.078125 0l0 7.3125l1.09375 0q0.5 0 0.984375 -0.15625q0.484375 -0.15625 0.890625 -0.5625q0.40625 -0.40625 0.640625 -1.125q0.25 -0.71875 0.25 -1.859375zm1.234375 0q0 1.4375 -0.375 2.34375q-0.359375 0.90625 -0.984375 1.40625q-0.609375 0.5 -1.34375 0.6875q-0.71875 0.1875 -1.4375 0.1875l-2.109375 0l0 -9.171875l1.96875 0q0.796875 0 1.5625 0.1875q0.765625 0.171875 1.375 0.65625q0.625 0.484375 0.984375 1.375q0.359375 0.890625 0.359375 2.328125zm-0.7200012 -5.8318634l-5.71875 0l0 -0.859375l5.71875 0l0 0.859375zm5.9043427 2.2693634l0 8.1875l-1.140625 0l0 -8.1875l-2.875 0l0 -0.984375l6.921875 0l-0.109375 0.984375l-2.796875 0z" fill-rule="nonzero"/><path fill="#1f77b4" fill-opacity="0.4693" d="m119.634384 214.73096l0 0c0 -13.802765 11.189346 -24.992126 24.992126 -24.992126l0 0c6.6283264 0 12.985168 2.6331024 17.672104 7.320038c4.68692 4.68692 7.3200226 11.043777 7.3200226 17.672089l0 0c0 13.80278 -11.189362 24.992126 -24.992126 24.992126l0 0c-13.80278 0 -24.992126 -11.189346 -24.992126 -24.992126z" fill-rule="evenodd"/><path stroke="#000000" stroke-width="1.0" stroke-linejoin="round" stroke-linecap="butt" d="m119.634384 214.73096l0 0c0 -13.802765 11.189346 -24.992126 24.992126 -24.992126l0 0c6.6283264 0 12.985168 2.6331024 17.672104 7.320038c4.68692 4.68692 7.3200226 11.043777 7.3200226 17.672089l0 0c0 13.80278 -11.189362 24.992126 -24.992126 24.992126l0 0c-13.80278 0 -24.992126 -11.189346 -24.992126 -24.992126z" fill-rule="evenodd"/><path fill="#000000" d="m142.75467 214.90596q0 -1.203125 -0.25 -1.921875q-0.25 -0.71875 -0.671875 -1.078125q-0.40625 -0.359375 -0.90625 -0.484375q-0.484375 -0.125 -0.953125 -0.125l-1.078125 0l0 7.3125l1.09375 0q0.5 0 0.984375 -0.15625q0.484375 -0.15625 0.890625 -0.5625q0.40625 -0.40625 0.640625 -1.125q0.25 -0.71875 0.25 -1.859375zm1.234375 0q0 1.4375 -0.375 2.34375q-0.359375 0.90625 -0.984375 1.40625q-0.609375 0.5 -1.34375 0.6875q-0.71875 0.1875 -1.4375 0.1875l-2.109375 0l0 -9.171875l1.96875 0q0.796875 0 1.5625 0.1875q0.765625 0.171875 1.375 0.65625q0.625 0.484375 0.984375 1.375q0.359375 0.890625 0.359375 2.328125zm-0.7200012 -5.8318634l-5.71875 0l0 -0.859375l5.71875 0l0 0.859375zm5.9043427 2.2693634l0 8.1875l-1.140625 0l0 -8.1875l-2.875 0l0 -0.984375l6.921875 0l-0.109375 0.984375l-2.796875 0zm2.2991638 -2.2693634l-5.71875 0l0 -0.859375l5.71875 0l0 0.859375z" fill-rule="nonzero"/><path fill="#000000" fill-opacity="0.0" d="m13.809704 122.04124l105.82677 -92.7874" fill-rule="evenodd"/><path stroke="#000000" stroke-width="1.0" stroke-linejoin="round" stroke-linecap="butt" d="m13.809704 122.04124l101.31531 -88.83181" fill-rule="evenodd"/><path fill="#000000" stroke="#000000" stroke-width="1.0" stroke-linecap="butt" d="m116.213936 34.45138l2.3233185 -4.233761l-4.501175 1.7498512z" fill-rule="evenodd"/><path fill="#000000" fill-opacity="0.0" d="m13.809704 122.04124l105.82677 -29.007874" fill-rule="evenodd"/><path stroke="#000000" stroke-width="1.0" stroke-linejoin="round" stroke-linecap="butt" d="m13.809704 122.04124l100.04022 -27.421745" fill-rule="evenodd"/><path fill="#000000" stroke="#000000" stroke-width="1.0" stroke-linecap="butt" d="m114.28657 96.21247l3.94001 -2.7926483l-4.813301 -0.3932953z" fill-rule="evenodd"/><path fill="#000000" fill-opacity="0.0" d="m13.809704 122.04124l105.82677 31.842522" fill-rule="evenodd"/><path stroke="#000000" stroke-width="1.0" stroke-linejoin="round" stroke-linecap="butt" d="m13.809704 122.04124l100.08122 30.113716" fill-rule="evenodd"/><path fill="#000000" stroke="#000000" stroke-width="1.0" stroke-linecap="butt" d="m113.41501 153.73665l4.8215637 -0.2741089l-3.869728 -2.889267z" fill-rule="evenodd"/><path fill="#000000" fill-opacity="0.0" d="m13.809704 122.04124l105.82677 92.692924" fill-rule="evenodd"/><path stroke="#000000" stroke-width="1.0" stroke-linejoin="round" stroke-linecap="butt" d="m13.809704 122.04124l101.31331 88.7396" fill-rule="evenodd"/><path fill="#000000" stroke="#000000" stroke-width="1.0" stroke-linecap="butt" d="m114.034706 212.02335l4.50206 1.7475739l-2.3254547 -4.2325897z" fill-rule="evenodd"/><path fill="#000000" d="m9.022302 117.25384l0 0c2.6440086 0 4.787402 2.1433945 4.787402 4.7873993l0 0c0 1.2696991 -0.50438595 2.4873962 -1.4021978 3.3852081c-0.8978119 0.8978119 -2.1155062 1.4021988 -3.3852043 1.4021988l0 0c-2.6440086 0 -4.787401 -2.1433945 -4.787401 -4.787407l0 0c0 -2.6440048 2.1433926 -4.7873993 4.787401 -4.7873993z" fill-rule="evenodd"/><path stroke="#000000" stroke-width="1.0" stroke-linejoin="round" stroke-linecap="butt" d="m9.022302 117.25384l0 0c2.6440086 0 4.787402 2.1433945 4.787402 4.7873993l0 0c0 1.2696991 -0.50438595 2.4873962 -1.4021978 3.3852081c-0.8978119 0.8978119 -2.1155062 1.4021988 -3.3852043 1.4021988l0 0c-2.6440086 0 -4.787401 -2.1433945 -4.787401 -4.787407l0 0c0 -2.6440048 2.1433926 -4.7873993 4.787401 -4.7873993z" fill-rule="evenodd"/><path fill="#000000" fill-opacity="0.0" d="m48.660034 58.62284l44.7874 -38.83465l19.023628 21.984251l-44.787407 38.83465z" fill-rule="evenodd"/><path fill="#000000" d="m65.875984 59.295868q0.31873322 -0.27637863 0.6618271 -0.42910004q0.34308624 -0.1527214 0.7121048 -0.20384598l0.12722778 0.69623566q-0.29112244 0.04562378 -0.5547409 0.17079544q-0.26361084 0.12517548 -0.4879074 0.3196602q-0.44860077 0.38897324 -0.4999237 0.9505005q-0.051330566 0.56152344 0.25371552 1.2483406q0.30662537 0.6647682 0.95233154 1.3870888l0.22493744 0.2599411q0.8895111 1.0279427 1.5699997 1.2651329q0.6804886 0.23719025 1.2943573 -0.29508972q0.51942444 -0.45039368 0.46218872 -1.0418663q-0.055656433 -0.6135254 -0.6179886 -1.2633743q-0.58278656 -0.673481 -1.0792389 -0.6979904q-0.5066757 -0.036327362 -0.9434662 0.34241104q-0.4367981 0.3787384 -0.5424042 0.92528915q-0.10561371 0.54655075 0.0413208 1.1222878l-0.5332413 -0.59235q-0.12722778 -0.69623184 0.04131317 -1.193943q0.17012024 -0.51976395 0.6187134 -0.9087372q0.4249878 -0.36849976 0.94273376 -0.48653793q0.51773834 -0.11803436 1.0676346 0.087623596q0.5616989 0.19542694 1.0729141 0.78619766q0.531662 0.6144066 0.673851 1.2562981q0.14219666 0.6418953 -0.05469513 1.2262306q-0.18508148 0.5741043 -0.6690979 0.9937897q-0.50762177 0.4401474 -1.0253601 0.5581894q-0.5161667 0.09598541 -1.0471954 -0.06399536q-0.51921844 -0.17021179 -1.0548859 -0.5743332q-0.5340805 -0.42617798 -1.0657425 -1.0405807q-0.797493 -0.921608 -1.1441727 -1.7998123q-0.334877 -0.8884392 -0.19142914 -1.6539307q0.14503479 -0.78754044 0.79431915 -1.3505249zm8.162376 1.6911583q-0.16358948 -0.18904877 -0.20206451 -0.42453766q-0.048698425 -0.24730682 0.022972107 -0.4748993q0.083480835 -0.2378273 0.28417206 -0.41184235q0.2006836 -0.17401505 0.4477539 -0.2227974q0.24706268 -0.04878235 0.47283936 0.04498291q0.22735596 0.07170868 0.39094543 0.26075745q0.17381287 0.20086288 0.22251129 0.4481697q0.0605011 0.23706818 -0.022972107 0.4748993q-0.083480835 0.2378273 -0.28417206 0.41184235q-0.2006836 0.17401505 -0.4477539 0.2227974q-0.23526001 0.0385437 -0.47283936 -0.04498291q-0.23757935 -0.08352661 -0.4113922 -0.2843895zm1.4990768 -10.068497q0.31873322 -0.27637482 0.6618271 -0.42909622q0.34308624 -0.15272522 0.7121048 -0.20384598l0.12722778 0.69623566q-0.29112244 0.04562378 -0.5547409 0.17079544q-0.26361084 0.12517166 -0.4879074 0.3196602q-0.44860077 0.38897324 -0.49993134 0.9504967q-0.051322937 0.56152725 0.25372314 1.2483444q0.30661774 0.6647644 0.95233154 1.3870888l0.22493744 0.2599411q0.8895111 1.0279427 1.5699997 1.2651329q0.6804886 0.23718643 1.2943573 -0.29509354q0.51942444 -0.45038986 0.46218872 -1.0418625q-0.055656433 -0.6135254 -0.6179886 -1.2633781q-0.58278656 -0.673481 -1.0792389 -0.6979904q-0.5066757 -0.036323547 -0.9434662 0.34241486q-0.4367981 0.3787346 -0.5424042 0.92528915q-0.10561371 0.54655075 0.0413208 1.1222916l-0.5332413 -0.5923538q-0.12722778 -0.69623566 0.04131317 -1.1939468q0.17012024 -0.51976013 0.6187134 -0.90873337q0.4249878 -0.36849976 0.94273376 -0.48653793q0.51773834 -0.11803818 1.0676346 0.087623596q0.5616989 0.19542313 1.0729141 0.78619766q0.531662 0.6144028 0.673851 1.2562981q0.14219666 0.6418953 -0.05469513 1.2262344q-0.18508148 0.5741005 -0.6690979 0.99378204q-0.50762177 0.44015503 -1.0253601 0.5581894q-0.5161667 0.09598541 -1.0471954 -0.06399155q-0.51921844 -0.1702156 -1.0548859 -0.574337q-0.5340805 -0.42617798 -1.0657425 -1.0405807q-0.797493 -0.921608 -1.1441727 -1.7998123q-0.334877 -0.8884392 -0.19142914 -1.6539268q0.14503479 -0.78754044 0.79431915 -1.3505287zm6.1371994 -5.4249l0.6821747 -0.09516525l1.0127792 8.883171l-0.6703644 0.084926605l-1.0245895 -8.872932zm2.5942307 4.120262q-0.23610687 0.20472336 -0.23778534 0.53707504q-0.0016860962 0.33235168 0.3663864 0.7577095q0.33740234 0.38991165 0.69693756 0.47109985q0.3493042 0.06937027 0.5854111 -0.13535309q0.24790955 -0.21495819 0.22756195 -0.54888916q-0.0085372925 -0.34416962 -0.3766098 -0.76952744q-0.37830353 -0.43717194 -0.69693756 -0.47109604q-0.31705475 -0.055976868 -0.5649643 0.15898132zm-4.850914 -1.212204q-0.23609924 0.20472336 -0.22756195 0.548893q-0.0016860962 0.33235168 0.35616302 0.7458916q0.33740234 0.38991165 0.6851349 0.4813347q0.3493042 0.069374084 0.59721375 -0.1455841q0.24790955 -0.21495819 0.23779297 -0.53707504q-0.008544922 -0.34416962 -0.38684082 -0.78134155q-0.3782959 -0.43717194 -0.69693756 -0.47109985q-0.31705475 -0.055976868 -0.5649643 0.15898132zm-0.41918945 -0.48443222q0.37776184 -0.3275566 0.79084015 -0.3755226q0.42488098 -0.05819702 0.8103485 0.12459183q0.3972702 0.17255402 0.69377136 0.51520157q0.29650116 0.34264755 0.41044617 0.7608681q0.12575531 0.4079857 0.017822266 0.8324623q-0.10635376 0.40242767 -0.4841156 0.7299843q-0.37776947 0.3275566 -0.80265045 0.38575363q-0.4233017 0.03614807 -0.8205719 -0.13640594q-0.3854599 -0.18278885 -0.6819687 -0.5254364q-0.30672455 -0.35446167 -0.42224884 -0.75063324q-0.11394501 -0.41822052 -0.007598877 -0.8206444q0.11815643 -0.4126625 0.4959259 -0.7402191zm4.840683 1.200386q0.37776947 -0.3275566 0.80107117 -0.36370468q0.42488098 -0.05819702 0.8103409 0.12459183q0.3972702 0.1725502 0.693779 0.51520157q0.29650116 0.34264755 0.41044617 0.7608681q0.12574768 0.40798187 0.017814636 0.8324623q-0.10634613 0.40242767 -0.4841156 0.7299843q-0.36595917 0.31731796 -0.79084015 0.3755188q-0.4233017 0.03614807 -0.8205719 -0.13640594q-0.3972702 -0.17255402 -0.69377136 -0.51520157q-0.30673218 -0.35446548 -0.42066956 -0.772686q-0.11394501 -0.41822052 -0.007598877 -0.8206444q0.11815643 -0.4126625 0.4841156 -0.7299843z" fill-rule="nonzero"/><path fill="#000000" fill-opacity="0.0" d="m52.64188 86.74506l57.228344 -15.496063l7.559059 28.062988l-57.228348 15.496063z" fill-rule="evenodd"/><path fill="#000000" d="m67.48648 94.93684q1.146225 -0.3103714 1.975357 0.4849472q0.84015656 0.7761383 1.3156357 2.5413513q0.47547913 1.7652054 0.14331055 2.874977q-0.31708527 1.1056824 -1.4633102 1.4160461q-1.1462173 0.3103714 -1.9904404 -0.48085785q-0.8442154 -0.79122925 -1.3196945 -2.5564346q-0.47547913 -1.765213 -0.13925171 -2.8598938q0.33216858 -1.1097641 1.4783936 -1.4201355zm0.18694305 0.6940155q-0.66360474 0.1796875 -0.853714 0.97579956q-0.17502594 0.7920227 0.24761963 2.3610992q0.28447723 1.0561066 0.5990219 1.683197q0.32556915 0.60791016 0.7235718 0.8238983q0.39392853 0.20089722 0.87654877 0.07021332q0.43737793 -0.11843109 0.67282104 -0.50593567q0.23543549 -0.38750458 0.22659302 -1.0811768q-0.012916565 -0.7087631 -0.29332733 -1.7497864q-0.2844696 -1.0561066 -0.61003876 -1.6640244q-0.31454468 -0.6270828 -0.70848083 -0.82798004q-0.397995 -0.21598816 -0.88061523 -0.08530426zm1.1097336 -0.025299072l0.42942047 0.6931076l-1.0349808 5.1689224l-0.47927094 -0.5177307l1.0848312 -5.3442993zm5.677994 4.3062897q-0.06502533 -0.24140167 0.0027999878 -0.4702072q0.06375885 -0.24388885 0.22731781 -0.41767883q0.17863464 -0.1778717 0.43502808 -0.24729156q0.2563858 -0.06942749 0.5000458 -0.0059051514q0.24365997 0.06352997 0.40612793 0.24616241q0.1734848 0.16345978 0.2385025 0.40486145q0.0690918 0.256485 0.005332947 0.50037384q-0.048683167 0.23980713 -0.22731781 0.41767883q-0.17863464 0.1778717 -0.43502808 0.2472992q-0.25639343 0.06941986 -0.5000458 0.005897522q-0.22857666 -0.067611694 -0.40612793 -0.24616241q-0.17755127 -0.17855072 -0.24663544 -0.43502808zm5.0969925 -8.243721l0.8052063 0.10572052l-0.6782532 4.991394l3.7704697 -1.0209503l0.18694305 0.6940155l-4.690468 1.2700653l-0.17068481 -0.633667l0.7767868 -5.406578zm2.452011 2.3145828l1.1907272 4.4205704l-0.84458923 0.22869873l-0.60552216 -2.2480087l-0.4645462 -2.2052307l0.72393036 -0.19602966zm6.067093 -4.7022934l0.65556335 0.21099854l-2.9532852 8.440262l-0.64048004 -0.21508026l2.938202 -8.43618zm0.5428314 4.8388214q-0.30163574 0.08167267 -0.44776154 0.3802414q-0.1461258 0.29857635 1.7547607E-4 0.84171295q0.1341095 0.49787903 0.4224701 0.7273636q0.28430176 0.21440125 0.5859375 0.13272095q0.31671906 -0.085754395 0.44369507 -0.39533234q0.14205933 -0.31365204 -0.0042419434 -0.85679626q-0.1503601 -0.55822754 -0.4224701 -0.7273636q-0.2610855 -0.18830872 -0.57780457 -0.10254669zm-3.8398132 -3.2014465q-0.30163574 0.0816803 -0.44369507 0.39533234q-0.1461258 0.29857635 -0.0038833618 0.82662964q0.1341095 0.49787903 0.40738678 0.7314453q0.28429413 0.21440125 0.6010132 0.12863922q0.31671906 -0.085762024 0.44776154 -0.38024902q0.14205933 -0.31365204 -0.008300781 -0.8718872q-0.15036774 -0.55822754 -0.4224701 -0.7273636q-0.2610855 -0.18830109 -0.5778122 -0.10254669zm-0.16661835 -0.61857605q0.48262024 -0.1306839 0.87538147 0.005783081q0.40784454 0.13238525 0.67533875 0.4646454q0.28258514 0.32817078 0.4004364 0.7657013q0.11785126 0.43753052 0.038467407 0.86372375q-0.06430054 0.42209625 -0.3461609 0.7574234q-0.2708435 0.31615448 -0.75346375 0.44683838q-0.48262024 0.13067627 -0.8904648 -0.001701355q-0.39682007 -0.1515503 -0.6794052 -0.4797287q-0.2674942 -0.33226013 -0.3853531 -0.76979065q-0.121910095 -0.45262146 -0.05354309 -0.8596344q0.07938385 -0.4261856 0.35022736 -0.7423401q0.2859192 -0.3202362 0.7685394 -0.4509201zm3.8357468 3.1863556q0.48262024 -0.1306839 0.87944794 0.020874023q0.4078369 0.13237762 0.67533875 0.46463776q0.2825775 0.3281784 0.4004364 0.7657089q0.11785126 0.43753052 0.038467407 0.8637161q-0.06430817 0.42210388 -0.34616852 0.75743103q-0.2708435 0.31614685 -0.75346375 0.44683075q-0.46753693 0.12660217 -0.87537384 -0.005783081q-0.3968277 -0.1515503 -0.6794052 -0.4797287q-0.28258514 -0.32817078 -0.4004364 -0.7657089q-0.121917725 -0.45261383 -0.042533875 -0.87879944q0.07938385 -0.42619324 0.35022736 -0.7423401q0.28592682 -0.3202362 0.75346375 -0.44683838z" fill-rule="nonzero"/><path fill="#000000" fill-opacity="0.0" d="m61.035763 108.5619l56.629925 17.543304l-8.629921 27.779533l-56.629925 -17.54332z" fill-rule="evenodd"/><path fill="#000000" d="m68.92688 123.34598l0.6236954 0.5203705l-3.2423935 3.8537445l3.731308 1.1559143l-0.21323395 0.6863861l-4.6417465 -1.4379578l0.19469452 -0.62670135l3.547676 -4.1517563zm0.83361816 3.2680435l-1.3582001 4.372017l-0.8358154 -0.2589264l0.6906891 -2.2233124l0.786911 -2.1117172l0.7164154 0.22193909zm2.6666107 4.7518997q0.074165344 -0.23873901 0.25382996 -0.3957367q0.18429565 -0.17190552 0.4154129 -0.23117065q0.24603271 -0.054641724 0.4997635 0.023956299q0.25373077 0.07861328 0.42559814 0.26271057q0.17186737 0.18409729 0.21144867 0.42536926q0.059143066 0.23097229 -0.015029907 0.4697113q-0.078804016 0.25367737 -0.26309967 0.4255829q-0.16937256 0.17654419 -0.4154129 0.23118591q-0.24603271 0.054626465 -0.4997635 -0.023971558q-0.25373077 -0.07859802 -0.42559814 -0.26271057q-0.15694427 -0.17947388 -0.21144867 -0.42536926q-0.054504395 -0.24588013 0.024299622 -0.4995575zm9.697166 -3.8170319l-2.1137924 6.8042297l-0.8656616 -0.26817322l1.8217545 -5.8641815l-1.8983078 0.47517395l-0.18307495 -0.7273712l2.4928207 -0.65086365l0.7462616 0.23118591zm-0.49814606 6.7649384l-0.21786499 0.7013092l-4.044739 -1.253006l0.21786499 -0.70132446l4.044739 1.2530212zm7.9895782 -4.6404724l0.440979 0.52919006l-7.0088043 5.54953l-0.4260559 -0.52456665l6.993881 -5.5541534zm-2.129219 4.378525q-0.2985077 -0.09246826 -0.5816269 0.08154297q-0.2831192 0.17401123 -0.44999695 0.7111969q-0.15296936 0.49240112 -0.032096863 0.84065247q0.1255188 0.333313 0.42401886 0.42578125q0.3134308 0.09710693 0.58626556 -0.096450806q0.28775787 -0.18893433 0.45463562 -0.72612q0.17150879 -0.5520935 0.032089233 -0.84065247q-0.11985779 -0.29884338 -0.43328857 -0.39595032zm-1.5317459 -4.760193q-0.29850006 -0.09248352 -0.58625793 0.096450806q-0.2831192 0.17401123 -0.4453659 0.6962738q-0.15296936 0.49241638 -0.04701233 0.83602905q0.12551117 0.333313 0.43894196 0.43041992q0.3134308 0.097091675 0.5816269 -0.08154297q0.28775787 -0.18893433 0.45926666 -0.74102783q0.17151642 -0.55210876 0.032096863 -0.84065247q-0.11986542 -0.29885864 -0.4332962 -0.39595032zm0.19005585 -0.6117859q0.47760773 0.14794922 0.73643494 0.47349548q0.27374268 0.33016968 0.32203674 0.7540741q0.06321716 0.42851257 -0.07121277 0.8612366q-0.13442993 0.432724 -0.42942047 0.7502899q-0.28006744 0.32217407 -0.6975174 0.45457458q-0.39788055 0.12210083 -0.8754883 -0.025848389q-0.47760773 -0.14796448 -0.75135803 -0.47813416q-0.25418854 -0.3404541 -0.3174057 -0.76898193q-0.048286438 -0.42390442 0.08614349 -0.8566284q0.13906097 -0.4476471 0.41448975 -0.7548981q0.29499054 -0.31756592 0.6928787 -0.43966675q0.41281128 -0.11747742 0.890419 0.03048706zm1.536377 4.74527q0.47760773 0.14796448 0.73179626 0.48843384q0.2737503 0.33016968 0.32203674 0.75405884q0.06321716 0.42852783 -0.07121277 0.86125183q-0.13442993 0.432724 -0.42942047 0.75027466q-0.2800598 0.32218933 -0.69750977 0.45458984q-0.39788818 0.12210083 -0.8754959 -0.025863647q-0.46268463 -0.1433258 -0.7364273 -0.47349548q-0.25418854 -0.34046936 -0.3174057 -0.76898193q-0.06321716 -0.42852783 0.07121277 -0.86125183q0.1390686 -0.4476471 0.43405914 -0.76519775q0.29499054 -0.31756592 0.6928787 -0.43966675q0.41281128 -0.11747742 0.8754883 0.025848389z" fill-rule="nonzero"/><path fill="#000000" fill-opacity="0.0" d="m68.01369 137.88559l44.377953 39.27559l-19.275589 21.732285l-44.377953 -39.27559z" fill-rule="evenodd"/><path fill="#000000" d="m69.73498 157.63205q-0.35251617 0.39743042 -0.8678055 0.48390198q-0.50491333 0.07476807 -1.1789703 -0.083602905q0.34123993 0.69844055 0.32537842 1.3520966q-0.00415802 0.6640167 -0.4499817 1.1666718q-0.39398956 0.4441986 -0.9494095 0.5994568q-0.5450592 0.1435852 -1.1529083 -0.018798828q-0.5974808 -0.17407227 -1.182518 -0.69184875q-0.5850334 -0.51776123 -0.83000183 -1.0892792q-0.22290039 -0.5728607 -0.13417053 -1.120285q0.100429535 -0.5370941 0.49441528 -0.9812927q0.4458313 -0.5026398 1.0493851 -0.59443665q0.6152649 -0.081451416 1.3153839 0.14173889q-0.24629974 -0.5935669 -0.20941162 -1.08255q0.036888123 -0.4889984 0.45161438 -0.9565735q0.33177948 -0.3740692 0.7223511 -0.5083008q0.3905716 -0.13424683 0.7918091 -0.09211731q0.4012375 0.042114258 0.75463104 0.20881653q0.36508942 0.17706299 0.6459122 0.42559814q0.292511 0.25888062 0.5124512 0.5995941q0.21994781 0.3407135 0.29843903 0.7231598q0.10056305 0.38111877 0.0025024414 0.77423096q-0.08769226 0.3814392 -0.40909576 0.7438202zm-2.8954926 2.2990723q0.33177948 -0.3740692 0.33119202 -0.7501526q0.009780884 -0.38778687 -0.19342041 -0.8180237q-0.2032013 -0.43022156 -0.51304626 -0.97569275q-0.31562042 -0.091537476 -0.6596832 -0.10392761q-0.3337021 -0.02407837 -0.66843414 0.11784363q-0.32437134 0.13023376 -0.6354141 0.48091125q-0.40435028 0.4559021 -0.3619995 0.97328186q0.05404663 0.5277405 0.6273804 1.0351562q0.57333374 0.5074158 1.1263885 0.496109q0.56342316 -0.022994995 0.94703674 -0.45550537zm0.22135925 -4.5822906q-0.27993774 0.31562805 -0.30541992 0.6269226q-0.0034103394 0.30995178 0.16202545 0.6650238q0.18750763 0.3537445 0.4361801 0.8033447q0.5831146 0.119628906 0.9673157 0.06321716q0.4062729 -0.057754517 0.73805237 -0.43182373q0.36288452 -0.4091339 0.3231964 -0.88243103q-0.03968811 -0.47329712 -0.5077133 -0.8875122q-0.4680252 -0.4142151 -0.95487213 -0.40690613q-0.47514343 0.017654419 -0.85876465 0.4501648zm7.462105 6.520691q-0.35251617 0.39744568 -0.8678055 0.48390198q-0.50491333 0.07476807 -1.1789703 -0.083602905q0.34123993 0.69844055 0.32537842 1.3520966q-0.00415802 0.6640167 -0.4499817 1.1666718q-0.39398956 0.4441986 -0.9494095 0.59947205q-0.5450592 0.14356995 -1.1529083 -0.018814087q-0.5974808 -0.17407227 -1.182518 -0.69184875q-0.58503723 -0.51776123 -0.83000183 -1.0892792q-0.22290039 -0.57284546 -0.13417053 -1.120285q0.10043335 -0.53707886 0.49441528 -0.9812927q0.4458313 -0.5026398 1.0493851 -0.59443665q0.6152649 -0.081451416 1.3153839 0.14173889q-0.24629974 -0.5935669 -0.20941162 -1.08255q0.036888123 -0.4889984 0.45161438 -0.9565735q0.33177948 -0.3740692 0.7223511 -0.5083008q0.3905716 -0.13424683 0.7918091 -0.09211731q0.4012375 0.042114258 0.75463104 0.20881653q0.36508942 0.17706299 0.6459122 0.42559814q0.292511 0.25888062 0.5124512 0.5995941q0.21994781 0.3407135 0.29843903 0.7231598q0.10056305 0.38111877 0.0025024414 0.7742462q-0.08769226 0.38142395 -0.40909576 0.74380493zm-2.8954926 2.2990723q0.33177948 -0.37405396 0.33119202 -0.7501526q0.009780884 -0.38778687 -0.19342041 -0.8180237q-0.2032013 -0.43022156 -0.51303864 -0.97569275q-0.31562805 -0.091537476 -0.65969086 -0.10392761q-0.3337021 -0.02407837 -0.66843414 0.11784363q-0.32437134 0.13023376 -0.6354141 0.4809265q-0.40435028 0.45588684 -0.3619995 0.9732666q0.05404663 0.52775574 0.6273804 1.0351562q0.57333374 0.5074158 1.1263885 0.496109q0.56342316 -0.022994995 0.94703674 -0.45550537zm0.22135925 -4.5822906q-0.27993774 0.31562805 -0.30541992 0.6269226q-0.0034103394 0.30996704 0.16202545 0.6650238q0.18750763 0.3537445 0.4361801 0.8033447q0.5831146 0.119628906 0.9673157 0.06321716q0.4062729 -0.057754517 0.73805237 -0.43182373q0.36288452 -0.40911865 0.3231964 -0.88243103q-0.03968048 -0.47329712 -0.5077133 -0.8875122q-0.4680252 -0.4142151 -0.95487213 -0.40690613q-0.47514343 0.017654419 -0.85876465 0.4501648zm1.9480057 8.004547q0.16588593 -0.18702698 0.39427948 -0.2561493q0.23875427 -0.08081055 0.4738083 -0.03970337q0.2467575 0.051452637 0.44566345 0.22749329q0.19891357 0.17604065 0.27977753 0.41453552q0.08086395 0.23849487 0.017616272 0.4746399q-0.041175842 0.23480225 -0.20706177 0.42182922q-0.1762619 0.19873047 -0.41501617 0.27952576q-0.22705841 0.091171265 -0.47381592 0.039718628q-0.24674988 -0.051467896 -0.44566345 -0.22750854q-0.19891357 -0.17604065 -0.27977753 -0.41453552q-0.06916809 -0.22813416 -0.017616272 -0.47462463q0.05154419 -0.24650574 0.22780609 -0.44522095zm9.7938 -0.15834045q0.6084366 0.53848267 0.7574234 1.1711121q0.15935516 0.62094116 -0.08755493 1.2996216q-0.24691772 0.6786957 -0.85863495 1.3683777q-0.73612976 0.82995605 -1.4196777 1.247406q-0.6718445 0.42781067 -1.376709 0.49253845q-0.69316864 0.07510376 -1.4932709 -0.15310669q-0.7780304 -0.22953796 -1.7369003 -0.7025757l0.29371643 -0.63726807q0.9809418 0.4717102 1.7653427 0.6234131q0.78440094 0.15171814 1.4578705 -0.06599426q0.67346954 -0.2177124 1.3085861 -0.88668823l0.35385132 -0.37539673q0.6013489 -0.6779938 0.8472214 -1.1906738q0.25624084 -0.52438354 0.16604614 -0.91719055q-0.068122864 -0.39413452 -0.45424652 -0.7358551q-0.5265274 -0.46600342 -1.0976486 -0.3872223q-0.55942535 0.08912659 -1.1193008 0.72036743q-0.54950714 0.61953735 -0.5512924 1.1395874q0.02027893 0.51872253 0.48831177 0.9329376q0.409523 0.36244202 0.9107361 0.40959167q0.5115738 0.035446167 1.1215057 -0.13418579l-0.5184021 0.5844879q-0.55675507 0.13320923 -1.1034393 0.06669617q-0.5363159 -0.078201294 -1.0043411 -0.49241638q-0.4680252 -0.4142151 -0.6324234 -0.9352875q-0.1643982 -0.5210724 -0.032859802 -1.0932312q0.1536026 -0.5734863 0.64089966 -1.1228943q0.5184021 -0.58447266 1.1049347 -0.77479553q0.6085968 -0.19168091 1.1826706 -0.03831482q0.59615326 0.15202332 1.0875854 0.58695984zm6.570175 5.689575l0.18409729 0.6636963l-8.67305 2.1726532l-0.1723938 -0.65335083l8.661346 -2.1829987zm-3.7432938 3.1136627q-0.23401642 -0.20710754 -0.5637131 -0.16505432q-0.32969666 0.042053223 -0.7029495 0.46287537q-0.34214783 0.38575745 -0.37532806 0.75283813q-0.022819519 0.3553772 0.2111969 0.56248474q0.24571228 0.21746826 0.5740814 0.15336609q0.340065 -0.053741455 0.7133179 -0.4745636q0.38362122 -0.43251038 0.37532806 -0.75283813q0.0137786865 -0.32164 -0.2319336 -0.5391083zm0.5635071 -4.968048q-0.23401642 -0.20710754 -0.5740814 -0.15335083q-0.32969666 0.042053223 -0.6925812 0.45118713q-0.34214783 0.3857422 -0.38703156 0.74246216q-0.02281189 0.35539246 0.22290039 0.5728607q0.24571228 0.217453 0.5637131 0.16505432q0.340065 -0.053756714 0.7236862 -0.4862671q0.3836136 -0.43251038 0.37532806 -0.7528229q0.0137786865 -0.32165527 -0.2319336 -0.53912354zm0.42508698 -0.4792633q0.3744278 0.33137512 0.47631836 0.7345276q0.113594055 0.41352844 -0.016899109 0.81967163q-0.11878967 0.4165039 -0.4194641 0.75549316q-0.30067444 0.33900452 -0.70028687 0.50697327q-0.38790894 0.17832947 -0.8229141 0.127182q-0.41293335 -0.052474976 -0.78736115 -0.3838501q-0.37442017 -0.33137512 -0.48801422 -0.7448883q-0.09152222 -0.41485596 0.027267456 -0.83135986q0.13049316 -0.4061432 0.4311676 -0.74513245q0.3110428 -0.35069275 0.6885834 -0.5173187q0.39961243 -0.16798401 0.8125458 -0.11550903q0.42463684 0.06283569 0.799057 0.39421082zm-0.5531311 4.9563446q0.37442017 0.33137512 0.46594238 0.7462311q0.113594055 0.41351318 -0.016899109 0.8196564q-0.11878967 0.4165039 -0.4194641 0.7555084q-0.30067444 0.33898926 -0.70028687 0.506958q-0.38790894 0.17832947 -0.8229141 0.127182q-0.41293335 -0.052474976 -0.7873535 -0.38383484q-0.3627243 -0.32102966 -0.47631836 -0.73454285q-0.091529846 -0.41485596 0.027267456 -0.8313446q0.11878967 -0.4165039 0.4194641 -0.7555084q0.3110428 -0.3506775 0.7106552 -0.51864624q0.3996048 -0.16798401 0.8125458 -0.11550903q0.42463684 0.06283569 0.78736115 0.3838501z" fill-rule="nonzero"/></g></svg>